<ttFont>
    <TTGlyph name=".notdef" xMin="50" yMin="0" xMax="450" yMax="533">
      <contour>
        <pt x="50" y="0" on="1"/>
        <pt x="50" y="533" on="1"/>
        <pt x="450" y="533" on="1"/>
        <pt x="450" y="0" on="1"/>
      </contour>
      <contour>
        <pt x="100" y="50" on="1"/>
        <pt x="400" y="50" on="1"/>
        <pt x="400" y="483" on="1"/>
        <pt x="100" y="483" on="1"/>
      </contour>
    </TTGlyph>
    <TTGlyph name="A" xMin="-48" yMin="0" xMax="519" yMax="585">
      <contour>
        <pt x="296" y="0" on="1"/>
        <pt x="300" y="21" on="1"/>
        <pt x="346" y="21" on="0"/>
        <pt x="360" y="33" on="1"/>
        <pt x="329" y="186" on="1"/>
        <pt x="137" y="186" on="1"/>
        <pt x="61" y="39" on="1"/>
        <pt x="68" y="21" on="0"/>
        <pt x="120" y="21" on="1"/>
        <pt x="116" y="0" on="1"/>
        <pt x="-48" y="0" on="1"/>
        <pt x="-44" y="21" on="1"/>
        <pt x="12" y="21" on="0"/>
        <pt x="22" y="42" on="1"/>
        <pt x="307" y="585" on="1"/>
        <pt x="355" y="585" on="1"/>
        <pt x="458" y="42" on="1"/>
        <pt x="462" y="21" on="0"/>
        <pt x="519" y="21" on="1"/>
        <pt x="515" y="0" on="1"/>
      </contour>
      <contour>
        <pt x="277" y="452" on="1"/>
        <pt x="155" y="219" on="1"/>
        <pt x="323" y="219" on="1"/>
      </contour>
    </TTGlyph>
    <TTGlyph name="AE" xMin="-60" yMin="0" xMax="755" yMax="585">
      <contour>
        <pt x="-60" y="0" on="1"/>
        <pt x="-56" y="21" on="1"/>
        <pt x="-4" y="21" on="0"/>
        <pt x="10" y="42" on="1"/>
        <pt x="10" y="41" on="1"/>
        <pt x="382" y="553" on="1"/>
        <pt x="372" y="564" on="0"/>
        <pt x="327" y="564" on="1"/>
        <pt x="331" y="585" on="1"/>
        <pt x="755" y="585" on="1"/>
        <pt x="739" y="488" on="1"/>
        <pt x="718" y="488" on="1"/>
        <pt x="721" y="509" on="0"/>
        <pt x="721" y="522" on="1"/>
        <pt x="721" y="545" on="0"/>
        <pt x="708" y="551" on="1"/>
        <pt x="501" y="551" on="1"/>
        <pt x="463" y="321" on="1"/>
        <pt x="603" y="321" on="1"/>
        <pt x="624" y="329" on="0"/>
        <pt x="633" y="384" on="1"/>
        <pt x="654" y="384" on="1"/>
        <pt x="627" y="224" on="1"/>
        <pt x="606" y="224" on="1"/>
        <pt x="610" y="252" on="0"/>
        <pt x="610" y="258" on="1"/>
        <pt x="610" y="281" on="0"/>
        <pt x="597" y="287" on="1"/>
        <pt x="457" y="287" on="1"/>
        <pt x="415" y="34" on="1"/>
        <pt x="643" y="34" on="1"/>
        <pt x="669" y="44" on="0"/>
        <pt x="698" y="97" on="1"/>
        <pt x="718" y="97" on="1"/>
        <pt x="678" y="0" on="1"/>
        <pt x="254" y="0" on="1"/>
        <pt x="258" y="21" on="1"/>
        <pt x="313" y="21" on="0"/>
        <pt x="324" y="41" on="1"/>
        <pt x="348" y="186" on="1"/>
        <pt x="155" y="186" on="1"/>
        <pt x="48" y="39" on="1"/>
        <pt x="54" y="21" on="0"/>
        <pt x="108" y="21" on="1"/>
        <pt x="104" y="0" on="1"/>
        <pt x="28" y="0" on="1"/>
        <pt x="43" y="32" on="1"/>
        <pt x="20" y="0" on="1"/>
      </contour>
      <contour>
        <pt x="179" y="219" on="1"/>
        <pt x="354" y="219" on="1"/>
        <pt x="406" y="530" on="1"/>
      </contour>
    </TTGlyph>
    <TTGlyph name="Aacute" xMin="-48" yMin="0" xMax="534" yMax="782">
      <component glyphName="acutecomb" x="510" y="120" flags="0x1004"/>
      <component glyphName="A" x="0" y="0" flags="0x1204"/>
    </TTGlyph>
    <TTGlyph name="Abreve" xMin="-48" yMin="0" xMax="519" yMax="754">
      <contour>
        <pt x="341" y="630" on="1"/>
        <pt x="287" y="630" on="0"/>
        <pt x="235" y="695" on="0"/>
        <pt x="235" y="736" on="1"/>
        <pt x="235" y="748" on="0"/>
        <pt x="236" y="754" on="1"/>
        <pt x="264" y="754" on="1"/>
        <pt x="264" y="749" on="1"/>
        <pt x="264" y="730" on="0"/>
        <pt x="309" y="702" on="0"/>
        <pt x="353" y="702" on="1"/>
        <pt x="400" y="702" on="0"/>
        <pt x="457" y="733" on="0"/>
        <pt x="460" y="754" on="1"/>
        <pt x="488" y="754" on="1"/>
        <pt x="481" y="710" on="0"/>
        <pt x="403" y="630" on="0"/>
      </contour>
      <contour>
        <pt x="296" y="0" on="1"/>
        <pt x="300" y="21" on="1"/>
        <pt x="346" y="21" on="0"/>
        <pt x="360" y="33" on="1"/>
        <pt x="329" y="186" on="1"/>
        <pt x="137" y="186" on="1"/>
        <pt x="61" y="39" on="1"/>
        <pt x="68" y="21" on="0"/>
        <pt x="120" y="21" on="1"/>
        <pt x="116" y="0" on="1"/>
        <pt x="-48" y="0" on="1"/>
        <pt x="-44" y="21" on="1"/>
        <pt x="12" y="21" on="0"/>
        <pt x="22" y="42" on="1"/>
        <pt x="307" y="585" on="1"/>
        <pt x="355" y="585" on="1"/>
        <pt x="458" y="42" on="1"/>
        <pt x="462" y="21" on="0"/>
        <pt x="519" y="21" on="1"/>
        <pt x="515" y="0" on="1"/>
      </contour>
      <contour>
        <pt x="277" y="452" on="1"/>
        <pt x="155" y="219" on="1"/>
        <pt x="323" y="219" on="1"/>
      </contour>
    </TTGlyph>
    <TTGlyph name="Acircumflex" xMin="-48" yMin="0" xMax="519" yMax="782">
      <component glyphName="uni0302" x="510" y="120" flags="0x1004"/>
      <component glyphName="A" x="0" y="0" flags="0x1204"/>
    </TTGlyph>
    <TTGlyph name="Adieresis" xMin="-48" yMin="0" xMax="519" yMax="718">
      <component glyphName="uni0308" x="510" y="120" flags="0x1004"/>
      <component glyphName="A" x="0" y="0" flags="0x1204"/>
    </TTGlyph>
    <TTGlyph name="Agrave" xMin="-48" yMin="0" xMax="519" yMax="782">
      <component glyphName="gravecomb" x="510" y="120" flags="0x1004"/>
      <component glyphName="A" x="0" y="0" flags="0x1204"/>
    </TTGlyph>
    <TTGlyph name="Amacron" xMin="-48" yMin="0" xMax="519" yMax="678">
      <contour>
        <pt x="211" y="678" on="1"/>
        <pt x="475" y="678" on="1"/>
        <pt x="468" y="634" on="1"/>
        <pt x="204" y="634" on="1"/>
      </contour>
      <contour>
        <pt x="296" y="0" on="1"/>
        <pt x="300" y="21" on="1"/>
        <pt x="346" y="21" on="0"/>
        <pt x="360" y="33" on="1"/>
        <pt x="329" y="186" on="1"/>
        <pt x="137" y="186" on="1"/>
        <pt x="61" y="39" on="1"/>
        <pt x="68" y="21" on="0"/>
        <pt x="120" y="21" on="1"/>
        <pt x="116" y="0" on="1"/>
        <pt x="-48" y="0" on="1"/>
        <pt x="-44" y="21" on="1"/>
        <pt x="12" y="21" on="0"/>
        <pt x="22" y="42" on="1"/>
        <pt x="307" y="585" on="1"/>
        <pt x="355" y="585" on="1"/>
        <pt x="458" y="42" on="1"/>
        <pt x="462" y="21" on="0"/>
        <pt x="519" y="21" on="1"/>
        <pt x="515" y="0" on="1"/>
      </contour>
      <contour>
        <pt x="277" y="452" on="1"/>
        <pt x="155" y="219" on="1"/>
        <pt x="323" y="219" on="1"/>
      </contour>
    </TTGlyph>
    <TTGlyph name="Aogonek" xMin="-48" yMin="-200" xMax="537" yMax="586">
      <contour>
        <pt x="278" y="452" on="1"/>
        <pt x="156" y="219" on="1"/>
        <pt x="324" y="219" on="1"/>
      </contour>
      <contour>
        <pt x="297" y="0" on="1"/>
        <pt x="300" y="22" on="1"/>
        <pt x="346" y="22" on="0"/>
        <pt x="360" y="34" on="1"/>
        <pt x="329" y="187" on="1"/>
        <pt x="137" y="187" on="1"/>
        <pt x="61" y="40" on="1"/>
        <pt x="68" y="22" on="0"/>
        <pt x="120" y="22" on="1"/>
        <pt x="116" y="1" on="1"/>
        <pt x="-48" y="1" on="1"/>
        <pt x="-44" y="22" on="1"/>
        <pt x="12" y="22" on="0"/>
        <pt x="22" y="43" on="1"/>
        <pt x="307" y="586" on="1"/>
        <pt x="355" y="586" on="1"/>
        <pt x="458" y="43" on="1"/>
        <pt x="462" y="22" on="0"/>
        <pt x="519" y="22" on="1"/>
        <pt x="515" y="1" on="1"/>
        <pt x="463" y="1" on="1"/>
        <pt x="423" y="-44" on="0"/>
        <pt x="423" y="-82" on="1"/>
        <pt x="423" y="-166" on="0"/>
        <pt x="495" y="-166" on="1"/>
        <pt x="501" y="-166" on="0"/>
        <pt x="518" y="-158" on="0"/>
        <pt x="524" y="-154" on="1"/>
        <pt x="529" y="-150" on="1"/>
        <pt x="537" y="-168" on="1"/>
        <pt x="512" y="-200" on="0"/>
        <pt x="453" y="-200" on="1"/>
        <pt x="367" y="-200" on="0"/>
        <pt x="367" y="-126" on="1"/>
        <pt x="367" y="-58" on="0"/>
        <pt x="437" y="0" on="1"/>
      </contour>
    </TTGlyph>
    <TTGlyph name="Aring" xMin="-48" yMin="0" xMax="519" yMax="763">
      <component glyphName="uni030A" x="510" y="120" flags="0x1004"/>
      <component glyphName="A" x="0" y="0" flags="0x1204"/>
    </TTGlyph>
    <TTGlyph name="Atilde" xMin="-48" yMin="0" xMax="519" yMax="732">
      <component glyphName="tildecomb" x="510" y="120" flags="0x1004"/>
      <component glyphName="A" x="0" y="0" flags="0x1204"/>
    </TTGlyph>
    <TTGlyph name="B" xMin="2" yMin="0" xMax="514" yMax="585">
      <contour>
        <pt x="206" y="290" on="1"/>
        <pt x="163" y="34" on="1"/>
        <pt x="248" y="34" on="1"/>
        <pt x="328" y="34" on="0"/>
        <pt x="412" y="120" on="0"/>
        <pt x="412" y="191" on="1"/>
        <pt x="412" y="233" on="0"/>
        <pt x="351" y="290" on="0"/>
        <pt x="279" y="290" on="1"/>
      </contour>
      <contour>
        <pt x="249" y="551" on="1"/>
        <pt x="210" y="319" on="1"/>
        <pt x="251" y="319" on="1"/>
        <pt x="329" y="319" on="0"/>
        <pt x="414" y="397" on="0"/>
        <pt x="414" y="466" on="1"/>
        <pt x="414" y="551" on="0"/>
        <pt x="278" y="551" on="1"/>
      </contour>
      <contour>
        <pt x="2" y="0" on="1"/>
        <pt x="6" y="21" on="1"/>
        <pt x="61" y="21" on="0"/>
        <pt x="72" y="41" on="1"/>
        <pt x="156" y="544" on="1"/>
        <pt x="150" y="564" on="0"/>
        <pt x="96" y="564" on="1"/>
        <pt x="100" y="585" on="1"/>
        <pt x="284" y="585" on="1"/>
        <pt x="400" y="585" on="0"/>
        <pt x="514" y="514" on="0"/>
        <pt x="514" y="462" on="1"/>
        <pt x="514" y="407" on="0"/>
        <pt x="444" y="328" on="0"/>
        <pt x="384" y="309" on="1"/>
        <pt x="449" y="293" on="0"/>
        <pt x="512" y="227" on="0"/>
        <pt x="512" y="187" on="1"/>
        <pt x="512" y="104" on="0"/>
        <pt x="365" y="0" on="0"/>
        <pt x="242" y="0" on="1"/>
      </contour>
    </TTGlyph>
    <TTGlyph name="C" xMin="45" yMin="-10" xMax="549" yMax="595">
      <contour>
        <pt x="400" y="561" on="1"/>
        <pt x="299" y="561" on="0"/>
        <pt x="151" y="369" on="0"/>
        <pt x="151" y="231" on="1"/>
        <pt x="151" y="132" on="0"/>
        <pt x="244" y="24" on="0"/>
        <pt x="314" y="24" on="1"/>
        <pt x="364" y="24" on="0"/>
        <pt x="473" y="93" on="0"/>
        <pt x="494" y="132" on="1"/>
        <pt x="516" y="120" on="1"/>
        <pt x="440" y="-10" on="0"/>
        <pt x="288" y="-10" on="1"/>
        <pt x="171" y="-10" on="0"/>
        <pt x="45" y="126" on="0"/>
        <pt x="45" y="229" on="1"/>
        <pt x="45" y="311" on="0"/>
        <pt x="111" y="453" on="0"/>
        <pt x="215" y="544" on="0"/>
        <pt x="342" y="595" on="0"/>
        <pt x="405" y="595" on="1"/>
        <pt x="434" y="595" on="0"/>
        <pt x="506" y="565" on="0"/>
        <pt x="511" y="565" on="1"/>
        <pt x="523" y="565" on="0"/>
        <pt x="526" y="585" on="1"/>
        <pt x="549" y="585" on="1"/>
        <pt x="538" y="458" on="1"/>
        <pt x="516" y="458" on="1"/>
        <pt x="516" y="503" on="0"/>
        <pt x="460" y="561" on="0"/>
      </contour>
    </TTGlyph>
    <TTGlyph name="Cacute" xMin="45" yMin="-10" xMax="602" yMax="782">
      <contour>
        <pt x="496" y="782" on="1"/>
        <pt x="602" y="782" on="1"/>
        <pt x="421" y="620" on="1"/>
        <pt x="395" y="620" on="1"/>
      </contour>
      <contour>
        <pt x="400" y="561" on="1"/>
        <pt x="299" y="561" on="0"/>
        <pt x="151" y="369" on="0"/>
        <pt x="151" y="231" on="1"/>
        <pt x="151" y="132" on="0"/>
        <pt x="244" y="24" on="0"/>
        <pt x="314" y="24" on="1"/>
        <pt x="364" y="24" on="0"/>
        <pt x="473" y="93" on="0"/>
        <pt x="494" y="132" on="1"/>
        <pt x="516" y="120" on="1"/>
        <pt x="440" y="-10" on="0"/>
        <pt x="288" y="-10" on="1"/>
        <pt x="171" y="-10" on="0"/>
        <pt x="45" y="126" on="0"/>
        <pt x="45" y="229" on="1"/>
        <pt x="45" y="311" on="0"/>
        <pt x="111" y="453" on="0"/>
        <pt x="215" y="544" on="0"/>
        <pt x="342" y="595" on="0"/>
        <pt x="405" y="595" on="1"/>
        <pt x="434" y="595" on="0"/>
        <pt x="506" y="565" on="0"/>
        <pt x="511" y="565" on="1"/>
        <pt x="523" y="565" on="0"/>
        <pt x="526" y="585" on="1"/>
        <pt x="549" y="585" on="1"/>
        <pt x="538" y="458" on="1"/>
        <pt x="516" y="458" on="1"/>
        <pt x="516" y="503" on="0"/>
        <pt x="460" y="561" on="0"/>
      </contour>
    </TTGlyph>
    <TTGlyph name="Ccaron" xMin="45" yMin="-10" xMax="555" yMax="782">
      <contour>
        <pt x="384" y="620" on="1"/>
        <pt x="317" y="782" on="1"/>
        <pt x="343" y="782" on="1"/>
        <pt x="421" y="695" on="1"/>
        <pt x="529" y="782" on="1"/>
        <pt x="555" y="782" on="1"/>
        <pt x="434" y="620" on="1"/>
      </contour>
      <contour>
        <pt x="400" y="561" on="1"/>
        <pt x="299" y="561" on="0"/>
        <pt x="151" y="369" on="0"/>
        <pt x="151" y="231" on="1"/>
        <pt x="151" y="132" on="0"/>
        <pt x="244" y="24" on="0"/>
        <pt x="314" y="24" on="1"/>
        <pt x="364" y="24" on="0"/>
        <pt x="473" y="93" on="0"/>
        <pt x="494" y="132" on="1"/>
        <pt x="516" y="120" on="1"/>
        <pt x="440" y="-10" on="0"/>
        <pt x="288" y="-10" on="1"/>
        <pt x="171" y="-10" on="0"/>
        <pt x="45" y="126" on="0"/>
        <pt x="45" y="229" on="1"/>
        <pt x="45" y="311" on="0"/>
        <pt x="111" y="453" on="0"/>
        <pt x="215" y="544" on="0"/>
        <pt x="342" y="595" on="0"/>
        <pt x="405" y="595" on="1"/>
        <pt x="434" y="595" on="0"/>
        <pt x="506" y="565" on="0"/>
        <pt x="511" y="565" on="1"/>
        <pt x="523" y="565" on="0"/>
        <pt x="526" y="585" on="1"/>
        <pt x="549" y="585" on="1"/>
        <pt x="538" y="458" on="1"/>
        <pt x="516" y="458" on="1"/>
        <pt x="516" y="503" on="0"/>
        <pt x="460" y="561" on="0"/>
      </contour>
    </TTGlyph>
    <TTGlyph name="Ccedilla" xMin="46" yMin="-199" xMax="550" yMax="594">
      <contour>
        <pt x="200" y="-177" on="1"/>
        <pt x="200" y="-178" on="1"/>
        <pt x="242" y="-178" on="0"/>
        <pt x="281" y="-146" on="0"/>
        <pt x="281" y="-122" on="1"/>
        <pt x="281" y="-87" on="0"/>
        <pt x="227" y="-87" on="1"/>
        <pt x="262" y="-10" on="1"/>
        <pt x="158" y="-2" on="0"/>
        <pt x="46" y="131" on="0"/>
        <pt x="46" y="228" on="1"/>
        <pt x="46" y="310" on="0"/>
        <pt x="112" y="452" on="0"/>
        <pt x="216" y="543" on="0"/>
        <pt x="343" y="594" on="0"/>
        <pt x="406" y="594" on="1"/>
        <pt x="436" y="594" on="0"/>
        <pt x="506" y="564" on="0"/>
        <pt x="512" y="564" on="1"/>
        <pt x="524" y="564" on="0"/>
        <pt x="527" y="584" on="1"/>
        <pt x="550" y="584" on="1"/>
        <pt x="539" y="457" on="1"/>
        <pt x="517" y="457" on="1"/>
        <pt x="517" y="502" on="0"/>
        <pt x="461" y="560" on="0"/>
        <pt x="401" y="560" on="1"/>
        <pt x="300" y="560" on="0"/>
        <pt x="152" y="368" on="0"/>
        <pt x="152" y="230" on="1"/>
        <pt x="152" y="131" on="0"/>
        <pt x="245" y="23" on="0"/>
        <pt x="315" y="23" on="1"/>
        <pt x="365" y="23" on="0"/>
        <pt x="474" y="92" on="0"/>
        <pt x="495" y="131" on="1"/>
        <pt x="517" y="119" on="1"/>
        <pt x="444" y="-5" on="0"/>
        <pt x="300" y="-10" on="1"/>
        <pt x="280" y="-55" on="1"/>
        <pt x="309" y="-55" on="0"/>
        <pt x="369" y="-84" on="0"/>
        <pt x="369" y="-113" on="1"/>
        <pt x="369" y="-149" on="0"/>
        <pt x="310" y="-199" on="0"/>
        <pt x="246" y="-199" on="1"/>
        <pt x="212" y="-199" on="0"/>
        <pt x="173" y="-192" on="1"/>
        <pt x="176" y="-175" on="1"/>
        <pt x="194" y="-177" on="0"/>
      </contour>
    </TTGlyph>
    <TTGlyph name="Ccircumflex" xMin="45" yMin="-10" xMax="549" yMax="782">
      <contour>
        <pt x="460" y="782" on="1"/>
        <pt x="527" y="620" on="1"/>
        <pt x="501" y="620" on="1"/>
        <pt x="422" y="707" on="1"/>
        <pt x="315" y="620" on="1"/>
        <pt x="289" y="620" on="1"/>
        <pt x="410" y="782" on="1"/>
      </contour>
      <contour>
        <pt x="400" y="561" on="1"/>
        <pt x="299" y="561" on="0"/>
        <pt x="151" y="369" on="0"/>
        <pt x="151" y="231" on="1"/>
        <pt x="151" y="132" on="0"/>
        <pt x="244" y="24" on="0"/>
        <pt x="314" y="24" on="1"/>
        <pt x="364" y="24" on="0"/>
        <pt x="473" y="93" on="0"/>
        <pt x="494" y="132" on="1"/>
        <pt x="516" y="120" on="1"/>
        <pt x="440" y="-10" on="0"/>
        <pt x="288" y="-10" on="1"/>
        <pt x="171" y="-10" on="0"/>
        <pt x="45" y="126" on="0"/>
        <pt x="45" y="229" on="1"/>
        <pt x="45" y="311" on="0"/>
        <pt x="111" y="453" on="0"/>
        <pt x="215" y="544" on="0"/>
        <pt x="342" y="595" on="0"/>
        <pt x="405" y="595" on="1"/>
        <pt x="434" y="595" on="0"/>
        <pt x="506" y="565" on="0"/>
        <pt x="511" y="565" on="1"/>
        <pt x="523" y="565" on="0"/>
        <pt x="526" y="585" on="1"/>
        <pt x="549" y="585" on="1"/>
        <pt x="538" y="458" on="1"/>
        <pt x="516" y="458" on="1"/>
        <pt x="516" y="503" on="0"/>
        <pt x="460" y="561" on="0"/>
      </contour>
    </TTGlyph>
    <TTGlyph name="Cdotaccent" xMin="45" yMin="-10" xMax="549" yMax="723">
      <contour>
        <pt x="365" y="664" on="1"/>
        <pt x="365" y="689" on="0"/>
        <pt x="402" y="723" on="0"/>
        <pt x="425" y="723" on="1"/>
        <pt x="444" y="723" on="0"/>
        <pt x="468" y="698" on="0"/>
        <pt x="468" y="680" on="1"/>
        <pt x="468" y="655" on="0"/>
        <pt x="431" y="621" on="0"/>
        <pt x="408" y="621" on="1"/>
        <pt x="389" y="621" on="0"/>
        <pt x="365" y="646" on="0"/>
      </contour>
      <contour>
        <pt x="400" y="561" on="1"/>
        <pt x="299" y="561" on="0"/>
        <pt x="151" y="369" on="0"/>
        <pt x="151" y="231" on="1"/>
        <pt x="151" y="132" on="0"/>
        <pt x="244" y="24" on="0"/>
        <pt x="314" y="24" on="1"/>
        <pt x="364" y="24" on="0"/>
        <pt x="473" y="93" on="0"/>
        <pt x="494" y="132" on="1"/>
        <pt x="516" y="120" on="1"/>
        <pt x="440" y="-10" on="0"/>
        <pt x="288" y="-10" on="1"/>
        <pt x="171" y="-10" on="0"/>
        <pt x="45" y="126" on="0"/>
        <pt x="45" y="229" on="1"/>
        <pt x="45" y="311" on="0"/>
        <pt x="111" y="453" on="0"/>
        <pt x="215" y="544" on="0"/>
        <pt x="342" y="595" on="0"/>
        <pt x="405" y="595" on="1"/>
        <pt x="434" y="595" on="0"/>
        <pt x="506" y="565" on="0"/>
        <pt x="511" y="565" on="1"/>
        <pt x="523" y="565" on="0"/>
        <pt x="526" y="585" on="1"/>
        <pt x="549" y="585" on="1"/>
        <pt x="538" y="458" on="1"/>
        <pt x="516" y="458" on="1"/>
        <pt x="516" y="503" on="0"/>
        <pt x="460" y="561" on="0"/>
      </contour>
    </TTGlyph>
    <TTGlyph name="D" xMin="2" yMin="0" xMax="581" yMax="585">
      <contour>
        <pt x="2" y="0" on="1"/>
        <pt x="6" y="21" on="1"/>
        <pt x="61" y="21" on="0"/>
        <pt x="72" y="41" on="1"/>
        <pt x="156" y="544" on="1"/>
        <pt x="150" y="564" on="0"/>
        <pt x="96" y="564" on="1"/>
        <pt x="100" y="585" on="1"/>
        <pt x="330" y="585" on="1"/>
        <pt x="447" y="585" on="0"/>
        <pt x="581" y="458" on="0"/>
        <pt x="581" y="352" on="1"/>
        <pt x="581" y="198" on="0"/>
        <pt x="382" y="0" on="0"/>
        <pt x="244" y="0" on="1"/>
      </contour>
      <contour>
        <pt x="250" y="556" on="1"/>
        <pt x="163" y="34" on="1"/>
        <pt x="250" y="34" on="1"/>
        <pt x="286" y="34" on="0"/>
        <pt x="365" y="78" on="0"/>
        <pt x="436" y="158" on="0"/>
        <pt x="482" y="288" on="0"/>
        <pt x="482" y="364" on="1"/>
        <pt x="482" y="459" on="0"/>
        <pt x="390" y="556" on="0"/>
        <pt x="325" y="556" on="1"/>
      </contour>
    </TTGlyph>
    <TTGlyph name="Dcaron" xMin="2" yMin="0" xMax="581" yMax="782">
      <contour>
        <pt x="308" y="620" on="1"/>
        <pt x="241" y="782" on="1"/>
        <pt x="267" y="782" on="1"/>
        <pt x="345" y="695" on="1"/>
        <pt x="453" y="782" on="1"/>
        <pt x="479" y="782" on="1"/>
        <pt x="358" y="620" on="1"/>
      </contour>
      <contour>
        <pt x="2" y="0" on="1"/>
        <pt x="6" y="21" on="1"/>
        <pt x="61" y="21" on="0"/>
        <pt x="72" y="41" on="1"/>
        <pt x="156" y="544" on="1"/>
        <pt x="150" y="564" on="0"/>
        <pt x="96" y="564" on="1"/>
        <pt x="100" y="585" on="1"/>
        <pt x="330" y="585" on="1"/>
        <pt x="447" y="585" on="0"/>
        <pt x="581" y="458" on="0"/>
        <pt x="581" y="352" on="1"/>
        <pt x="581" y="198" on="0"/>
        <pt x="382" y="0" on="0"/>
        <pt x="244" y="0" on="1"/>
      </contour>
      <contour>
        <pt x="250" y="556" on="1"/>
        <pt x="163" y="34" on="1"/>
        <pt x="250" y="34" on="1"/>
        <pt x="286" y="34" on="0"/>
        <pt x="365" y="78" on="0"/>
        <pt x="436" y="158" on="0"/>
        <pt x="482" y="288" on="0"/>
        <pt x="482" y="364" on="1"/>
        <pt x="482" y="459" on="0"/>
        <pt x="390" y="556" on="0"/>
        <pt x="325" y="556" on="1"/>
      </contour>
    </TTGlyph>
    <TTGlyph name="Dcroat" xMin="2" yMin="0" xMax="581" yMax="585">
      <contour>
        <pt x="163" y="34" on="1"/>
        <pt x="250" y="34" on="1"/>
        <pt x="286" y="34" on="0"/>
        <pt x="365" y="78" on="0"/>
        <pt x="436" y="158" on="0"/>
        <pt x="482" y="288" on="0"/>
        <pt x="482" y="364" on="1"/>
        <pt x="482" y="459" on="0"/>
        <pt x="390" y="556" on="0"/>
        <pt x="325" y="556" on="1"/>
        <pt x="250" y="556" on="1"/>
        <pt x="214" y="339" on="1"/>
        <pt x="335" y="339" on="1"/>
        <pt x="327" y="295" on="1"/>
        <pt x="206" y="295" on="1"/>
      </contour>
      <contour>
        <pt x="156" y="544" on="1"/>
        <pt x="150" y="564" on="0"/>
        <pt x="96" y="564" on="1"/>
        <pt x="100" y="585" on="1"/>
        <pt x="330" y="585" on="1"/>
        <pt x="447" y="585" on="0"/>
        <pt x="581" y="458" on="0"/>
        <pt x="581" y="352" on="1"/>
        <pt x="581" y="198" on="0"/>
        <pt x="382" y="0" on="0"/>
        <pt x="244" y="0" on="1"/>
        <pt x="2" y="0" on="1"/>
        <pt x="6" y="21" on="1"/>
        <pt x="61" y="21" on="0"/>
        <pt x="72" y="41" on="1"/>
        <pt x="114" y="295" on="1"/>
        <pt x="63" y="295" on="1"/>
        <pt x="71" y="339" on="1"/>
        <pt x="122" y="339" on="1"/>
      </contour>
    </TTGlyph>
    <TTGlyph name="E" xMin="2" yMin="0" xMax="503" yMax="585">
      <contour>
        <pt x="2" y="0" on="1"/>
        <pt x="6" y="21" on="1"/>
        <pt x="61" y="21" on="0"/>
        <pt x="72" y="41" on="1"/>
        <pt x="156" y="544" on="1"/>
        <pt x="150" y="564" on="0"/>
        <pt x="96" y="564" on="1"/>
        <pt x="100" y="585" on="1"/>
        <pt x="503" y="585" on="1"/>
        <pt x="487" y="488" on="1"/>
        <pt x="466" y="488" on="1"/>
        <pt x="469" y="509" on="0"/>
        <pt x="469" y="522" on="1"/>
        <pt x="469" y="545" on="0"/>
        <pt x="456" y="551" on="1"/>
        <pt x="249" y="551" on="1"/>
        <pt x="211" y="321" on="1"/>
        <pt x="351" y="321" on="1"/>
        <pt x="372" y="329" on="0"/>
        <pt x="381" y="384" on="1"/>
        <pt x="402" y="384" on="1"/>
        <pt x="375" y="224" on="1"/>
        <pt x="354" y="224" on="1"/>
        <pt x="358" y="252" on="0"/>
        <pt x="358" y="258" on="1"/>
        <pt x="358" y="281" on="0"/>
        <pt x="345" y="287" on="1"/>
        <pt x="205" y="287" on="1"/>
        <pt x="163" y="34" on="1"/>
        <pt x="391" y="34" on="1"/>
        <pt x="417" y="44" on="0"/>
        <pt x="446" y="97" on="1"/>
        <pt x="466" y="97" on="1"/>
        <pt x="426" y="0" on="1"/>
      </contour>
    </TTGlyph>
    <TTGlyph name="Eacute" xMin="2" yMin="0" xMax="526" yMax="782">
      <component glyphName="acutecomb" x="502" y="120" flags="0x1004"/>
      <component glyphName="E" x="0" y="0" flags="0x1204"/>
    </TTGlyph>
    <TTGlyph name="Ebreve" xMin="2" yMin="0" xMax="503" yMax="754">
      <contour>
        <pt x="333" y="630" on="1"/>
        <pt x="279" y="630" on="0"/>
        <pt x="227" y="695" on="0"/>
        <pt x="227" y="736" on="1"/>
        <pt x="227" y="748" on="0"/>
        <pt x="228" y="754" on="1"/>
        <pt x="256" y="754" on="1"/>
        <pt x="256" y="749" on="1"/>
        <pt x="256" y="730" on="0"/>
        <pt x="301" y="702" on="0"/>
        <pt x="345" y="702" on="1"/>
        <pt x="392" y="702" on="0"/>
        <pt x="449" y="733" on="0"/>
        <pt x="452" y="754" on="1"/>
        <pt x="480" y="754" on="1"/>
        <pt x="473" y="710" on="0"/>
        <pt x="395" y="630" on="0"/>
      </contour>
      <contour>
        <pt x="2" y="0" on="1"/>
        <pt x="6" y="21" on="1"/>
        <pt x="61" y="21" on="0"/>
        <pt x="72" y="41" on="1"/>
        <pt x="156" y="544" on="1"/>
        <pt x="150" y="564" on="0"/>
        <pt x="96" y="564" on="1"/>
        <pt x="100" y="585" on="1"/>
        <pt x="503" y="585" on="1"/>
        <pt x="487" y="488" on="1"/>
        <pt x="466" y="488" on="1"/>
        <pt x="469" y="509" on="0"/>
        <pt x="469" y="522" on="1"/>
        <pt x="469" y="545" on="0"/>
        <pt x="456" y="551" on="1"/>
        <pt x="249" y="551" on="1"/>
        <pt x="211" y="321" on="1"/>
        <pt x="351" y="321" on="1"/>
        <pt x="372" y="329" on="0"/>
        <pt x="381" y="384" on="1"/>
        <pt x="402" y="384" on="1"/>
        <pt x="375" y="224" on="1"/>
        <pt x="354" y="224" on="1"/>
        <pt x="358" y="252" on="0"/>
        <pt x="358" y="258" on="1"/>
        <pt x="358" y="281" on="0"/>
        <pt x="345" y="287" on="1"/>
        <pt x="205" y="287" on="1"/>
        <pt x="163" y="34" on="1"/>
        <pt x="391" y="34" on="1"/>
        <pt x="417" y="44" on="0"/>
        <pt x="446" y="97" on="1"/>
        <pt x="466" y="97" on="1"/>
        <pt x="426" y="0" on="1"/>
      </contour>
    </TTGlyph>
    <TTGlyph name="Ecaron" xMin="2" yMin="0" xMax="503" yMax="782">
      <contour>
        <pt x="308" y="620" on="1"/>
        <pt x="241" y="782" on="1"/>
        <pt x="267" y="782" on="1"/>
        <pt x="345" y="695" on="1"/>
        <pt x="453" y="782" on="1"/>
        <pt x="479" y="782" on="1"/>
        <pt x="358" y="620" on="1"/>
      </contour>
      <contour>
        <pt x="2" y="0" on="1"/>
        <pt x="6" y="21" on="1"/>
        <pt x="61" y="21" on="0"/>
        <pt x="72" y="41" on="1"/>
        <pt x="156" y="544" on="1"/>
        <pt x="150" y="564" on="0"/>
        <pt x="96" y="564" on="1"/>
        <pt x="100" y="585" on="1"/>
        <pt x="503" y="585" on="1"/>
        <pt x="487" y="488" on="1"/>
        <pt x="466" y="488" on="1"/>
        <pt x="469" y="509" on="0"/>
        <pt x="469" y="522" on="1"/>
        <pt x="469" y="545" on="0"/>
        <pt x="456" y="551" on="1"/>
        <pt x="249" y="551" on="1"/>
        <pt x="211" y="321" on="1"/>
        <pt x="351" y="321" on="1"/>
        <pt x="372" y="329" on="0"/>
        <pt x="381" y="384" on="1"/>
        <pt x="402" y="384" on="1"/>
        <pt x="375" y="224" on="1"/>
        <pt x="354" y="224" on="1"/>
        <pt x="358" y="252" on="0"/>
        <pt x="358" y="258" on="1"/>
        <pt x="358" y="281" on="0"/>
        <pt x="345" y="287" on="1"/>
        <pt x="205" y="287" on="1"/>
        <pt x="163" y="34" on="1"/>
        <pt x="391" y="34" on="1"/>
        <pt x="417" y="44" on="0"/>
        <pt x="446" y="97" on="1"/>
        <pt x="466" y="97" on="1"/>
        <pt x="426" y="0" on="1"/>
      </contour>
    </TTGlyph>
    <TTGlyph name="Ecircumflex" xMin="2" yMin="0" xMax="503" yMax="782">
      <component glyphName="uni0302" x="502" y="120" flags="0x1004"/>
      <component glyphName="E" x="0" y="0" flags="0x1204"/>
    </TTGlyph>
    <TTGlyph name="Edieresis" xMin="2" yMin="0" xMax="503" yMax="718">
      <component glyphName="uni0308" x="502" y="120" flags="0x1004"/>
      <component glyphName="E" x="0" y="0" flags="0x1204"/>
    </TTGlyph>
    <TTGlyph name="Edotaccent" xMin="2" yMin="0" xMax="503" yMax="723">
      <contour>
        <pt x="289" y="664" on="1"/>
        <pt x="289" y="689" on="0"/>
        <pt x="326" y="723" on="0"/>
        <pt x="349" y="723" on="1"/>
        <pt x="368" y="723" on="0"/>
        <pt x="392" y="698" on="0"/>
        <pt x="392" y="680" on="1"/>
        <pt x="392" y="655" on="0"/>
        <pt x="355" y="621" on="0"/>
        <pt x="332" y="621" on="1"/>
        <pt x="313" y="621" on="0"/>
        <pt x="289" y="646" on="0"/>
      </contour>
      <contour>
        <pt x="2" y="0" on="1"/>
        <pt x="6" y="21" on="1"/>
        <pt x="61" y="21" on="0"/>
        <pt x="72" y="41" on="1"/>
        <pt x="156" y="544" on="1"/>
        <pt x="150" y="564" on="0"/>
        <pt x="96" y="564" on="1"/>
        <pt x="100" y="585" on="1"/>
        <pt x="503" y="585" on="1"/>
        <pt x="487" y="488" on="1"/>
        <pt x="466" y="488" on="1"/>
        <pt x="469" y="509" on="0"/>
        <pt x="469" y="522" on="1"/>
        <pt x="469" y="545" on="0"/>
        <pt x="456" y="551" on="1"/>
        <pt x="249" y="551" on="1"/>
        <pt x="211" y="321" on="1"/>
        <pt x="351" y="321" on="1"/>
        <pt x="372" y="329" on="0"/>
        <pt x="381" y="384" on="1"/>
        <pt x="402" y="384" on="1"/>
        <pt x="375" y="224" on="1"/>
        <pt x="354" y="224" on="1"/>
        <pt x="358" y="252" on="0"/>
        <pt x="358" y="258" on="1"/>
        <pt x="358" y="281" on="0"/>
        <pt x="345" y="287" on="1"/>
        <pt x="205" y="287" on="1"/>
        <pt x="163" y="34" on="1"/>
        <pt x="391" y="34" on="1"/>
        <pt x="417" y="44" on="0"/>
        <pt x="446" y="97" on="1"/>
        <pt x="466" y="97" on="1"/>
        <pt x="426" y="0" on="1"/>
      </contour>
    </TTGlyph>
    <TTGlyph name="Egrave" xMin="2" yMin="0" xMax="503" yMax="782">
      <component glyphName="gravecomb" x="502" y="120" flags="0x1004"/>
      <component glyphName="E" x="0" y="0" flags="0x1204"/>
    </TTGlyph>
    <TTGlyph name="Emacron" xMin="2" yMin="0" xMax="503" yMax="678">
      <contour>
        <pt x="203" y="678" on="1"/>
        <pt x="467" y="678" on="1"/>
        <pt x="460" y="634" on="1"/>
        <pt x="196" y="634" on="1"/>
      </contour>
      <contour>
        <pt x="2" y="0" on="1"/>
        <pt x="6" y="21" on="1"/>
        <pt x="61" y="21" on="0"/>
        <pt x="72" y="41" on="1"/>
        <pt x="156" y="544" on="1"/>
        <pt x="150" y="564" on="0"/>
        <pt x="96" y="564" on="1"/>
        <pt x="100" y="585" on="1"/>
        <pt x="503" y="585" on="1"/>
        <pt x="487" y="488" on="1"/>
        <pt x="466" y="488" on="1"/>
        <pt x="469" y="509" on="0"/>
        <pt x="469" y="522" on="1"/>
        <pt x="469" y="545" on="0"/>
        <pt x="456" y="551" on="1"/>
        <pt x="249" y="551" on="1"/>
        <pt x="211" y="321" on="1"/>
        <pt x="351" y="321" on="1"/>
        <pt x="372" y="329" on="0"/>
        <pt x="381" y="384" on="1"/>
        <pt x="402" y="384" on="1"/>
        <pt x="375" y="224" on="1"/>
        <pt x="354" y="224" on="1"/>
        <pt x="358" y="252" on="0"/>
        <pt x="358" y="258" on="1"/>
        <pt x="358" y="281" on="0"/>
        <pt x="345" y="287" on="1"/>
        <pt x="205" y="287" on="1"/>
        <pt x="163" y="34" on="1"/>
        <pt x="391" y="34" on="1"/>
        <pt x="417" y="44" on="0"/>
        <pt x="446" y="97" on="1"/>
        <pt x="466" y="97" on="1"/>
        <pt x="426" y="0" on="1"/>
      </contour>
    </TTGlyph>
    <TTGlyph name="Eng" xMin="2" yMin="-10" xMax="616" yMax="595">
      <contour>
        <pt x="259" y="51" on="1"/>
        <pt x="259" y="68" on="0"/>
        <pt x="290" y="94" on="0"/>
        <pt x="308" y="94" on="1"/>
        <pt x="322" y="94" on="0"/>
        <pt x="338" y="73" on="0"/>
        <pt x="346" y="50" on="1"/>
        <pt x="350" y="39" on="0"/>
        <pt x="352" y="34" on="0"/>
        <pt x="359" y="22" on="0"/>
        <pt x="368" y="20" on="0"/>
        <pt x="375" y="20" on="1"/>
        <pt x="412" y="20" on="0"/>
        <pt x="481" y="137" on="0"/>
        <pt x="523" y="316" on="0"/>
        <pt x="523" y="405" on="1"/>
        <pt x="523" y="561" on="0"/>
        <pt x="412" y="561" on="1"/>
        <pt x="369" y="561" on="0"/>
        <pt x="266" y="484" on="0"/>
        <pt x="228" y="426" on="1"/>
        <pt x="164" y="41" on="1"/>
        <pt x="170" y="21" on="0"/>
        <pt x="224" y="21" on="1"/>
        <pt x="220" y="0" on="1"/>
        <pt x="2" y="0" on="1"/>
        <pt x="6" y="21" on="1"/>
        <pt x="61" y="21" on="0"/>
        <pt x="72" y="41" on="1"/>
        <pt x="156" y="544" on="1"/>
        <pt x="150" y="564" on="0"/>
        <pt x="96" y="564" on="1"/>
        <pt x="100" y="585" on="1"/>
        <pt x="255" y="585" on="1"/>
        <pt x="239" y="491" on="1"/>
        <pt x="282" y="540" on="0"/>
        <pt x="384" y="595" on="0"/>
        <pt x="428" y="595" on="1"/>
        <pt x="616" y="595" on="0"/>
        <pt x="616" y="399" on="1"/>
        <pt x="616" y="228" on="0"/>
        <pt x="471" y="-10" on="0"/>
        <pt x="380" y="-10" on="1"/>
        <pt x="335" y="-10" on="0"/>
        <pt x="259" y="23" on="0"/>
      </contour>
    </TTGlyph>
    <TTGlyph name="Eogonek" xMin="3" yMin="-200" xMax="503" yMax="586">
      <contour>
        <pt x="3" y="0" on="1"/>
        <pt x="6" y="22" on="1"/>
        <pt x="61" y="22" on="0"/>
        <pt x="72" y="42" on="1"/>
        <pt x="156" y="545" on="1"/>
        <pt x="150" y="565" on="0"/>
        <pt x="96" y="565" on="1"/>
        <pt x="100" y="586" on="1"/>
        <pt x="503" y="586" on="1"/>
        <pt x="487" y="489" on="1"/>
        <pt x="466" y="489" on="1"/>
        <pt x="469" y="510" on="0"/>
        <pt x="469" y="523" on="1"/>
        <pt x="469" y="546" on="0"/>
        <pt x="456" y="552" on="1"/>
        <pt x="249" y="552" on="1"/>
        <pt x="211" y="322" on="1"/>
        <pt x="351" y="322" on="1"/>
        <pt x="372" y="330" on="0"/>
        <pt x="381" y="385" on="1"/>
        <pt x="402" y="385" on="1"/>
        <pt x="375" y="225" on="1"/>
        <pt x="354" y="225" on="1"/>
        <pt x="358" y="253" on="0"/>
        <pt x="358" y="259" on="1"/>
        <pt x="358" y="282" on="0"/>
        <pt x="345" y="288" on="1"/>
        <pt x="205" y="288" on="1"/>
        <pt x="163" y="35" on="1"/>
        <pt x="391" y="35" on="1"/>
        <pt x="417" y="45" on="0"/>
        <pt x="446" y="98" on="1"/>
        <pt x="466" y="98" on="1"/>
        <pt x="426" y="1" on="1"/>
        <pt x="379" y="1" on="1"/>
        <pt x="339" y="-44" on="0"/>
        <pt x="339" y="-82" on="1"/>
        <pt x="339" y="-166" on="0"/>
        <pt x="411" y="-166" on="1"/>
        <pt x="417" y="-166" on="0"/>
        <pt x="434" y="-158" on="0"/>
        <pt x="440" y="-154" on="1"/>
        <pt x="445" y="-150" on="1"/>
        <pt x="453" y="-168" on="1"/>
        <pt x="428" y="-200" on="0"/>
        <pt x="369" y="-200" on="1"/>
        <pt x="283" y="-200" on="0"/>
        <pt x="283" y="-126" on="1"/>
        <pt x="283" y="-58" on="0"/>
        <pt x="353" y="0" on="1"/>
      </contour>
    </TTGlyph>
    <TTGlyph name="Eth" xMin="-3" yMin="-1" xMax="576" yMax="655">
      <contour>
        <pt x="-3" y="-1" on="1"/>
        <pt x="0" y="20" on="1"/>
        <pt x="56" y="20" on="0"/>
        <pt x="67" y="40" on="1"/>
        <pt x="86" y="154" on="1"/>
        <pt x="109" y="291" on="0"/>
        <pt x="286" y="447" on="0"/>
        <pt x="461" y="457" on="1"/>
        <pt x="442" y="506" on="0"/>
        <pt x="366" y="555" on="0"/>
        <pt x="320" y="555" on="1"/>
        <pt x="245" y="555" on="1"/>
        <pt x="231" y="470" on="1"/>
        <pt x="191" y="470" on="1"/>
        <pt x="205" y="555" on="1"/>
        <pt x="107" y="555" on="1"/>
        <pt x="85" y="546" on="0"/>
        <pt x="76" y="492" on="1"/>
        <pt x="55" y="492" on="1"/>
        <pt x="71" y="585" on="1"/>
        <pt x="210" y="585" on="1"/>
        <pt x="222" y="655" on="1"/>
        <pt x="262" y="655" on="1"/>
        <pt x="250" y="585" on="1"/>
        <pt x="325" y="585" on="1"/>
        <pt x="442" y="585" on="0"/>
        <pt x="576" y="457" on="0"/>
        <pt x="576" y="351" on="1"/>
        <pt x="576" y="197" on="0"/>
        <pt x="377" y="-1" on="0"/>
        <pt x="239" y="-1" on="1"/>
      </contour>
      <contour>
        <pt x="470" y="427" on="1"/>
        <pt x="340" y="419" on="0"/>
        <pt x="200" y="290" on="0"/>
        <pt x="184" y="192" on="1"/>
        <pt x="158" y="33" on="1"/>
        <pt x="245" y="33" on="1"/>
        <pt x="281" y="33" on="0"/>
        <pt x="360" y="77" on="0"/>
        <pt x="431" y="157" on="0"/>
        <pt x="477" y="287" on="0"/>
        <pt x="477" y="363" on="1"/>
        <pt x="477" y="394" on="0"/>
      </contour>
    </TTGlyph>
    <TTGlyph name="Euro" xMin="24" yMin="-10" xMax="534" yMax="595">
      <contour>
        <pt x="534" y="540" on="1"/>
        <pt x="521" y="458" on="1"/>
        <pt x="499" y="458" on="1"/>
        <pt x="499" y="503" on="0"/>
        <pt x="443" y="561" on="0"/>
        <pt x="382" y="561" on="1"/>
        <pt x="327" y="561" on="0"/>
        <pt x="239" y="466" on="0"/>
        <pt x="214" y="384" on="1"/>
        <pt x="421" y="384" on="1"/>
        <pt x="398" y="340" on="1"/>
        <pt x="203" y="340" on="1"/>
        <pt x="193" y="305" on="0"/>
        <pt x="190" y="264" on="1"/>
        <pt x="383" y="264" on="1"/>
        <pt x="360" y="220" on="1"/>
        <pt x="187" y="220" on="1"/>
        <pt x="187" y="217" on="0"/>
        <pt x="186" y="204" on="0"/>
        <pt x="186" y="201" on="1"/>
        <pt x="186" y="114" on="0"/>
        <pt x="244" y="24" on="0"/>
        <pt x="295" y="24" on="1"/>
        <pt x="390" y="24" on="0"/>
        <pt x="453" y="108" on="1"/>
        <pt x="472" y="92" on="1"/>
        <pt x="432" y="42" on="0"/>
        <pt x="414" y="28" on="1"/>
        <pt x="366" y="-10" on="0"/>
        <pt x="273" y="-10" on="1"/>
        <pt x="181" y="-10" on="0"/>
        <pt x="83" y="120" on="0"/>
        <pt x="83" y="220" on="1"/>
        <pt x="24" y="220" on="1"/>
        <pt x="47" y="264" on="1"/>
        <pt x="85" y="264" on="1"/>
        <pt x="89" y="284" on="1"/>
        <pt x="92" y="305" on="0"/>
        <pt x="102" y="340" on="1"/>
        <pt x="60" y="340" on="1"/>
        <pt x="83" y="384" on="1"/>
        <pt x="117" y="384" on="1"/>
        <pt x="157" y="481" on="0"/>
        <pt x="308" y="595" on="0"/>
        <pt x="387" y="595" on="1"/>
        <pt x="418" y="595" on="0"/>
        <pt x="471" y="584" on="0"/>
        <pt x="503" y="568" on="0"/>
        <pt x="525" y="551" on="0"/>
        <pt x="530" y="546" on="1"/>
      </contour>
    </TTGlyph>
    <TTGlyph name="F" xMin="2" yMin="0" xMax="503" yMax="585">
      <contour>
        <pt x="2" y="0" on="1"/>
        <pt x="6" y="21" on="1"/>
        <pt x="61" y="21" on="0"/>
        <pt x="72" y="41" on="1"/>
        <pt x="156" y="544" on="1"/>
        <pt x="150" y="564" on="0"/>
        <pt x="96" y="564" on="1"/>
        <pt x="100" y="585" on="1"/>
        <pt x="503" y="585" on="1"/>
        <pt x="487" y="488" on="1"/>
        <pt x="466" y="488" on="1"/>
        <pt x="469" y="509" on="0"/>
        <pt x="469" y="522" on="1"/>
        <pt x="469" y="545" on="0"/>
        <pt x="456" y="551" on="1"/>
        <pt x="249" y="551" on="1"/>
        <pt x="211" y="321" on="1"/>
        <pt x="351" y="321" on="1"/>
        <pt x="372" y="329" on="0"/>
        <pt x="381" y="384" on="1"/>
        <pt x="402" y="384" on="1"/>
        <pt x="375" y="224" on="1"/>
        <pt x="354" y="224" on="1"/>
        <pt x="358" y="252" on="0"/>
        <pt x="358" y="258" on="1"/>
        <pt x="358" y="281" on="0"/>
        <pt x="345" y="287" on="1"/>
        <pt x="205" y="287" on="1"/>
        <pt x="164" y="41" on="1"/>
        <pt x="170" y="21" on="0"/>
        <pt x="224" y="21" on="1"/>
        <pt x="220" y="0" on="1"/>
      </contour>
    </TTGlyph>
    <TTGlyph name="G" xMin="44" yMin="-10" xMax="610" yMax="595">
      <contour>
        <pt x="409" y="561" on="1"/>
        <pt x="308" y="561" on="0"/>
        <pt x="147" y="353" on="0"/>
        <pt x="147" y="215" on="1"/>
        <pt x="147" y="118" on="0"/>
        <pt x="241" y="24" on="0"/>
        <pt x="305" y="24" on="1"/>
        <pt x="360" y="24" on="0"/>
        <pt x="414" y="43" on="1"/>
        <pt x="449" y="248" on="1"/>
        <pt x="443" y="268" on="0"/>
        <pt x="389" y="268" on="1"/>
        <pt x="392" y="289" on="1"/>
        <pt x="610" y="289" on="1"/>
        <pt x="607" y="268" on="1"/>
        <pt x="552" y="268" on="0"/>
        <pt x="541" y="248" on="1"/>
        <pt x="512" y="80" on="1"/>
        <pt x="490" y="48" on="0"/>
        <pt x="377" y="-10" on="0"/>
        <pt x="297" y="-10" on="1"/>
        <pt x="178" y="-10" on="0"/>
        <pt x="44" y="130" on="0"/>
        <pt x="44" y="233" on="1"/>
        <pt x="44" y="314" on="0"/>
        <pt x="113" y="454" on="0"/>
        <pt x="222" y="544" on="0"/>
        <pt x="351" y="595" on="0"/>
        <pt x="414" y="595" on="1"/>
        <pt x="444" y="595" on="0"/>
        <pt x="524" y="565" on="0"/>
        <pt x="530" y="565" on="1"/>
        <pt x="542" y="565" on="0"/>
        <pt x="545" y="585" on="1"/>
        <pt x="568" y="585" on="1"/>
        <pt x="557" y="458" on="1"/>
        <pt x="535" y="458" on="1"/>
        <pt x="535" y="499" on="0"/>
        <pt x="469" y="561" on="0"/>
      </contour>
    </TTGlyph>
    <TTGlyph name="Gamma" xMin="24" yMin="0" xMax="525" yMax="585">
      <contour>
        <pt x="271" y="551" on="1"/>
        <pt x="186" y="41" on="1"/>
        <pt x="192" y="21" on="0"/>
        <pt x="246" y="21" on="1"/>
        <pt x="242" y="0" on="1"/>
        <pt x="24" y="0" on="1"/>
        <pt x="28" y="21" on="1"/>
        <pt x="83" y="21" on="0"/>
        <pt x="94" y="41" on="1"/>
        <pt x="178" y="544" on="1"/>
        <pt x="172" y="564" on="0"/>
        <pt x="118" y="564" on="1"/>
        <pt x="122" y="585" on="1"/>
        <pt x="525" y="585" on="1"/>
        <pt x="509" y="488" on="1"/>
        <pt x="488" y="488" on="1"/>
        <pt x="491" y="509" on="0"/>
        <pt x="491" y="522" on="1"/>
        <pt x="491" y="545" on="0"/>
        <pt x="478" y="551" on="1"/>
      </contour>
    </TTGlyph>
    <TTGlyph name="Gbreve" xMin="44" yMin="-10" xMax="610" yMax="754">
      <contour>
        <pt x="408" y="630" on="1"/>
        <pt x="354" y="630" on="0"/>
        <pt x="302" y="695" on="0"/>
        <pt x="302" y="736" on="1"/>
        <pt x="302" y="748" on="0"/>
        <pt x="303" y="754" on="1"/>
        <pt x="331" y="754" on="1"/>
        <pt x="331" y="749" on="1"/>
        <pt x="331" y="730" on="0"/>
        <pt x="376" y="702" on="0"/>
        <pt x="420" y="702" on="1"/>
        <pt x="467" y="702" on="0"/>
        <pt x="524" y="733" on="0"/>
        <pt x="527" y="754" on="1"/>
        <pt x="555" y="754" on="1"/>
        <pt x="548" y="710" on="0"/>
        <pt x="470" y="630" on="0"/>
      </contour>
      <contour>
        <pt x="409" y="561" on="1"/>
        <pt x="308" y="561" on="0"/>
        <pt x="147" y="353" on="0"/>
        <pt x="147" y="215" on="1"/>
        <pt x="147" y="118" on="0"/>
        <pt x="241" y="24" on="0"/>
        <pt x="305" y="24" on="1"/>
        <pt x="360" y="24" on="0"/>
        <pt x="414" y="43" on="1"/>
        <pt x="449" y="248" on="1"/>
        <pt x="443" y="268" on="0"/>
        <pt x="389" y="268" on="1"/>
        <pt x="392" y="289" on="1"/>
        <pt x="610" y="289" on="1"/>
        <pt x="607" y="268" on="1"/>
        <pt x="552" y="268" on="0"/>
        <pt x="541" y="248" on="1"/>
        <pt x="512" y="80" on="1"/>
        <pt x="490" y="48" on="0"/>
        <pt x="377" y="-10" on="0"/>
        <pt x="297" y="-10" on="1"/>
        <pt x="178" y="-10" on="0"/>
        <pt x="44" y="130" on="0"/>
        <pt x="44" y="233" on="1"/>
        <pt x="44" y="314" on="0"/>
        <pt x="113" y="454" on="0"/>
        <pt x="222" y="544" on="0"/>
        <pt x="351" y="595" on="0"/>
        <pt x="414" y="595" on="1"/>
        <pt x="444" y="595" on="0"/>
        <pt x="524" y="565" on="0"/>
        <pt x="530" y="565" on="1"/>
        <pt x="542" y="565" on="0"/>
        <pt x="545" y="585" on="1"/>
        <pt x="568" y="585" on="1"/>
        <pt x="557" y="458" on="1"/>
        <pt x="535" y="458" on="1"/>
        <pt x="535" y="499" on="0"/>
        <pt x="469" y="561" on="0"/>
      </contour>
    </TTGlyph>
    <TTGlyph name="Gcaron" xMin="44" yMin="-10" xMax="610" yMax="782">
      <contour>
        <pt x="383" y="620" on="1"/>
        <pt x="316" y="782" on="1"/>
        <pt x="342" y="782" on="1"/>
        <pt x="420" y="695" on="1"/>
        <pt x="528" y="782" on="1"/>
        <pt x="554" y="782" on="1"/>
        <pt x="433" y="620" on="1"/>
      </contour>
      <contour>
        <pt x="409" y="561" on="1"/>
        <pt x="308" y="561" on="0"/>
        <pt x="147" y="353" on="0"/>
        <pt x="147" y="215" on="1"/>
        <pt x="147" y="118" on="0"/>
        <pt x="241" y="24" on="0"/>
        <pt x="305" y="24" on="1"/>
        <pt x="360" y="24" on="0"/>
        <pt x="414" y="43" on="1"/>
        <pt x="449" y="248" on="1"/>
        <pt x="443" y="268" on="0"/>
        <pt x="389" y="268" on="1"/>
        <pt x="392" y="289" on="1"/>
        <pt x="610" y="289" on="1"/>
        <pt x="607" y="268" on="1"/>
        <pt x="552" y="268" on="0"/>
        <pt x="541" y="248" on="1"/>
        <pt x="512" y="80" on="1"/>
        <pt x="490" y="48" on="0"/>
        <pt x="377" y="-10" on="0"/>
        <pt x="297" y="-10" on="1"/>
        <pt x="178" y="-10" on="0"/>
        <pt x="44" y="130" on="0"/>
        <pt x="44" y="233" on="1"/>
        <pt x="44" y="314" on="0"/>
        <pt x="113" y="454" on="0"/>
        <pt x="222" y="544" on="0"/>
        <pt x="351" y="595" on="0"/>
        <pt x="414" y="595" on="1"/>
        <pt x="444" y="595" on="0"/>
        <pt x="524" y="565" on="0"/>
        <pt x="530" y="565" on="1"/>
        <pt x="542" y="565" on="0"/>
        <pt x="545" y="585" on="1"/>
        <pt x="568" y="585" on="1"/>
        <pt x="557" y="458" on="1"/>
        <pt x="535" y="458" on="1"/>
        <pt x="535" y="499" on="0"/>
        <pt x="469" y="561" on="0"/>
      </contour>
    </TTGlyph>
    <TTGlyph name="Gcircumflex" xMin="44" yMin="-10" xMax="610" yMax="782">
      <contour>
        <pt x="459" y="782" on="1"/>
        <pt x="526" y="620" on="1"/>
        <pt x="500" y="620" on="1"/>
        <pt x="421" y="707" on="1"/>
        <pt x="314" y="620" on="1"/>
        <pt x="288" y="620" on="1"/>
        <pt x="409" y="782" on="1"/>
      </contour>
      <contour>
        <pt x="409" y="561" on="1"/>
        <pt x="308" y="561" on="0"/>
        <pt x="147" y="353" on="0"/>
        <pt x="147" y="215" on="1"/>
        <pt x="147" y="118" on="0"/>
        <pt x="241" y="24" on="0"/>
        <pt x="305" y="24" on="1"/>
        <pt x="360" y="24" on="0"/>
        <pt x="414" y="43" on="1"/>
        <pt x="449" y="248" on="1"/>
        <pt x="443" y="268" on="0"/>
        <pt x="389" y="268" on="1"/>
        <pt x="392" y="289" on="1"/>
        <pt x="610" y="289" on="1"/>
        <pt x="607" y="268" on="1"/>
        <pt x="552" y="268" on="0"/>
        <pt x="541" y="248" on="1"/>
        <pt x="512" y="80" on="1"/>
        <pt x="490" y="48" on="0"/>
        <pt x="377" y="-10" on="0"/>
        <pt x="297" y="-10" on="1"/>
        <pt x="178" y="-10" on="0"/>
        <pt x="44" y="130" on="0"/>
        <pt x="44" y="233" on="1"/>
        <pt x="44" y="314" on="0"/>
        <pt x="113" y="454" on="0"/>
        <pt x="222" y="544" on="0"/>
        <pt x="351" y="595" on="0"/>
        <pt x="414" y="595" on="1"/>
        <pt x="444" y="595" on="0"/>
        <pt x="524" y="565" on="0"/>
        <pt x="530" y="565" on="1"/>
        <pt x="542" y="565" on="0"/>
        <pt x="545" y="585" on="1"/>
        <pt x="568" y="585" on="1"/>
        <pt x="557" y="458" on="1"/>
        <pt x="535" y="458" on="1"/>
        <pt x="535" y="499" on="0"/>
        <pt x="469" y="561" on="0"/>
      </contour>
    </TTGlyph>
    <TTGlyph name="Gcommaaccent" xMin="44" yMin="-248" xMax="610" yMax="595">
      <contour>
        <pt x="215" y="-90" on="1"/>
        <pt x="215" y="-61" on="0"/>
        <pt x="254" y="-38" on="0"/>
        <pt x="270" y="-38" on="1"/>
        <pt x="304" y="-38" on="0"/>
        <pt x="348" y="-76" on="0"/>
        <pt x="348" y="-109" on="1"/>
        <pt x="348" y="-141" on="0"/>
        <pt x="314" y="-194" on="0"/>
        <pt x="259" y="-226" on="0"/>
        <pt x="222" y="-242" on="0"/>
        <pt x="202" y="-248" on="1"/>
        <pt x="207" y="-220" on="1"/>
        <pt x="233" y="-217" on="0"/>
        <pt x="293" y="-168" on="0"/>
        <pt x="299" y="-137" on="1"/>
        <pt x="302" y="-118" on="0"/>
        <pt x="300" y="-112" on="0"/>
        <pt x="293" y="-112" on="1"/>
        <pt x="290" y="-112" on="0"/>
        <pt x="271" y="-125" on="0"/>
        <pt x="260" y="-125" on="1"/>
        <pt x="215" y="-125" on="0"/>
      </contour>
      <contour>
        <pt x="409" y="561" on="1"/>
        <pt x="308" y="561" on="0"/>
        <pt x="147" y="353" on="0"/>
        <pt x="147" y="215" on="1"/>
        <pt x="147" y="118" on="0"/>
        <pt x="241" y="24" on="0"/>
        <pt x="305" y="24" on="1"/>
        <pt x="360" y="24" on="0"/>
        <pt x="414" y="43" on="1"/>
        <pt x="449" y="248" on="1"/>
        <pt x="443" y="268" on="0"/>
        <pt x="389" y="268" on="1"/>
        <pt x="392" y="289" on="1"/>
        <pt x="610" y="289" on="1"/>
        <pt x="607" y="268" on="1"/>
        <pt x="552" y="268" on="0"/>
        <pt x="541" y="248" on="1"/>
        <pt x="512" y="80" on="1"/>
        <pt x="490" y="48" on="0"/>
        <pt x="377" y="-10" on="0"/>
        <pt x="297" y="-10" on="1"/>
        <pt x="178" y="-10" on="0"/>
        <pt x="44" y="130" on="0"/>
        <pt x="44" y="233" on="1"/>
        <pt x="44" y="314" on="0"/>
        <pt x="113" y="454" on="0"/>
        <pt x="222" y="544" on="0"/>
        <pt x="351" y="595" on="0"/>
        <pt x="414" y="595" on="1"/>
        <pt x="444" y="595" on="0"/>
        <pt x="524" y="565" on="0"/>
        <pt x="530" y="565" on="1"/>
        <pt x="542" y="565" on="0"/>
        <pt x="545" y="585" on="1"/>
        <pt x="568" y="585" on="1"/>
        <pt x="557" y="458" on="1"/>
        <pt x="535" y="458" on="1"/>
        <pt x="535" y="499" on="0"/>
        <pt x="469" y="561" on="0"/>
      </contour>
    </TTGlyph>
    <TTGlyph name="Gdotaccent" xMin="44" yMin="-10" xMax="610" yMax="723">
      <contour>
        <pt x="364" y="664" on="1"/>
        <pt x="364" y="689" on="0"/>
        <pt x="401" y="723" on="0"/>
        <pt x="424" y="723" on="1"/>
        <pt x="443" y="723" on="0"/>
        <pt x="467" y="698" on="0"/>
        <pt x="467" y="680" on="1"/>
        <pt x="467" y="655" on="0"/>
        <pt x="430" y="621" on="0"/>
        <pt x="407" y="621" on="1"/>
        <pt x="388" y="621" on="0"/>
        <pt x="364" y="646" on="0"/>
      </contour>
      <contour>
        <pt x="409" y="561" on="1"/>
        <pt x="308" y="561" on="0"/>
        <pt x="147" y="353" on="0"/>
        <pt x="147" y="215" on="1"/>
        <pt x="147" y="118" on="0"/>
        <pt x="241" y="24" on="0"/>
        <pt x="305" y="24" on="1"/>
        <pt x="360" y="24" on="0"/>
        <pt x="414" y="43" on="1"/>
        <pt x="449" y="248" on="1"/>
        <pt x="443" y="268" on="0"/>
        <pt x="389" y="268" on="1"/>
        <pt x="392" y="289" on="1"/>
        <pt x="610" y="289" on="1"/>
        <pt x="607" y="268" on="1"/>
        <pt x="552" y="268" on="0"/>
        <pt x="541" y="248" on="1"/>
        <pt x="512" y="80" on="1"/>
        <pt x="490" y="48" on="0"/>
        <pt x="377" y="-10" on="0"/>
        <pt x="297" y="-10" on="1"/>
        <pt x="178" y="-10" on="0"/>
        <pt x="44" y="130" on="0"/>
        <pt x="44" y="233" on="1"/>
        <pt x="44" y="314" on="0"/>
        <pt x="113" y="454" on="0"/>
        <pt x="222" y="544" on="0"/>
        <pt x="351" y="595" on="0"/>
        <pt x="414" y="595" on="1"/>
        <pt x="444" y="595" on="0"/>
        <pt x="524" y="565" on="0"/>
        <pt x="530" y="565" on="1"/>
        <pt x="542" y="565" on="0"/>
        <pt x="545" y="585" on="1"/>
        <pt x="568" y="585" on="1"/>
        <pt x="557" y="458" on="1"/>
        <pt x="535" y="458" on="1"/>
        <pt x="535" y="499" on="0"/>
        <pt x="469" y="561" on="0"/>
      </contour>
    </TTGlyph>
    <TTGlyph name="H" xMin="2" yMin="0" xMax="666" yMax="585">
      <contour>
        <pt x="2" y="0" on="1"/>
        <pt x="6" y="21" on="1"/>
        <pt x="61" y="21" on="0"/>
        <pt x="72" y="41" on="1"/>
        <pt x="156" y="544" on="1"/>
        <pt x="150" y="564" on="0"/>
        <pt x="96" y="564" on="1"/>
        <pt x="100" y="585" on="1"/>
        <pt x="318" y="585" on="1"/>
        <pt x="314" y="564" on="1"/>
        <pt x="259" y="564" on="0"/>
        <pt x="248" y="544" on="1"/>
        <pt x="211" y="321" on="1"/>
        <pt x="467" y="321" on="1"/>
        <pt x="504" y="544" on="1"/>
        <pt x="498" y="564" on="0"/>
        <pt x="444" y="564" on="1"/>
        <pt x="448" y="585" on="1"/>
        <pt x="666" y="585" on="1"/>
        <pt x="662" y="564" on="1"/>
        <pt x="607" y="564" on="0"/>
        <pt x="596" y="544" on="1"/>
        <pt x="512" y="41" on="1"/>
        <pt x="518" y="21" on="0"/>
        <pt x="572" y="21" on="1"/>
        <pt x="568" y="0" on="1"/>
        <pt x="350" y="0" on="1"/>
        <pt x="354" y="21" on="1"/>
        <pt x="409" y="21" on="0"/>
        <pt x="420" y="41" on="1"/>
        <pt x="461" y="287" on="1"/>
        <pt x="205" y="287" on="1"/>
        <pt x="164" y="41" on="1"/>
        <pt x="170" y="21" on="0"/>
        <pt x="224" y="21" on="1"/>
        <pt x="220" y="0" on="1"/>
      </contour>
    </TTGlyph>
    <TTGlyph name="Hbar" xMin="3" yMin="0" xMax="667" yMax="585">
      <contour>
        <pt x="85" y="420" on="1"/>
        <pt x="93" y="464" on="1"/>
        <pt x="144" y="464" on="1"/>
        <pt x="157" y="544" on="1"/>
        <pt x="151" y="564" on="0"/>
        <pt x="97" y="564" on="1"/>
        <pt x="101" y="585" on="1"/>
        <pt x="319" y="585" on="1"/>
        <pt x="315" y="564" on="1"/>
        <pt x="260" y="564" on="0"/>
        <pt x="249" y="544" on="1"/>
        <pt x="236" y="464" on="1"/>
        <pt x="492" y="464" on="1"/>
        <pt x="505" y="544" on="1"/>
        <pt x="499" y="564" on="0"/>
        <pt x="445" y="564" on="1"/>
        <pt x="449" y="585" on="1"/>
        <pt x="667" y="585" on="1"/>
        <pt x="663" y="564" on="1"/>
        <pt x="608" y="564" on="0"/>
        <pt x="597" y="544" on="1"/>
        <pt x="584" y="464" on="1"/>
        <pt x="638" y="464" on="1"/>
        <pt x="630" y="420" on="1"/>
        <pt x="576" y="420" on="1"/>
        <pt x="513" y="41" on="1"/>
        <pt x="519" y="21" on="0"/>
        <pt x="573" y="21" on="1"/>
        <pt x="569" y="0" on="1"/>
        <pt x="351" y="0" on="1"/>
        <pt x="355" y="21" on="1"/>
        <pt x="410" y="21" on="0"/>
        <pt x="421" y="41" on="1"/>
        <pt x="462" y="287" on="1"/>
        <pt x="206" y="287" on="1"/>
        <pt x="165" y="41" on="1"/>
        <pt x="171" y="21" on="0"/>
        <pt x="225" y="21" on="1"/>
        <pt x="221" y="0" on="1"/>
        <pt x="3" y="0" on="1"/>
        <pt x="7" y="21" on="1"/>
        <pt x="62" y="21" on="0"/>
        <pt x="73" y="41" on="1"/>
        <pt x="136" y="420" on="1"/>
      </contour>
      <contour>
        <pt x="484" y="420" on="1"/>
        <pt x="228" y="420" on="1"/>
        <pt x="212" y="321" on="1"/>
        <pt x="468" y="321" on="1"/>
      </contour>
    </TTGlyph>
    <TTGlyph name="Hcircumflex" xMin="2" yMin="0" xMax="666" yMax="782">
      <contour>
        <pt x="442" y="782" on="1"/>
        <pt x="509" y="620" on="1"/>
        <pt x="483" y="620" on="1"/>
        <pt x="404" y="707" on="1"/>
        <pt x="297" y="620" on="1"/>
        <pt x="271" y="620" on="1"/>
        <pt x="392" y="782" on="1"/>
      </contour>
      <contour>
        <pt x="2" y="0" on="1"/>
        <pt x="6" y="21" on="1"/>
        <pt x="61" y="21" on="0"/>
        <pt x="72" y="41" on="1"/>
        <pt x="156" y="544" on="1"/>
        <pt x="150" y="564" on="0"/>
        <pt x="96" y="564" on="1"/>
        <pt x="100" y="585" on="1"/>
        <pt x="318" y="585" on="1"/>
        <pt x="314" y="564" on="1"/>
        <pt x="259" y="564" on="0"/>
        <pt x="248" y="544" on="1"/>
        <pt x="211" y="321" on="1"/>
        <pt x="467" y="321" on="1"/>
        <pt x="504" y="544" on="1"/>
        <pt x="498" y="564" on="0"/>
        <pt x="444" y="564" on="1"/>
        <pt x="448" y="585" on="1"/>
        <pt x="666" y="585" on="1"/>
        <pt x="662" y="564" on="1"/>
        <pt x="607" y="564" on="0"/>
        <pt x="596" y="544" on="1"/>
        <pt x="512" y="41" on="1"/>
        <pt x="518" y="21" on="0"/>
        <pt x="572" y="21" on="1"/>
        <pt x="568" y="0" on="1"/>
        <pt x="350" y="0" on="1"/>
        <pt x="354" y="21" on="1"/>
        <pt x="409" y="21" on="0"/>
        <pt x="420" y="41" on="1"/>
        <pt x="461" y="287" on="1"/>
        <pt x="205" y="287" on="1"/>
        <pt x="164" y="41" on="1"/>
        <pt x="170" y="21" on="0"/>
        <pt x="224" y="21" on="1"/>
        <pt x="220" y="0" on="1"/>
      </contour>
    </TTGlyph>
    <TTGlyph name="I" xMin="2" yMin="0" xMax="318" yMax="585">
      <contour>
        <pt x="2" y="0" on="1"/>
        <pt x="6" y="21" on="1"/>
        <pt x="61" y="21" on="0"/>
        <pt x="72" y="41" on="1"/>
        <pt x="156" y="544" on="1"/>
        <pt x="150" y="564" on="0"/>
        <pt x="96" y="564" on="1"/>
        <pt x="100" y="585" on="1"/>
        <pt x="318" y="585" on="1"/>
        <pt x="314" y="564" on="1"/>
        <pt x="259" y="564" on="0"/>
        <pt x="248" y="544" on="1"/>
        <pt x="164" y="41" on="1"/>
        <pt x="170" y="21" on="0"/>
        <pt x="224" y="21" on="1"/>
        <pt x="220" y="0" on="1"/>
      </contour>
    </TTGlyph>
    <TTGlyph name="IJ" xMin="2" yMin="-10" xMax="743" yMax="585">
      <contour>
        <pt x="2" y="0" on="1"/>
        <pt x="6" y="21" on="1"/>
        <pt x="61" y="21" on="0"/>
        <pt x="72" y="41" on="1"/>
        <pt x="156" y="544" on="1"/>
        <pt x="150" y="564" on="0"/>
        <pt x="96" y="564" on="1"/>
        <pt x="100" y="585" on="1"/>
        <pt x="318" y="585" on="1"/>
        <pt x="314" y="564" on="1"/>
        <pt x="259" y="564" on="0"/>
        <pt x="248" y="544" on="1"/>
        <pt x="164" y="41" on="1"/>
        <pt x="170" y="21" on="0"/>
        <pt x="224" y="21" on="1"/>
        <pt x="220" y="0" on="1"/>
      </contour>
      <contour>
        <pt x="370" y="101" on="1"/>
        <pt x="370" y="64" on="0"/>
        <pt x="338" y="53" on="1"/>
        <pt x="361" y="26" on="0"/>
        <pt x="410" y="26" on="1"/>
        <pt x="439" y="26" on="0"/>
        <pt x="478" y="49" on="0"/>
        <pt x="503" y="102" on="0"/>
        <pt x="517" y="158" on="0"/>
        <pt x="525" y="208" on="1"/>
        <pt x="581" y="544" on="1"/>
        <pt x="575" y="564" on="0"/>
        <pt x="521" y="564" on="1"/>
        <pt x="525" y="585" on="1"/>
        <pt x="743" y="585" on="1"/>
        <pt x="739" y="564" on="1"/>
        <pt x="684" y="564" on="0"/>
        <pt x="673" y="544" on="1"/>
        <pt x="611" y="172" on="1"/>
        <pt x="599" y="96" on="0"/>
        <pt x="504" y="-10" on="0"/>
        <pt x="414" y="-10" on="1"/>
        <pt x="348" y="-10" on="0"/>
        <pt x="279" y="40" on="0"/>
        <pt x="279" y="72" on="1"/>
        <pt x="279" y="97" on="0"/>
        <pt x="310" y="130" on="0"/>
        <pt x="331" y="130" on="1"/>
        <pt x="370" y="130" on="0"/>
      </contour>
    </TTGlyph>
    <TTGlyph name="Iacute" xMin="2" yMin="0" xMax="407" yMax="782">
      <component glyphName="acutecomb" x="383" y="120" flags="0x1004"/>
      <component glyphName="I" x="0" y="0" flags="0x1204"/>
    </TTGlyph>
    <TTGlyph name="Ibreve" xMin="2" yMin="0" xMax="361" yMax="754">
      <contour>
        <pt x="214" y="630" on="1"/>
        <pt x="160" y="630" on="0"/>
        <pt x="108" y="695" on="0"/>
        <pt x="108" y="736" on="1"/>
        <pt x="108" y="748" on="0"/>
        <pt x="109" y="754" on="1"/>
        <pt x="137" y="754" on="1"/>
        <pt x="137" y="749" on="1"/>
        <pt x="137" y="730" on="0"/>
        <pt x="182" y="702" on="0"/>
        <pt x="226" y="702" on="1"/>
        <pt x="273" y="702" on="0"/>
        <pt x="330" y="733" on="0"/>
        <pt x="333" y="754" on="1"/>
        <pt x="361" y="754" on="1"/>
        <pt x="354" y="710" on="0"/>
        <pt x="276" y="630" on="0"/>
      </contour>
      <contour>
        <pt x="2" y="0" on="1"/>
        <pt x="6" y="21" on="1"/>
        <pt x="61" y="21" on="0"/>
        <pt x="72" y="41" on="1"/>
        <pt x="156" y="544" on="1"/>
        <pt x="150" y="564" on="0"/>
        <pt x="96" y="564" on="1"/>
        <pt x="100" y="585" on="1"/>
        <pt x="318" y="585" on="1"/>
        <pt x="314" y="564" on="1"/>
        <pt x="259" y="564" on="0"/>
        <pt x="248" y="544" on="1"/>
        <pt x="164" y="41" on="1"/>
        <pt x="170" y="21" on="0"/>
        <pt x="224" y="21" on="1"/>
        <pt x="220" y="0" on="1"/>
      </contour>
    </TTGlyph>
    <TTGlyph name="Icircumflex" xMin="2" yMin="0" xMax="332" yMax="782">
      <component glyphName="uni0302" x="383" y="120" flags="0x1004"/>
      <component glyphName="I" x="0" y="0" flags="0x1204"/>
    </TTGlyph>
    <TTGlyph name="Idieresis" xMin="2" yMin="0" xMax="363" yMax="718">
      <component glyphName="uni0308" x="383" y="120" flags="0x1004"/>
      <component glyphName="I" x="0" y="0" flags="0x1204"/>
    </TTGlyph>
    <TTGlyph name="Idotaccent" xMin="2" yMin="0" xMax="318" yMax="723">
      <contour>
        <pt x="170" y="664" on="1"/>
        <pt x="170" y="689" on="0"/>
        <pt x="207" y="723" on="0"/>
        <pt x="230" y="723" on="1"/>
        <pt x="249" y="723" on="0"/>
        <pt x="273" y="698" on="0"/>
        <pt x="273" y="680" on="1"/>
        <pt x="273" y="655" on="0"/>
        <pt x="236" y="621" on="0"/>
        <pt x="213" y="621" on="1"/>
        <pt x="194" y="621" on="0"/>
        <pt x="170" y="646" on="0"/>
      </contour>
      <contour>
        <pt x="2" y="0" on="1"/>
        <pt x="6" y="21" on="1"/>
        <pt x="61" y="21" on="0"/>
        <pt x="72" y="41" on="1"/>
        <pt x="156" y="544" on="1"/>
        <pt x="150" y="564" on="0"/>
        <pt x="96" y="564" on="1"/>
        <pt x="100" y="585" on="1"/>
        <pt x="318" y="585" on="1"/>
        <pt x="314" y="564" on="1"/>
        <pt x="259" y="564" on="0"/>
        <pt x="248" y="544" on="1"/>
        <pt x="164" y="41" on="1"/>
        <pt x="170" y="21" on="0"/>
        <pt x="224" y="21" on="1"/>
        <pt x="220" y="0" on="1"/>
      </contour>
    </TTGlyph>
    <TTGlyph name="Igrave" xMin="2" yMin="0" xMax="318" yMax="782">
      <component glyphName="gravecomb" x="383" y="120" flags="0x1004"/>
      <component glyphName="I" x="0" y="0" flags="0x1204"/>
    </TTGlyph>
    <TTGlyph name="Imacron" xMin="2" yMin="0" xMax="348" yMax="678">
      <contour>
        <pt x="84" y="678" on="1"/>
        <pt x="348" y="678" on="1"/>
        <pt x="341" y="634" on="1"/>
        <pt x="77" y="634" on="1"/>
      </contour>
      <contour>
        <pt x="2" y="0" on="1"/>
        <pt x="6" y="21" on="1"/>
        <pt x="61" y="21" on="0"/>
        <pt x="72" y="41" on="1"/>
        <pt x="156" y="544" on="1"/>
        <pt x="150" y="564" on="0"/>
        <pt x="96" y="564" on="1"/>
        <pt x="100" y="585" on="1"/>
        <pt x="318" y="585" on="1"/>
        <pt x="314" y="564" on="1"/>
        <pt x="259" y="564" on="0"/>
        <pt x="248" y="544" on="1"/>
        <pt x="164" y="41" on="1"/>
        <pt x="170" y="21" on="0"/>
        <pt x="224" y="21" on="1"/>
        <pt x="220" y="0" on="1"/>
      </contour>
    </TTGlyph>
    <TTGlyph name="Iogonek" xMin="3" yMin="-200" xMax="318" yMax="586">
      <contour>
        <pt x="3" y="0" on="1"/>
        <pt x="6" y="22" on="1"/>
        <pt x="61" y="22" on="0"/>
        <pt x="72" y="42" on="1"/>
        <pt x="156" y="545" on="1"/>
        <pt x="150" y="565" on="0"/>
        <pt x="96" y="565" on="1"/>
        <pt x="100" y="586" on="1"/>
        <pt x="318" y="586" on="1"/>
        <pt x="314" y="565" on="1"/>
        <pt x="259" y="565" on="0"/>
        <pt x="248" y="545" on="1"/>
        <pt x="164" y="42" on="1"/>
        <pt x="170" y="22" on="0"/>
        <pt x="224" y="22" on="1"/>
        <pt x="220" y="1" on="1"/>
        <pt x="174" y="1" on="1"/>
        <pt x="134" y="-44" on="0"/>
        <pt x="134" y="-82" on="1"/>
        <pt x="134" y="-166" on="0"/>
        <pt x="206" y="-166" on="1"/>
        <pt x="212" y="-166" on="0"/>
        <pt x="229" y="-158" on="0"/>
        <pt x="234" y="-154" on="1"/>
        <pt x="240" y="-150" on="1"/>
        <pt x="248" y="-168" on="1"/>
        <pt x="223" y="-200" on="0"/>
        <pt x="164" y="-200" on="1"/>
        <pt x="78" y="-200" on="0"/>
        <pt x="78" y="-126" on="1"/>
        <pt x="78" y="-58" on="0"/>
        <pt x="148" y="0" on="1"/>
      </contour>
    </TTGlyph>
    <TTGlyph name="Itilde" xMin="2" yMin="0" xMax="383" yMax="732">
      <contour>
        <pt x="288" y="620" on="1"/>
        <pt x="266" y="620" on="0"/>
        <pt x="157" y="679" on="0"/>
        <pt x="143" y="679" on="1"/>
        <pt x="115" y="679" on="0"/>
        <pt x="88" y="650" on="0"/>
        <pt x="83" y="620" on="1"/>
        <pt x="64" y="620" on="1"/>
        <pt x="82" y="732" on="0"/>
        <pt x="158" y="732" on="1"/>
        <pt x="180" y="732" on="0"/>
        <pt x="291" y="673" on="0"/>
        <pt x="305" y="673" on="1"/>
        <pt x="333" y="673" on="0"/>
        <pt x="359" y="702" on="0"/>
        <pt x="364" y="732" on="1"/>
        <pt x="383" y="732" on="1"/>
        <pt x="365" y="620" on="0"/>
      </contour>
      <contour>
        <pt x="2" y="0" on="1"/>
        <pt x="6" y="21" on="1"/>
        <pt x="61" y="21" on="0"/>
        <pt x="72" y="41" on="1"/>
        <pt x="156" y="544" on="1"/>
        <pt x="150" y="564" on="0"/>
        <pt x="96" y="564" on="1"/>
        <pt x="100" y="585" on="1"/>
        <pt x="318" y="585" on="1"/>
        <pt x="314" y="564" on="1"/>
        <pt x="259" y="564" on="0"/>
        <pt x="248" y="544" on="1"/>
        <pt x="164" y="41" on="1"/>
        <pt x="170" y="21" on="0"/>
        <pt x="224" y="21" on="1"/>
        <pt x="220" y="0" on="1"/>
      </contour>
    </TTGlyph>
    <TTGlyph name="J" xMin="-21" yMin="-10" xMax="443" yMax="585">
      <contour>
        <pt x="70" y="101" on="1"/>
        <pt x="70" y="64" on="0"/>
        <pt x="38" y="53" on="1"/>
        <pt x="61" y="26" on="0"/>
        <pt x="110" y="26" on="1"/>
        <pt x="139" y="26" on="0"/>
        <pt x="178" y="49" on="0"/>
        <pt x="203" y="102" on="0"/>
        <pt x="217" y="158" on="0"/>
        <pt x="225" y="208" on="1"/>
        <pt x="281" y="544" on="1"/>
        <pt x="275" y="564" on="0"/>
        <pt x="221" y="564" on="1"/>
        <pt x="225" y="585" on="1"/>
        <pt x="443" y="585" on="1"/>
        <pt x="439" y="564" on="1"/>
        <pt x="384" y="564" on="0"/>
        <pt x="373" y="544" on="1"/>
        <pt x="311" y="172" on="1"/>
        <pt x="299" y="96" on="0"/>
        <pt x="204" y="-10" on="0"/>
        <pt x="114" y="-10" on="1"/>
        <pt x="48" y="-10" on="0"/>
        <pt x="-21" y="40" on="0"/>
        <pt x="-21" y="72" on="1"/>
        <pt x="-21" y="97" on="0"/>
        <pt x="10" y="130" on="0"/>
        <pt x="31" y="130" on="1"/>
        <pt x="70" y="130" on="0"/>
      </contour>
    </TTGlyph>
    <TTGlyph name="Jcircumflex" xMin="-21" yMin="-10" xMax="460" yMax="782">
      <contour>
        <pt x="393" y="782" on="1"/>
        <pt x="460" y="620" on="1"/>
        <pt x="434" y="620" on="1"/>
        <pt x="355" y="707" on="1"/>
        <pt x="248" y="620" on="1"/>
        <pt x="222" y="620" on="1"/>
        <pt x="343" y="782" on="1"/>
      </contour>
      <contour>
        <pt x="70" y="101" on="1"/>
        <pt x="70" y="64" on="0"/>
        <pt x="38" y="53" on="1"/>
        <pt x="61" y="26" on="0"/>
        <pt x="110" y="26" on="1"/>
        <pt x="139" y="26" on="0"/>
        <pt x="178" y="49" on="0"/>
        <pt x="203" y="102" on="0"/>
        <pt x="217" y="158" on="0"/>
        <pt x="225" y="208" on="1"/>
        <pt x="281" y="544" on="1"/>
        <pt x="275" y="564" on="0"/>
        <pt x="221" y="564" on="1"/>
        <pt x="225" y="585" on="1"/>
        <pt x="443" y="585" on="1"/>
        <pt x="439" y="564" on="1"/>
        <pt x="384" y="564" on="0"/>
        <pt x="373" y="544" on="1"/>
        <pt x="311" y="172" on="1"/>
        <pt x="299" y="96" on="0"/>
        <pt x="204" y="-10" on="0"/>
        <pt x="114" y="-10" on="1"/>
        <pt x="48" y="-10" on="0"/>
        <pt x="-21" y="40" on="0"/>
        <pt x="-21" y="72" on="1"/>
        <pt x="-21" y="97" on="0"/>
        <pt x="10" y="130" on="0"/>
        <pt x="31" y="130" on="1"/>
        <pt x="70" y="130" on="0"/>
      </contour>
    </TTGlyph>
    <TTGlyph name="K" xMin="2" yMin="0" xMax="609" yMax="585">
      <contour>
        <pt x="2" y="0" on="1"/>
        <pt x="6" y="21" on="1"/>
        <pt x="61" y="21" on="0"/>
        <pt x="72" y="41" on="1"/>
        <pt x="156" y="544" on="1"/>
        <pt x="150" y="564" on="0"/>
        <pt x="96" y="564" on="1"/>
        <pt x="100" y="585" on="1"/>
        <pt x="316" y="585" on="1"/>
        <pt x="312" y="564" on="1"/>
        <pt x="257" y="564" on="0"/>
        <pt x="246" y="544" on="1"/>
        <pt x="162" y="41" on="1"/>
        <pt x="168" y="21" on="0"/>
        <pt x="222" y="21" on="1"/>
        <pt x="218" y="0" on="1"/>
      </contour>
      <contour>
        <pt x="351" y="0" on="1"/>
        <pt x="355" y="21" on="1"/>
        <pt x="378" y="21" on="0"/>
        <pt x="392" y="24" on="1"/>
        <pt x="213" y="314" on="1"/>
        <pt x="498" y="557" on="1"/>
        <pt x="485" y="564" on="0"/>
        <pt x="448" y="564" on="1"/>
        <pt x="452" y="585" on="1"/>
        <pt x="609" y="585" on="1"/>
        <pt x="605" y="564" on="1"/>
        <pt x="566" y="564" on="0"/>
        <pt x="540" y="541" on="1"/>
        <pt x="305" y="342" on="1"/>
        <pt x="489" y="37" on="1"/>
        <pt x="502" y="21" on="0"/>
        <pt x="550" y="21" on="1"/>
        <pt x="546" y="0" on="1"/>
      </contour>
    </TTGlyph>
    <TTGlyph name="Kcommaaccent" xMin="2" yMin="-248" xMax="609" yMax="585">
      <contour>
        <pt x="203" y="-90" on="1"/>
        <pt x="203" y="-61" on="0"/>
        <pt x="242" y="-38" on="0"/>
        <pt x="258" y="-38" on="1"/>
        <pt x="292" y="-38" on="0"/>
        <pt x="336" y="-76" on="0"/>
        <pt x="336" y="-109" on="1"/>
        <pt x="336" y="-141" on="0"/>
        <pt x="302" y="-194" on="0"/>
        <pt x="247" y="-226" on="0"/>
        <pt x="210" y="-242" on="0"/>
        <pt x="190" y="-248" on="1"/>
        <pt x="195" y="-220" on="1"/>
        <pt x="221" y="-217" on="0"/>
        <pt x="281" y="-168" on="0"/>
        <pt x="287" y="-137" on="1"/>
        <pt x="290" y="-118" on="0"/>
        <pt x="288" y="-112" on="0"/>
        <pt x="281" y="-112" on="1"/>
        <pt x="278" y="-112" on="0"/>
        <pt x="259" y="-125" on="0"/>
        <pt x="248" y="-125" on="1"/>
        <pt x="203" y="-125" on="0"/>
      </contour>
      <contour>
        <pt x="2" y="0" on="1"/>
        <pt x="6" y="21" on="1"/>
        <pt x="61" y="21" on="0"/>
        <pt x="72" y="41" on="1"/>
        <pt x="156" y="544" on="1"/>
        <pt x="150" y="564" on="0"/>
        <pt x="96" y="564" on="1"/>
        <pt x="100" y="585" on="1"/>
        <pt x="316" y="585" on="1"/>
        <pt x="312" y="564" on="1"/>
        <pt x="257" y="564" on="0"/>
        <pt x="246" y="544" on="1"/>
        <pt x="162" y="41" on="1"/>
        <pt x="168" y="21" on="0"/>
        <pt x="222" y="21" on="1"/>
        <pt x="218" y="0" on="1"/>
      </contour>
      <contour>
        <pt x="351" y="0" on="1"/>
        <pt x="355" y="21" on="1"/>
        <pt x="378" y="21" on="0"/>
        <pt x="392" y="24" on="1"/>
        <pt x="213" y="314" on="1"/>
        <pt x="498" y="557" on="1"/>
        <pt x="485" y="564" on="0"/>
        <pt x="448" y="564" on="1"/>
        <pt x="452" y="585" on="1"/>
        <pt x="609" y="585" on="1"/>
        <pt x="605" y="564" on="1"/>
        <pt x="566" y="564" on="0"/>
        <pt x="540" y="541" on="1"/>
        <pt x="305" y="342" on="1"/>
        <pt x="489" y="37" on="1"/>
        <pt x="502" y="21" on="0"/>
        <pt x="550" y="21" on="1"/>
        <pt x="546" y="0" on="1"/>
      </contour>
    </TTGlyph>
    <TTGlyph name="L" xMin="2" yMin="0" xMax="466" yMax="585">
      <contour>
        <pt x="2" y="0" on="1"/>
        <pt x="6" y="21" on="1"/>
        <pt x="61" y="21" on="0"/>
        <pt x="72" y="41" on="1"/>
        <pt x="156" y="544" on="1"/>
        <pt x="150" y="564" on="0"/>
        <pt x="96" y="564" on="1"/>
        <pt x="100" y="585" on="1"/>
        <pt x="318" y="585" on="1"/>
        <pt x="314" y="564" on="1"/>
        <pt x="259" y="564" on="0"/>
        <pt x="248" y="544" on="1"/>
        <pt x="163" y="34" on="1"/>
        <pt x="391" y="34" on="1"/>
        <pt x="417" y="44" on="0"/>
        <pt x="446" y="97" on="1"/>
        <pt x="466" y="97" on="1"/>
        <pt x="426" y="0" on="1"/>
      </contour>
    </TTGlyph>
    <TTGlyph name="Lacute" xMin="2" yMin="0" xMax="466" yMax="782">
      <contour>
        <pt x="303" y="782" on="1"/>
        <pt x="409" y="782" on="1"/>
        <pt x="228" y="620" on="1"/>
        <pt x="202" y="620" on="1"/>
      </contour>
      <contour>
        <pt x="2" y="0" on="1"/>
        <pt x="6" y="21" on="1"/>
        <pt x="61" y="21" on="0"/>
        <pt x="72" y="41" on="1"/>
        <pt x="156" y="544" on="1"/>
        <pt x="150" y="564" on="0"/>
        <pt x="96" y="564" on="1"/>
        <pt x="100" y="585" on="1"/>
        <pt x="318" y="585" on="1"/>
        <pt x="314" y="564" on="1"/>
        <pt x="259" y="564" on="0"/>
        <pt x="248" y="544" on="1"/>
        <pt x="163" y="34" on="1"/>
        <pt x="391" y="34" on="1"/>
        <pt x="417" y="44" on="0"/>
        <pt x="446" y="97" on="1"/>
        <pt x="466" y="97" on="1"/>
        <pt x="426" y="0" on="1"/>
      </contour>
    </TTGlyph>
    <TTGlyph name="Lcaron" xMin="2" yMin="0" xMax="490" yMax="596">
      <contour>
        <pt x="357" y="544" on="1"/>
        <pt x="357" y="573" on="0"/>
        <pt x="396" y="596" on="0"/>
        <pt x="412" y="596" on="1"/>
        <pt x="446" y="596" on="0"/>
        <pt x="490" y="558" on="0"/>
        <pt x="490" y="525" on="1"/>
        <pt x="490" y="493" on="0"/>
        <pt x="456" y="440" on="0"/>
        <pt x="401" y="408" on="0"/>
        <pt x="364" y="392" on="0"/>
        <pt x="344" y="386" on="1"/>
        <pt x="349" y="414" on="1"/>
        <pt x="375" y="417" on="0"/>
        <pt x="435" y="466" on="0"/>
        <pt x="441" y="497" on="1"/>
        <pt x="444" y="516" on="0"/>
        <pt x="442" y="522" on="0"/>
        <pt x="435" y="522" on="1"/>
        <pt x="432" y="522" on="0"/>
        <pt x="413" y="509" on="0"/>
        <pt x="402" y="509" on="1"/>
        <pt x="357" y="509" on="0"/>
      </contour>
      <contour>
        <pt x="2" y="0" on="1"/>
        <pt x="6" y="21" on="1"/>
        <pt x="61" y="21" on="0"/>
        <pt x="72" y="41" on="1"/>
        <pt x="156" y="544" on="1"/>
        <pt x="150" y="564" on="0"/>
        <pt x="96" y="564" on="1"/>
        <pt x="100" y="585" on="1"/>
        <pt x="318" y="585" on="1"/>
        <pt x="314" y="564" on="1"/>
        <pt x="259" y="564" on="0"/>
        <pt x="248" y="544" on="1"/>
        <pt x="163" y="34" on="1"/>
        <pt x="391" y="34" on="1"/>
        <pt x="417" y="44" on="0"/>
        <pt x="446" y="97" on="1"/>
        <pt x="466" y="97" on="1"/>
        <pt x="426" y="0" on="1"/>
      </contour>
    </TTGlyph>
    <TTGlyph name="Lcommaaccent" xMin="2" yMin="-248" xMax="466" yMax="585">
      <contour>
        <pt x="157" y="-90" on="1"/>
        <pt x="157" y="-61" on="0"/>
        <pt x="196" y="-38" on="0"/>
        <pt x="212" y="-38" on="1"/>
        <pt x="246" y="-38" on="0"/>
        <pt x="290" y="-76" on="0"/>
        <pt x="290" y="-109" on="1"/>
        <pt x="290" y="-141" on="0"/>
        <pt x="256" y="-194" on="0"/>
        <pt x="201" y="-226" on="0"/>
        <pt x="164" y="-242" on="0"/>
        <pt x="144" y="-248" on="1"/>
        <pt x="149" y="-220" on="1"/>
        <pt x="175" y="-217" on="0"/>
        <pt x="235" y="-168" on="0"/>
        <pt x="241" y="-137" on="1"/>
        <pt x="244" y="-118" on="0"/>
        <pt x="242" y="-112" on="0"/>
        <pt x="235" y="-112" on="1"/>
        <pt x="232" y="-112" on="0"/>
        <pt x="213" y="-125" on="0"/>
        <pt x="202" y="-125" on="1"/>
        <pt x="157" y="-125" on="0"/>
      </contour>
      <contour>
        <pt x="2" y="0" on="1"/>
        <pt x="6" y="21" on="1"/>
        <pt x="61" y="21" on="0"/>
        <pt x="72" y="41" on="1"/>
        <pt x="156" y="544" on="1"/>
        <pt x="150" y="564" on="0"/>
        <pt x="96" y="564" on="1"/>
        <pt x="100" y="585" on="1"/>
        <pt x="318" y="585" on="1"/>
        <pt x="314" y="564" on="1"/>
        <pt x="259" y="564" on="0"/>
        <pt x="248" y="544" on="1"/>
        <pt x="163" y="34" on="1"/>
        <pt x="391" y="34" on="1"/>
        <pt x="417" y="44" on="0"/>
        <pt x="446" y="97" on="1"/>
        <pt x="466" y="97" on="1"/>
        <pt x="426" y="0" on="1"/>
      </contour>
    </TTGlyph>
    <TTGlyph name="Ldot" xMin="2" yMin="0" xMax="466" yMax="585">
      <contour>
        <pt x="2" y="0" on="1"/>
        <pt x="6" y="21" on="1"/>
        <pt x="61" y="21" on="0"/>
        <pt x="72" y="41" on="1"/>
        <pt x="156" y="544" on="1"/>
        <pt x="150" y="564" on="0"/>
        <pt x="96" y="564" on="1"/>
        <pt x="100" y="585" on="1"/>
        <pt x="318" y="585" on="1"/>
        <pt x="314" y="564" on="1"/>
        <pt x="259" y="564" on="0"/>
        <pt x="248" y="544" on="1"/>
        <pt x="163" y="34" on="1"/>
        <pt x="391" y="34" on="1"/>
        <pt x="417" y="44" on="0"/>
        <pt x="446" y="97" on="1"/>
        <pt x="466" y="97" on="1"/>
        <pt x="426" y="0" on="1"/>
      </contour>
      <contour>
        <pt x="357" y="300" on="1"/>
        <pt x="357" y="325" on="0"/>
        <pt x="394" y="359" on="0"/>
        <pt x="417" y="359" on="1"/>
        <pt x="436" y="359" on="0"/>
        <pt x="460" y="334" on="0"/>
        <pt x="460" y="316" on="1"/>
        <pt x="460" y="291" on="0"/>
        <pt x="423" y="257" on="0"/>
        <pt x="400" y="257" on="1"/>
        <pt x="381" y="257" on="0"/>
        <pt x="357" y="282" on="0"/>
      </contour>
    </TTGlyph>
    <TTGlyph name="Lslash" xMin="2" yMin="0" xMax="466" yMax="585">
      <contour>
        <pt x="2" y="0" on="1"/>
        <pt x="6" y="21" on="1"/>
        <pt x="61" y="21" on="0"/>
        <pt x="72" y="41" on="1"/>
        <pt x="111" y="277" on="1"/>
        <pt x="65" y="243" on="1"/>
        <pt x="48" y="269" on="1"/>
        <pt x="119" y="321" on="1"/>
        <pt x="156" y="544" on="1"/>
        <pt x="150" y="564" on="0"/>
        <pt x="96" y="564" on="1"/>
        <pt x="100" y="585" on="1"/>
        <pt x="318" y="585" on="1"/>
        <pt x="314" y="564" on="1"/>
        <pt x="259" y="564" on="0"/>
        <pt x="248" y="544" on="1"/>
        <pt x="224" y="399" on="1"/>
        <pt x="278" y="439" on="1"/>
        <pt x="296" y="413" on="1"/>
        <pt x="216" y="354" on="1"/>
        <pt x="163" y="34" on="1"/>
        <pt x="391" y="34" on="1"/>
        <pt x="417" y="44" on="0"/>
        <pt x="446" y="97" on="1"/>
        <pt x="466" y="97" on="1"/>
        <pt x="426" y="0" on="1"/>
      </contour>
    </TTGlyph>
    <TTGlyph name="M" xMin="2" yMin="0" xMax="820" yMax="585">
      <contour>
        <pt x="2" y="0" on="1"/>
        <pt x="6" y="21" on="1"/>
        <pt x="61" y="21" on="0"/>
        <pt x="72" y="41" on="1"/>
        <pt x="156" y="544" on="1"/>
        <pt x="150" y="564" on="0"/>
        <pt x="96" y="564" on="1"/>
        <pt x="100" y="585" on="1"/>
        <pt x="246" y="585" on="1"/>
        <pt x="381" y="120" on="1"/>
        <pt x="672" y="585" on="1"/>
        <pt x="820" y="585" on="1"/>
        <pt x="816" y="564" on="1"/>
        <pt x="761" y="564" on="0"/>
        <pt x="750" y="544" on="1"/>
        <pt x="666" y="41" on="1"/>
        <pt x="672" y="21" on="0"/>
        <pt x="726" y="21" on="1"/>
        <pt x="722" y="0" on="1"/>
        <pt x="504" y="0" on="1"/>
        <pt x="508" y="21" on="1"/>
        <pt x="563" y="21" on="0"/>
        <pt x="574" y="41" on="1"/>
        <pt x="649" y="490" on="1"/>
        <pt x="343" y="0" on="1"/>
        <pt x="328" y="0" on="1"/>
        <pt x="182" y="496" on="1"/>
        <pt x="106" y="41" on="1"/>
        <pt x="112" y="21" on="0"/>
        <pt x="166" y="21" on="1"/>
        <pt x="162" y="0" on="1"/>
      </contour>
    </TTGlyph>
    <TTGlyph name="N" xMin="2" yMin="0" xMax="662" yMax="585">
      <contour>
        <pt x="2" y="0" on="1"/>
        <pt x="6" y="21" on="1"/>
        <pt x="61" y="21" on="0"/>
        <pt x="72" y="41" on="1"/>
        <pt x="156" y="544" on="1"/>
        <pt x="150" y="564" on="0"/>
        <pt x="96" y="564" on="1"/>
        <pt x="100" y="585" on="1"/>
        <pt x="234" y="585" on="1"/>
        <pt x="496" y="176" on="1"/>
        <pt x="558" y="544" on="1"/>
        <pt x="552" y="564" on="0"/>
        <pt x="498" y="564" on="1"/>
        <pt x="502" y="585" on="1"/>
        <pt x="662" y="585" on="1"/>
        <pt x="658" y="564" on="1"/>
        <pt x="603" y="564" on="0"/>
        <pt x="592" y="544" on="1"/>
        <pt x="501" y="0" on="1"/>
        <pt x="492" y="0" on="1"/>
        <pt x="182" y="497" on="1"/>
        <pt x="106" y="41" on="1"/>
        <pt x="112" y="21" on="0"/>
        <pt x="166" y="21" on="1"/>
        <pt x="162" y="0" on="1"/>
      </contour>
    </TTGlyph>
    <TTGlyph name="Nacute" xMin="2" yMin="0" xMax="662" yMax="782">
      <contour>
        <pt x="470" y="782" on="1"/>
        <pt x="576" y="782" on="1"/>
        <pt x="395" y="620" on="1"/>
        <pt x="369" y="620" on="1"/>
      </contour>
      <contour>
        <pt x="2" y="0" on="1"/>
        <pt x="6" y="21" on="1"/>
        <pt x="61" y="21" on="0"/>
        <pt x="72" y="41" on="1"/>
        <pt x="156" y="544" on="1"/>
        <pt x="150" y="564" on="0"/>
        <pt x="96" y="564" on="1"/>
        <pt x="100" y="585" on="1"/>
        <pt x="234" y="585" on="1"/>
        <pt x="496" y="176" on="1"/>
        <pt x="558" y="544" on="1"/>
        <pt x="552" y="564" on="0"/>
        <pt x="498" y="564" on="1"/>
        <pt x="502" y="585" on="1"/>
        <pt x="662" y="585" on="1"/>
        <pt x="658" y="564" on="1"/>
        <pt x="603" y="564" on="0"/>
        <pt x="592" y="544" on="1"/>
        <pt x="501" y="0" on="1"/>
        <pt x="492" y="0" on="1"/>
        <pt x="182" y="497" on="1"/>
        <pt x="106" y="41" on="1"/>
        <pt x="112" y="21" on="0"/>
        <pt x="166" y="21" on="1"/>
        <pt x="162" y="0" on="1"/>
      </contour>
    </TTGlyph>
    <TTGlyph name="Ncaron" xMin="2" yMin="0" xMax="662" yMax="782">
      <contour>
        <pt x="358" y="620" on="1"/>
        <pt x="291" y="782" on="1"/>
        <pt x="317" y="782" on="1"/>
        <pt x="395" y="695" on="1"/>
        <pt x="503" y="782" on="1"/>
        <pt x="529" y="782" on="1"/>
        <pt x="408" y="620" on="1"/>
      </contour>
      <contour>
        <pt x="2" y="0" on="1"/>
        <pt x="6" y="21" on="1"/>
        <pt x="61" y="21" on="0"/>
        <pt x="72" y="41" on="1"/>
        <pt x="156" y="544" on="1"/>
        <pt x="150" y="564" on="0"/>
        <pt x="96" y="564" on="1"/>
        <pt x="100" y="585" on="1"/>
        <pt x="234" y="585" on="1"/>
        <pt x="496" y="176" on="1"/>
        <pt x="558" y="544" on="1"/>
        <pt x="552" y="564" on="0"/>
        <pt x="498" y="564" on="1"/>
        <pt x="502" y="585" on="1"/>
        <pt x="662" y="585" on="1"/>
        <pt x="658" y="564" on="1"/>
        <pt x="603" y="564" on="0"/>
        <pt x="592" y="544" on="1"/>
        <pt x="501" y="0" on="1"/>
        <pt x="492" y="0" on="1"/>
        <pt x="182" y="497" on="1"/>
        <pt x="106" y="41" on="1"/>
        <pt x="112" y="21" on="0"/>
        <pt x="166" y="21" on="1"/>
        <pt x="162" y="0" on="1"/>
      </contour>
    </TTGlyph>
    <TTGlyph name="Ncommaaccent" xMin="2" yMin="-248" xMax="662" yMax="585">
      <contour>
        <pt x="209" y="-90" on="1"/>
        <pt x="209" y="-61" on="0"/>
        <pt x="248" y="-38" on="0"/>
        <pt x="264" y="-38" on="1"/>
        <pt x="298" y="-38" on="0"/>
        <pt x="342" y="-76" on="0"/>
        <pt x="342" y="-109" on="1"/>
        <pt x="342" y="-141" on="0"/>
        <pt x="308" y="-194" on="0"/>
        <pt x="253" y="-226" on="0"/>
        <pt x="216" y="-242" on="0"/>
        <pt x="196" y="-248" on="1"/>
        <pt x="201" y="-220" on="1"/>
        <pt x="227" y="-217" on="0"/>
        <pt x="287" y="-168" on="0"/>
        <pt x="293" y="-137" on="1"/>
        <pt x="296" y="-118" on="0"/>
        <pt x="294" y="-112" on="0"/>
        <pt x="287" y="-112" on="1"/>
        <pt x="284" y="-112" on="0"/>
        <pt x="265" y="-125" on="0"/>
        <pt x="254" y="-125" on="1"/>
        <pt x="209" y="-125" on="0"/>
      </contour>
      <contour>
        <pt x="2" y="0" on="1"/>
        <pt x="6" y="21" on="1"/>
        <pt x="61" y="21" on="0"/>
        <pt x="72" y="41" on="1"/>
        <pt x="156" y="544" on="1"/>
        <pt x="150" y="564" on="0"/>
        <pt x="96" y="564" on="1"/>
        <pt x="100" y="585" on="1"/>
        <pt x="234" y="585" on="1"/>
        <pt x="496" y="176" on="1"/>
        <pt x="558" y="544" on="1"/>
        <pt x="552" y="564" on="0"/>
        <pt x="498" y="564" on="1"/>
        <pt x="502" y="585" on="1"/>
        <pt x="662" y="585" on="1"/>
        <pt x="658" y="564" on="1"/>
        <pt x="603" y="564" on="0"/>
        <pt x="592" y="544" on="1"/>
        <pt x="501" y="0" on="1"/>
        <pt x="492" y="0" on="1"/>
        <pt x="182" y="497" on="1"/>
        <pt x="106" y="41" on="1"/>
        <pt x="112" y="21" on="0"/>
        <pt x="166" y="21" on="1"/>
        <pt x="162" y="0" on="1"/>
      </contour>
    </TTGlyph>
    <TTGlyph name="Ntilde" xMin="2" yMin="0" xMax="662" yMax="732">
      <component glyphName="tildecomb" x="552" y="120" flags="0x1004"/>
      <component glyphName="N" x="0" y="0" flags="0x1204"/>
    </TTGlyph>
    <TTGlyph name="O" xMin="46" yMin="-10" xMax="610" yMax="595">
      <contour>
        <pt x="146" y="229" on="1"/>
        <pt x="146" y="142" on="0"/>
        <pt x="216" y="24" on="0"/>
        <pt x="287" y="24" on="1"/>
        <pt x="354" y="24" on="0"/>
        <pt x="459" y="128" on="0"/>
        <pt x="509" y="276" on="0"/>
        <pt x="509" y="353" on="1"/>
        <pt x="509" y="409" on="0"/>
        <pt x="482" y="499" on="0"/>
        <pt x="417" y="561" on="0"/>
        <pt x="369" y="561" on="1"/>
        <pt x="302" y="561" on="0"/>
        <pt x="197" y="456" on="0"/>
        <pt x="146" y="307" on="0"/>
      </contour>
      <contour>
        <pt x="379" y="595" on="1"/>
        <pt x="485" y="595" on="0"/>
        <pt x="610" y="456" on="0"/>
        <pt x="610" y="350" on="1"/>
        <pt x="610" y="203" on="0"/>
        <pt x="410" y="-10" on="0"/>
        <pt x="277" y="-10" on="1"/>
        <pt x="170" y="-10" on="0"/>
        <pt x="46" y="128" on="0"/>
        <pt x="46" y="234" on="1"/>
        <pt x="46" y="382" on="0"/>
        <pt x="245" y="595" on="0"/>
      </contour>
    </TTGlyph>
    <TTGlyph name="OE" xMin="46" yMin="-10" xMax="814" yMax="595">
      <contour>
        <pt x="352" y="0" on="1"/>
        <pt x="318" y="-10" on="0"/>
        <pt x="277" y="-10" on="1"/>
        <pt x="170" y="-10" on="0"/>
        <pt x="46" y="128" on="0"/>
        <pt x="46" y="234" on="1"/>
        <pt x="46" y="382" on="0"/>
        <pt x="245" y="595" on="0"/>
        <pt x="379" y="595" on="1"/>
        <pt x="420" y="595" on="0"/>
        <pt x="451" y="585" on="1"/>
        <pt x="814" y="585" on="1"/>
        <pt x="798" y="488" on="1"/>
        <pt x="777" y="488" on="1"/>
        <pt x="780" y="509" on="0"/>
        <pt x="780" y="522" on="1"/>
        <pt x="780" y="545" on="0"/>
        <pt x="767" y="551" on="1"/>
        <pt x="560" y="551" on="1"/>
        <pt x="522" y="321" on="1"/>
        <pt x="662" y="321" on="1"/>
        <pt x="683" y="329" on="0"/>
        <pt x="692" y="384" on="1"/>
        <pt x="713" y="384" on="1"/>
        <pt x="686" y="224" on="1"/>
        <pt x="665" y="224" on="1"/>
        <pt x="669" y="252" on="0"/>
        <pt x="669" y="258" on="1"/>
        <pt x="669" y="281" on="0"/>
        <pt x="656" y="287" on="1"/>
        <pt x="516" y="287" on="1"/>
        <pt x="474" y="34" on="1"/>
        <pt x="702" y="34" on="1"/>
        <pt x="728" y="44" on="0"/>
        <pt x="757" y="97" on="1"/>
        <pt x="777" y="97" on="1"/>
        <pt x="737" y="0" on="1"/>
      </contour>
      <contour>
        <pt x="386" y="59" on="1"/>
        <pt x="463" y="517" on="1"/>
        <pt x="427" y="561" on="0"/>
        <pt x="369" y="561" on="1"/>
        <pt x="302" y="561" on="0"/>
        <pt x="197" y="456" on="0"/>
        <pt x="146" y="307" on="0"/>
        <pt x="146" y="229" on="1"/>
        <pt x="146" y="142" on="0"/>
        <pt x="216" y="24" on="0"/>
        <pt x="287" y="24" on="1"/>
        <pt x="340" y="24" on="0"/>
      </contour>
    </TTGlyph>
    <TTGlyph name="Oacute" xMin="46" yMin="-10" xMax="610" yMax="782">
      <component glyphName="acutecomb" x="553" y="120" flags="0x1004"/>
      <component glyphName="O" x="0" y="0" flags="0x1204"/>
    </TTGlyph>
    <TTGlyph name="Obreve" xMin="46" yMin="-10" xMax="610" yMax="754">
      <contour>
        <pt x="384" y="630" on="1"/>
        <pt x="330" y="630" on="0"/>
        <pt x="278" y="695" on="0"/>
        <pt x="278" y="736" on="1"/>
        <pt x="278" y="748" on="0"/>
        <pt x="279" y="754" on="1"/>
        <pt x="307" y="754" on="1"/>
        <pt x="307" y="749" on="1"/>
        <pt x="307" y="730" on="0"/>
        <pt x="352" y="702" on="0"/>
        <pt x="396" y="702" on="1"/>
        <pt x="443" y="702" on="0"/>
        <pt x="500" y="733" on="0"/>
        <pt x="503" y="754" on="1"/>
        <pt x="531" y="754" on="1"/>
        <pt x="524" y="710" on="0"/>
        <pt x="446" y="630" on="0"/>
      </contour>
      <contour>
        <pt x="146" y="229" on="1"/>
        <pt x="146" y="142" on="0"/>
        <pt x="216" y="24" on="0"/>
        <pt x="287" y="24" on="1"/>
        <pt x="354" y="24" on="0"/>
        <pt x="459" y="128" on="0"/>
        <pt x="509" y="276" on="0"/>
        <pt x="509" y="353" on="1"/>
        <pt x="509" y="409" on="0"/>
        <pt x="482" y="499" on="0"/>
        <pt x="417" y="561" on="0"/>
        <pt x="369" y="561" on="1"/>
        <pt x="302" y="561" on="0"/>
        <pt x="197" y="456" on="0"/>
        <pt x="146" y="307" on="0"/>
      </contour>
      <contour>
        <pt x="379" y="595" on="1"/>
        <pt x="485" y="595" on="0"/>
        <pt x="610" y="456" on="0"/>
        <pt x="610" y="350" on="1"/>
        <pt x="610" y="203" on="0"/>
        <pt x="410" y="-10" on="0"/>
        <pt x="277" y="-10" on="1"/>
        <pt x="170" y="-10" on="0"/>
        <pt x="46" y="128" on="0"/>
        <pt x="46" y="234" on="1"/>
        <pt x="46" y="382" on="0"/>
        <pt x="245" y="595" on="0"/>
      </contour>
    </TTGlyph>
    <TTGlyph name="Ocircumflex" xMin="46" yMin="-10" xMax="610" yMax="782">
      <component glyphName="uni0302" x="553" y="120" flags="0x1004"/>
      <component glyphName="O" x="0" y="0" flags="0x1204"/>
    </TTGlyph>
    <TTGlyph name="Odieresis" xMin="46" yMin="-10" xMax="610" yMax="718">
      <component glyphName="uni0308" x="553" y="120" flags="0x1004"/>
      <component glyphName="O" x="0" y="0" flags="0x1204"/>
    </TTGlyph>
    <TTGlyph name="Ograve" xMin="46" yMin="-10" xMax="610" yMax="782">
      <component glyphName="gravecomb" x="553" y="120" flags="0x1004"/>
      <component glyphName="O" x="0" y="0" flags="0x1204"/>
    </TTGlyph>
    <TTGlyph name="Ohorn" xMin="46" yMin="-10" xMax="704" yMax="625">
      <contour>
        <pt x="146" y="229" on="1"/>
        <pt x="146" y="142" on="0"/>
        <pt x="216" y="24" on="0"/>
        <pt x="287" y="24" on="1"/>
        <pt x="354" y="24" on="0"/>
        <pt x="459" y="128" on="0"/>
        <pt x="509" y="276" on="0"/>
        <pt x="509" y="353" on="1"/>
        <pt x="509" y="409" on="0"/>
        <pt x="482" y="499" on="0"/>
        <pt x="417" y="561" on="0"/>
        <pt x="369" y="561" on="1"/>
        <pt x="302" y="561" on="0"/>
        <pt x="197" y="456" on="0"/>
        <pt x="146" y="307" on="0"/>
      </contour>
      <contour>
        <pt x="587" y="465" on="1"/>
        <pt x="645" y="479" on="0"/>
        <pt x="653" y="531" on="1"/>
        <pt x="654" y="534" on="0"/>
        <pt x="648" y="538" on="0"/>
        <pt x="644" y="538" on="1"/>
        <pt x="642" y="538" on="0"/>
        <pt x="631" y="536" on="0"/>
        <pt x="627" y="536" on="1"/>
        <pt x="588" y="536" on="0"/>
        <pt x="588" y="569" on="1"/>
        <pt x="588" y="592" on="0"/>
        <pt x="620" y="625" on="0"/>
        <pt x="637" y="625" on="1"/>
        <pt x="668" y="625" on="0"/>
        <pt x="704" y="589" on="0"/>
        <pt x="704" y="559" on="1"/>
        <pt x="704" y="511" on="0"/>
        <pt x="641" y="454" on="0"/>
        <pt x="595" y="445" on="1"/>
        <pt x="610" y="402" on="0"/>
        <pt x="610" y="350" on="1"/>
        <pt x="610" y="203" on="0"/>
        <pt x="410" y="-10" on="0"/>
        <pt x="277" y="-10" on="1"/>
        <pt x="170" y="-10" on="0"/>
        <pt x="46" y="128" on="0"/>
        <pt x="46" y="234" on="1"/>
        <pt x="46" y="382" on="0"/>
        <pt x="245" y="595" on="0"/>
        <pt x="379" y="595" on="1"/>
        <pt x="453" y="595" on="0"/>
        <pt x="560" y="525" on="0"/>
      </contour>
    </TTGlyph>
    <TTGlyph name="Ohungarumlaut" xMin="46" yMin="-10" xMax="637" yMax="782">
      <contour>
        <pt x="371" y="782" on="1"/>
        <pt x="477" y="782" on="1"/>
        <pt x="296" y="620" on="1"/>
        <pt x="270" y="620" on="1"/>
      </contour>
      <contour>
        <pt x="531" y="782" on="1"/>
        <pt x="637" y="782" on="1"/>
        <pt x="456" y="620" on="1"/>
        <pt x="430" y="620" on="1"/>
      </contour>
      <contour>
        <pt x="146" y="229" on="1"/>
        <pt x="146" y="142" on="0"/>
        <pt x="216" y="24" on="0"/>
        <pt x="287" y="24" on="1"/>
        <pt x="354" y="24" on="0"/>
        <pt x="459" y="128" on="0"/>
        <pt x="509" y="276" on="0"/>
        <pt x="509" y="353" on="1"/>
        <pt x="509" y="409" on="0"/>
        <pt x="482" y="499" on="0"/>
        <pt x="417" y="561" on="0"/>
        <pt x="369" y="561" on="1"/>
        <pt x="302" y="561" on="0"/>
        <pt x="197" y="456" on="0"/>
        <pt x="146" y="307" on="0"/>
      </contour>
      <contour>
        <pt x="379" y="595" on="1"/>
        <pt x="485" y="595" on="0"/>
        <pt x="610" y="456" on="0"/>
        <pt x="610" y="350" on="1"/>
        <pt x="610" y="203" on="0"/>
        <pt x="410" y="-10" on="0"/>
        <pt x="277" y="-10" on="1"/>
        <pt x="170" y="-10" on="0"/>
        <pt x="46" y="128" on="0"/>
        <pt x="46" y="234" on="1"/>
        <pt x="46" y="382" on="0"/>
        <pt x="245" y="595" on="0"/>
      </contour>
    </TTGlyph>
    <TTGlyph name="Omacron" xMin="46" yMin="-10" xMax="610" yMax="678">
      <contour>
        <pt x="254" y="678" on="1"/>
        <pt x="518" y="678" on="1"/>
        <pt x="511" y="634" on="1"/>
        <pt x="247" y="634" on="1"/>
      </contour>
      <contour>
        <pt x="146" y="229" on="1"/>
        <pt x="146" y="142" on="0"/>
        <pt x="216" y="24" on="0"/>
        <pt x="287" y="24" on="1"/>
        <pt x="354" y="24" on="0"/>
        <pt x="459" y="128" on="0"/>
        <pt x="509" y="276" on="0"/>
        <pt x="509" y="353" on="1"/>
        <pt x="509" y="409" on="0"/>
        <pt x="482" y="499" on="0"/>
        <pt x="417" y="561" on="0"/>
        <pt x="369" y="561" on="1"/>
        <pt x="302" y="561" on="0"/>
        <pt x="197" y="456" on="0"/>
        <pt x="146" y="307" on="0"/>
      </contour>
      <contour>
        <pt x="379" y="595" on="1"/>
        <pt x="485" y="595" on="0"/>
        <pt x="610" y="456" on="0"/>
        <pt x="610" y="350" on="1"/>
        <pt x="610" y="203" on="0"/>
        <pt x="410" y="-10" on="0"/>
        <pt x="277" y="-10" on="1"/>
        <pt x="170" y="-10" on="0"/>
        <pt x="46" y="128" on="0"/>
        <pt x="46" y="234" on="1"/>
        <pt x="46" y="382" on="0"/>
        <pt x="245" y="595" on="0"/>
      </contour>
    </TTGlyph>
    <TTGlyph name="Oslash" xMin="46" yMin="-28" xMax="610" yMax="612">
      <contour>
        <pt x="159" y="-28" on="1"/>
        <pt x="130" y="-10" on="1"/>
        <pt x="151" y="23" on="1"/>
        <pt x="100" y="54" on="0"/>
        <pt x="46" y="165" on="0"/>
        <pt x="46" y="234" on="1"/>
        <pt x="46" y="382" on="0"/>
        <pt x="245" y="595" on="0"/>
        <pt x="379" y="595" on="1"/>
        <pt x="443" y="595" on="0"/>
        <pt x="492" y="569" on="1"/>
        <pt x="519" y="612" on="1"/>
        <pt x="548" y="594" on="1"/>
        <pt x="521" y="550" on="1"/>
        <pt x="610" y="482" on="0"/>
        <pt x="610" y="350" on="1"/>
        <pt x="610" y="203" on="0"/>
        <pt x="410" y="-10" on="0"/>
        <pt x="277" y="-10" on="1"/>
        <pt x="223" y="-10" on="0"/>
        <pt x="181" y="8" on="1"/>
      </contour>
      <contour>
        <pt x="482" y="488" on="1"/>
        <pt x="208" y="51" on="1"/>
        <pt x="240" y="24" on="0"/>
        <pt x="287" y="24" on="1"/>
        <pt x="354" y="24" on="0"/>
        <pt x="459" y="128" on="0"/>
        <pt x="509" y="276" on="0"/>
        <pt x="509" y="353" on="1"/>
        <pt x="509" y="434" on="0"/>
      </contour>
      <contour>
        <pt x="461" y="519" on="1"/>
        <pt x="425" y="561" on="0"/>
        <pt x="369" y="561" on="1"/>
        <pt x="302" y="561" on="0"/>
        <pt x="197" y="456" on="0"/>
        <pt x="146" y="307" on="0"/>
        <pt x="146" y="229" on="1"/>
        <pt x="146" y="133" on="0"/>
        <pt x="185" y="77" on="1"/>
      </contour>
    </TTGlyph>
    <TTGlyph name="Oslashacute" xMin="46" yMin="-28" xMax="610" yMax="782">
      <contour>
        <pt x="471" y="782" on="1"/>
        <pt x="577" y="782" on="1"/>
        <pt x="396" y="620" on="1"/>
        <pt x="370" y="620" on="1"/>
      </contour>
      <contour>
        <pt x="159" y="-28" on="1"/>
        <pt x="130" y="-10" on="1"/>
        <pt x="151" y="23" on="1"/>
        <pt x="100" y="54" on="0"/>
        <pt x="46" y="165" on="0"/>
        <pt x="46" y="234" on="1"/>
        <pt x="46" y="382" on="0"/>
        <pt x="245" y="595" on="0"/>
        <pt x="379" y="595" on="1"/>
        <pt x="443" y="595" on="0"/>
        <pt x="492" y="569" on="1"/>
        <pt x="519" y="612" on="1"/>
        <pt x="548" y="594" on="1"/>
        <pt x="521" y="550" on="1"/>
        <pt x="610" y="482" on="0"/>
        <pt x="610" y="350" on="1"/>
        <pt x="610" y="203" on="0"/>
        <pt x="410" y="-10" on="0"/>
        <pt x="277" y="-10" on="1"/>
        <pt x="223" y="-10" on="0"/>
        <pt x="181" y="8" on="1"/>
      </contour>
      <contour>
        <pt x="482" y="488" on="1"/>
        <pt x="208" y="51" on="1"/>
        <pt x="240" y="24" on="0"/>
        <pt x="287" y="24" on="1"/>
        <pt x="354" y="24" on="0"/>
        <pt x="459" y="128" on="0"/>
        <pt x="509" y="276" on="0"/>
        <pt x="509" y="353" on="1"/>
        <pt x="509" y="434" on="0"/>
      </contour>
      <contour>
        <pt x="461" y="519" on="1"/>
        <pt x="425" y="561" on="0"/>
        <pt x="369" y="561" on="1"/>
        <pt x="302" y="561" on="0"/>
        <pt x="197" y="456" on="0"/>
        <pt x="146" y="307" on="0"/>
        <pt x="146" y="229" on="1"/>
        <pt x="146" y="133" on="0"/>
        <pt x="185" y="77" on="1"/>
      </contour>
    </TTGlyph>
    <TTGlyph name="Otilde" xMin="46" yMin="-10" xMax="610" yMax="732">
      <component glyphName="tildecomb" x="553" y="120" flags="0x1004"/>
      <component glyphName="O" x="0" y="0" flags="0x1204"/>
    </TTGlyph>
    <TTGlyph name="P" xMin="2" yMin="0" xMax="554" yMax="585">
      <contour>
        <pt x="2" y="0" on="1"/>
        <pt x="6" y="21" on="1"/>
        <pt x="61" y="21" on="0"/>
        <pt x="72" y="41" on="1"/>
        <pt x="156" y="544" on="1"/>
        <pt x="150" y="564" on="0"/>
        <pt x="96" y="564" on="1"/>
        <pt x="100" y="585" on="1"/>
        <pt x="326" y="585" on="1"/>
        <pt x="440" y="585" on="0"/>
        <pt x="554" y="504" on="0"/>
        <pt x="554" y="449" on="1"/>
        <pt x="554" y="367" on="0"/>
        <pt x="408" y="266" on="0"/>
        <pt x="285" y="266" on="1"/>
        <pt x="202" y="266" on="1"/>
        <pt x="164" y="41" on="1"/>
        <pt x="170" y="21" on="0"/>
        <pt x="224" y="21" on="1"/>
        <pt x="220" y="0" on="1"/>
      </contour>
      <contour>
        <pt x="249" y="551" on="1"/>
        <pt x="207" y="300" on="1"/>
        <pt x="290" y="300" on="1"/>
        <pt x="455" y="300" on="0"/>
        <pt x="455" y="458" on="1"/>
        <pt x="455" y="551" on="0"/>
        <pt x="320" y="551" on="1"/>
      </contour>
    </TTGlyph>
    <TTGlyph name="Q" xMin="46" yMin="-102" xMax="622" yMax="595">
      <contour>
        <pt x="379" y="595" on="1"/>
        <pt x="485" y="595" on="0"/>
        <pt x="610" y="456" on="0"/>
        <pt x="610" y="350" on="1"/>
        <pt x="610" y="251" on="0"/>
        <pt x="518" y="90" on="0"/>
        <pt x="444" y="41" on="1"/>
        <pt x="447" y="33" on="0"/>
        <pt x="460" y="-3" on="0"/>
        <pt x="466" y="-19" on="0"/>
        <pt x="479" y="-45" on="0"/>
        <pt x="491" y="-56" on="0"/>
        <pt x="510" y="-66" on="0"/>
        <pt x="521" y="-66" on="1"/>
        <pt x="545" y="-66" on="0"/>
        <pt x="589" y="-43" on="0"/>
        <pt x="599" y="-32" on="1"/>
        <pt x="609" y="-20" on="1"/>
        <pt x="622" y="-31" on="1"/>
        <pt x="617" y="-39" on="0"/>
        <pt x="600" y="-63" on="0"/>
        <pt x="544" y="-102" on="0"/>
        <pt x="515" y="-102" on="1"/>
        <pt x="449" y="-102" on="0"/>
        <pt x="384" y="-44" on="0"/>
        <pt x="366" y="4" on="1"/>
        <pt x="321" y="-10" on="0"/>
        <pt x="277" y="-10" on="1"/>
        <pt x="170" y="-10" on="0"/>
        <pt x="46" y="128" on="0"/>
        <pt x="46" y="234" on="1"/>
        <pt x="46" y="382" on="0"/>
        <pt x="245" y="595" on="0"/>
      </contour>
      <contour>
        <pt x="199" y="61" on="1"/>
        <pt x="233" y="24" on="0"/>
        <pt x="287" y="24" on="1"/>
        <pt x="324" y="24" on="0"/>
        <pt x="355" y="39" on="1"/>
        <pt x="345" y="70" on="0"/>
        <pt x="322" y="102" on="0"/>
        <pt x="301" y="102" on="1"/>
        <pt x="245" y="102" on="0"/>
      </contour>
      <contour>
        <pt x="419" y="91" on="1"/>
        <pt x="509" y="195" on="0"/>
        <pt x="509" y="353" on="1"/>
        <pt x="509" y="409" on="0"/>
        <pt x="482" y="499" on="0"/>
        <pt x="417" y="561" on="0"/>
        <pt x="369" y="561" on="1"/>
        <pt x="302" y="561" on="0"/>
        <pt x="197" y="456" on="0"/>
        <pt x="146" y="307" on="0"/>
        <pt x="146" y="229" on="1"/>
        <pt x="146" y="134" on="0"/>
        <pt x="185" y="78" on="1"/>
        <pt x="241" y="146" on="0"/>
        <pt x="314" y="146" on="1"/>
        <pt x="383" y="146" on="0"/>
      </contour>
    </TTGlyph>
    <TTGlyph name="R" xMin="2" yMin="0" xMax="554" yMax="585">
      <contour>
        <pt x="2" y="0" on="1"/>
        <pt x="6" y="21" on="1"/>
        <pt x="61" y="21" on="0"/>
        <pt x="72" y="41" on="1"/>
        <pt x="156" y="544" on="1"/>
        <pt x="150" y="564" on="0"/>
        <pt x="96" y="564" on="1"/>
        <pt x="100" y="585" on="1"/>
        <pt x="326" y="585" on="1"/>
        <pt x="441" y="585" on="0"/>
        <pt x="554" y="507" on="0"/>
        <pt x="554" y="453" on="1"/>
        <pt x="554" y="392" on="0"/>
        <pt x="468" y="300" on="0"/>
        <pt x="396" y="280" on="1"/>
        <pt x="489" y="42" on="1"/>
        <pt x="496" y="21" on="0"/>
        <pt x="552" y="21" on="1"/>
        <pt x="548" y="0" on="1"/>
        <pt x="505" y="0" on="1"/>
        <pt x="435" y="0" on="0"/>
        <pt x="396" y="16" on="0"/>
        <pt x="381" y="52" on="1"/>
        <pt x="296" y="266" on="1"/>
        <pt x="202" y="266" on="1"/>
        <pt x="164" y="41" on="1"/>
        <pt x="170" y="21" on="0"/>
        <pt x="224" y="21" on="1"/>
        <pt x="220" y="0" on="1"/>
      </contour>
      <contour>
        <pt x="249" y="551" on="1"/>
        <pt x="207" y="300" on="1"/>
        <pt x="290" y="300" on="1"/>
        <pt x="375" y="300" on="0"/>
        <pt x="455" y="379" on="0"/>
        <pt x="455" y="464" on="1"/>
        <pt x="455" y="506" on="0"/>
        <pt x="394" y="551" on="0"/>
        <pt x="320" y="551" on="1"/>
      </contour>
    </TTGlyph>
    <TTGlyph name="Racute" xMin="2" yMin="0" xMax="554" yMax="782">
      <contour>
        <pt x="436" y="782" on="1"/>
        <pt x="542" y="782" on="1"/>
        <pt x="361" y="620" on="1"/>
        <pt x="335" y="620" on="1"/>
      </contour>
      <contour>
        <pt x="2" y="0" on="1"/>
        <pt x="6" y="21" on="1"/>
        <pt x="61" y="21" on="0"/>
        <pt x="72" y="41" on="1"/>
        <pt x="156" y="544" on="1"/>
        <pt x="150" y="564" on="0"/>
        <pt x="96" y="564" on="1"/>
        <pt x="100" y="585" on="1"/>
        <pt x="326" y="585" on="1"/>
        <pt x="441" y="585" on="0"/>
        <pt x="554" y="507" on="0"/>
        <pt x="554" y="453" on="1"/>
        <pt x="554" y="392" on="0"/>
        <pt x="468" y="300" on="0"/>
        <pt x="396" y="280" on="1"/>
        <pt x="489" y="42" on="1"/>
        <pt x="496" y="21" on="0"/>
        <pt x="552" y="21" on="1"/>
        <pt x="548" y="0" on="1"/>
        <pt x="505" y="0" on="1"/>
        <pt x="435" y="0" on="0"/>
        <pt x="396" y="16" on="0"/>
        <pt x="381" y="52" on="1"/>
        <pt x="296" y="266" on="1"/>
        <pt x="202" y="266" on="1"/>
        <pt x="164" y="41" on="1"/>
        <pt x="170" y="21" on="0"/>
        <pt x="224" y="21" on="1"/>
        <pt x="220" y="0" on="1"/>
      </contour>
      <contour>
        <pt x="249" y="551" on="1"/>
        <pt x="207" y="300" on="1"/>
        <pt x="290" y="300" on="1"/>
        <pt x="375" y="300" on="0"/>
        <pt x="455" y="379" on="0"/>
        <pt x="455" y="464" on="1"/>
        <pt x="455" y="506" on="0"/>
        <pt x="394" y="551" on="0"/>
        <pt x="320" y="551" on="1"/>
      </contour>
    </TTGlyph>
    <TTGlyph name="Rcaron" xMin="2" yMin="0" xMax="554" yMax="782">
      <contour>
        <pt x="324" y="620" on="1"/>
        <pt x="257" y="782" on="1"/>
        <pt x="283" y="782" on="1"/>
        <pt x="361" y="695" on="1"/>
        <pt x="469" y="782" on="1"/>
        <pt x="495" y="782" on="1"/>
        <pt x="374" y="620" on="1"/>
      </contour>
      <contour>
        <pt x="2" y="0" on="1"/>
        <pt x="6" y="21" on="1"/>
        <pt x="61" y="21" on="0"/>
        <pt x="72" y="41" on="1"/>
        <pt x="156" y="544" on="1"/>
        <pt x="150" y="564" on="0"/>
        <pt x="96" y="564" on="1"/>
        <pt x="100" y="585" on="1"/>
        <pt x="326" y="585" on="1"/>
        <pt x="441" y="585" on="0"/>
        <pt x="554" y="507" on="0"/>
        <pt x="554" y="453" on="1"/>
        <pt x="554" y="392" on="0"/>
        <pt x="468" y="300" on="0"/>
        <pt x="396" y="280" on="1"/>
        <pt x="489" y="42" on="1"/>
        <pt x="496" y="21" on="0"/>
        <pt x="552" y="21" on="1"/>
        <pt x="548" y="0" on="1"/>
        <pt x="505" y="0" on="1"/>
        <pt x="435" y="0" on="0"/>
        <pt x="396" y="16" on="0"/>
        <pt x="381" y="52" on="1"/>
        <pt x="296" y="266" on="1"/>
        <pt x="202" y="266" on="1"/>
        <pt x="164" y="41" on="1"/>
        <pt x="170" y="21" on="0"/>
        <pt x="224" y="21" on="1"/>
        <pt x="220" y="0" on="1"/>
      </contour>
      <contour>
        <pt x="249" y="551" on="1"/>
        <pt x="207" y="300" on="1"/>
        <pt x="290" y="300" on="1"/>
        <pt x="375" y="300" on="0"/>
        <pt x="455" y="379" on="0"/>
        <pt x="455" y="464" on="1"/>
        <pt x="455" y="506" on="0"/>
        <pt x="394" y="551" on="0"/>
        <pt x="320" y="551" on="1"/>
      </contour>
    </TTGlyph>
    <TTGlyph name="Rcommaaccent" xMin="2" yMin="-248" xMax="554" yMax="585">
      <contour>
        <pt x="213" y="-90" on="1"/>
        <pt x="213" y="-61" on="0"/>
        <pt x="252" y="-38" on="0"/>
        <pt x="268" y="-38" on="1"/>
        <pt x="302" y="-38" on="0"/>
        <pt x="346" y="-76" on="0"/>
        <pt x="346" y="-109" on="1"/>
        <pt x="346" y="-141" on="0"/>
        <pt x="312" y="-194" on="0"/>
        <pt x="257" y="-226" on="0"/>
        <pt x="220" y="-242" on="0"/>
        <pt x="200" y="-248" on="1"/>
        <pt x="205" y="-220" on="1"/>
        <pt x="231" y="-217" on="0"/>
        <pt x="291" y="-168" on="0"/>
        <pt x="297" y="-137" on="1"/>
        <pt x="300" y="-118" on="0"/>
        <pt x="298" y="-112" on="0"/>
        <pt x="291" y="-112" on="1"/>
        <pt x="288" y="-112" on="0"/>
        <pt x="269" y="-125" on="0"/>
        <pt x="258" y="-125" on="1"/>
        <pt x="213" y="-125" on="0"/>
      </contour>
      <contour>
        <pt x="2" y="0" on="1"/>
        <pt x="6" y="21" on="1"/>
        <pt x="61" y="21" on="0"/>
        <pt x="72" y="41" on="1"/>
        <pt x="156" y="544" on="1"/>
        <pt x="150" y="564" on="0"/>
        <pt x="96" y="564" on="1"/>
        <pt x="100" y="585" on="1"/>
        <pt x="326" y="585" on="1"/>
        <pt x="441" y="585" on="0"/>
        <pt x="554" y="507" on="0"/>
        <pt x="554" y="453" on="1"/>
        <pt x="554" y="392" on="0"/>
        <pt x="468" y="300" on="0"/>
        <pt x="396" y="280" on="1"/>
        <pt x="489" y="42" on="1"/>
        <pt x="496" y="21" on="0"/>
        <pt x="552" y="21" on="1"/>
        <pt x="548" y="0" on="1"/>
        <pt x="505" y="0" on="1"/>
        <pt x="435" y="0" on="0"/>
        <pt x="396" y="16" on="0"/>
        <pt x="381" y="52" on="1"/>
        <pt x="296" y="266" on="1"/>
        <pt x="202" y="266" on="1"/>
        <pt x="164" y="41" on="1"/>
        <pt x="170" y="21" on="0"/>
        <pt x="224" y="21" on="1"/>
        <pt x="220" y="0" on="1"/>
      </contour>
      <contour>
        <pt x="249" y="551" on="1"/>
        <pt x="207" y="300" on="1"/>
        <pt x="290" y="300" on="1"/>
        <pt x="375" y="300" on="0"/>
        <pt x="455" y="379" on="0"/>
        <pt x="455" y="464" on="1"/>
        <pt x="455" y="506" on="0"/>
        <pt x="394" y="551" on="0"/>
        <pt x="320" y="551" on="1"/>
      </contour>
    </TTGlyph>
    <TTGlyph name="S" xMin="10" yMin="-10" xMax="440" yMax="595">
      <contour>
        <pt x="206" y="-10" on="1"/>
        <pt x="157" y="-10" on="0"/>
        <pt x="60" y="20" on="0"/>
        <pt x="58" y="20" on="1"/>
        <pt x="52" y="20" on="0"/>
        <pt x="34" y="8" on="0"/>
        <pt x="33" y="0" on="1"/>
        <pt x="10" y="0" on="1"/>
        <pt x="33" y="139" on="1"/>
        <pt x="55" y="139" on="1"/>
        <pt x="56" y="79" on="0"/>
        <pt x="144" y="24" on="0"/>
        <pt x="206" y="24" on="1"/>
        <pt x="263" y="24" on="0"/>
        <pt x="344" y="79" on="0"/>
        <pt x="344" y="134" on="1"/>
        <pt x="344" y="153" on="0"/>
        <pt x="327" y="185" on="0"/>
        <pt x="294" y="213" on="0"/>
        <pt x="263" y="233" on="0"/>
        <pt x="215" y="261" on="0"/>
        <pt x="202" y="270" on="1"/>
        <pt x="171" y="291" on="0"/>
        <pt x="147" y="310" on="0"/>
        <pt x="102" y="352" on="0"/>
        <pt x="83" y="395" on="0"/>
        <pt x="83" y="420" on="1"/>
        <pt x="83" y="488" on="0"/>
        <pt x="214" y="595" on="0"/>
        <pt x="286" y="595" on="1"/>
        <pt x="316" y="595" on="0"/>
        <pt x="396" y="565" on="0"/>
        <pt x="402" y="565" on="1"/>
        <pt x="414" y="565" on="0"/>
        <pt x="417" y="585" on="1"/>
        <pt x="440" y="585" on="1"/>
        <pt x="429" y="458" on="1"/>
        <pt x="407" y="458" on="1"/>
        <pt x="407" y="502" on="0"/>
        <pt x="342" y="561" on="0"/>
        <pt x="281" y="561" on="1"/>
        <pt x="232" y="561" on="0"/>
        <pt x="164" y="496" on="0"/>
        <pt x="164" y="461" on="1"/>
        <pt x="164" y="444" on="0"/>
        <pt x="180" y="415" on="0"/>
        <pt x="213" y="388" on="0"/>
        <pt x="243" y="369" on="0"/>
        <pt x="291" y="341" on="0"/>
        <pt x="304" y="332" on="1"/>
        <pt x="333" y="312" on="0"/>
        <pt x="352" y="299" on="0"/>
        <pt x="398" y="261" on="0"/>
        <pt x="415" y="235" on="0"/>
        <pt x="432" y="194" on="0"/>
        <pt x="432" y="172" on="1"/>
        <pt x="432" y="114" on="0"/>
        <pt x="357" y="27" on="0"/>
        <pt x="257" y="-10" on="0"/>
      </contour>
    </TTGlyph>
    <TTGlyph name="Sacute" xMin="10" yMin="-10" xMax="484" yMax="782">
      <contour>
        <pt x="378" y="782" on="1"/>
        <pt x="484" y="782" on="1"/>
        <pt x="303" y="620" on="1"/>
        <pt x="277" y="620" on="1"/>
      </contour>
      <contour>
        <pt x="206" y="-10" on="1"/>
        <pt x="157" y="-10" on="0"/>
        <pt x="60" y="20" on="0"/>
        <pt x="58" y="20" on="1"/>
        <pt x="52" y="20" on="0"/>
        <pt x="34" y="8" on="0"/>
        <pt x="33" y="0" on="1"/>
        <pt x="10" y="0" on="1"/>
        <pt x="33" y="139" on="1"/>
        <pt x="55" y="139" on="1"/>
        <pt x="56" y="79" on="0"/>
        <pt x="144" y="24" on="0"/>
        <pt x="206" y="24" on="1"/>
        <pt x="263" y="24" on="0"/>
        <pt x="344" y="79" on="0"/>
        <pt x="344" y="134" on="1"/>
        <pt x="344" y="153" on="0"/>
        <pt x="327" y="185" on="0"/>
        <pt x="294" y="213" on="0"/>
        <pt x="263" y="233" on="0"/>
        <pt x="215" y="261" on="0"/>
        <pt x="202" y="270" on="1"/>
        <pt x="171" y="291" on="0"/>
        <pt x="147" y="310" on="0"/>
        <pt x="102" y="352" on="0"/>
        <pt x="83" y="395" on="0"/>
        <pt x="83" y="420" on="1"/>
        <pt x="83" y="488" on="0"/>
        <pt x="214" y="595" on="0"/>
        <pt x="286" y="595" on="1"/>
        <pt x="316" y="595" on="0"/>
        <pt x="396" y="565" on="0"/>
        <pt x="402" y="565" on="1"/>
        <pt x="414" y="565" on="0"/>
        <pt x="417" y="585" on="1"/>
        <pt x="440" y="585" on="1"/>
        <pt x="429" y="458" on="1"/>
        <pt x="407" y="458" on="1"/>
        <pt x="407" y="502" on="0"/>
        <pt x="342" y="561" on="0"/>
        <pt x="281" y="561" on="1"/>
        <pt x="232" y="561" on="0"/>
        <pt x="164" y="496" on="0"/>
        <pt x="164" y="461" on="1"/>
        <pt x="164" y="444" on="0"/>
        <pt x="180" y="415" on="0"/>
        <pt x="213" y="388" on="0"/>
        <pt x="243" y="369" on="0"/>
        <pt x="291" y="341" on="0"/>
        <pt x="304" y="332" on="1"/>
        <pt x="333" y="312" on="0"/>
        <pt x="352" y="299" on="0"/>
        <pt x="398" y="261" on="0"/>
        <pt x="415" y="235" on="0"/>
        <pt x="432" y="194" on="0"/>
        <pt x="432" y="172" on="1"/>
        <pt x="432" y="114" on="0"/>
        <pt x="357" y="27" on="0"/>
        <pt x="257" y="-10" on="0"/>
      </contour>
    </TTGlyph>
    <TTGlyph name="Scaron" xMin="10" yMin="-10" xMax="440" yMax="782">
      <contour>
        <pt x="266" y="620" on="1"/>
        <pt x="199" y="782" on="1"/>
        <pt x="225" y="782" on="1"/>
        <pt x="303" y="695" on="1"/>
        <pt x="411" y="782" on="1"/>
        <pt x="437" y="782" on="1"/>
        <pt x="316" y="620" on="1"/>
      </contour>
      <contour>
        <pt x="206" y="-10" on="1"/>
        <pt x="157" y="-10" on="0"/>
        <pt x="60" y="20" on="0"/>
        <pt x="58" y="20" on="1"/>
        <pt x="52" y="20" on="0"/>
        <pt x="34" y="8" on="0"/>
        <pt x="33" y="0" on="1"/>
        <pt x="10" y="0" on="1"/>
        <pt x="33" y="139" on="1"/>
        <pt x="55" y="139" on="1"/>
        <pt x="56" y="79" on="0"/>
        <pt x="144" y="24" on="0"/>
        <pt x="206" y="24" on="1"/>
        <pt x="263" y="24" on="0"/>
        <pt x="344" y="79" on="0"/>
        <pt x="344" y="134" on="1"/>
        <pt x="344" y="153" on="0"/>
        <pt x="327" y="185" on="0"/>
        <pt x="294" y="213" on="0"/>
        <pt x="263" y="233" on="0"/>
        <pt x="215" y="261" on="0"/>
        <pt x="202" y="270" on="1"/>
        <pt x="171" y="291" on="0"/>
        <pt x="147" y="310" on="0"/>
        <pt x="102" y="352" on="0"/>
        <pt x="83" y="395" on="0"/>
        <pt x="83" y="420" on="1"/>
        <pt x="83" y="488" on="0"/>
        <pt x="214" y="595" on="0"/>
        <pt x="286" y="595" on="1"/>
        <pt x="316" y="595" on="0"/>
        <pt x="396" y="565" on="0"/>
        <pt x="402" y="565" on="1"/>
        <pt x="414" y="565" on="0"/>
        <pt x="417" y="585" on="1"/>
        <pt x="440" y="585" on="1"/>
        <pt x="429" y="458" on="1"/>
        <pt x="407" y="458" on="1"/>
        <pt x="407" y="502" on="0"/>
        <pt x="342" y="561" on="0"/>
        <pt x="281" y="561" on="1"/>
        <pt x="232" y="561" on="0"/>
        <pt x="164" y="496" on="0"/>
        <pt x="164" y="461" on="1"/>
        <pt x="164" y="444" on="0"/>
        <pt x="180" y="415" on="0"/>
        <pt x="213" y="388" on="0"/>
        <pt x="243" y="369" on="0"/>
        <pt x="291" y="341" on="0"/>
        <pt x="304" y="332" on="1"/>
        <pt x="333" y="312" on="0"/>
        <pt x="352" y="299" on="0"/>
        <pt x="398" y="261" on="0"/>
        <pt x="415" y="235" on="0"/>
        <pt x="432" y="194" on="0"/>
        <pt x="432" y="172" on="1"/>
        <pt x="432" y="114" on="0"/>
        <pt x="357" y="27" on="0"/>
        <pt x="257" y="-10" on="0"/>
      </contour>
    </TTGlyph>
    <TTGlyph name="Scedilla" xMin="10" yMin="-199" xMax="440" yMax="595">
      <contour>
        <pt x="113" y="-177" on="1"/>
        <pt x="112" y="-176" on="1"/>
        <pt x="154" y="-176" on="0"/>
        <pt x="193" y="-144" on="0"/>
        <pt x="193" y="-120" on="1"/>
        <pt x="193" y="-85" on="0"/>
        <pt x="139" y="-85" on="1"/>
        <pt x="174" y="-8" on="1"/>
        <pt x="137" y="-5" on="0"/>
        <pt x="62" y="20" on="0"/>
        <pt x="58" y="20" on="1"/>
        <pt x="52" y="20" on="0"/>
        <pt x="34" y="8" on="0"/>
        <pt x="33" y="0" on="1"/>
        <pt x="10" y="0" on="1"/>
        <pt x="33" y="139" on="1"/>
        <pt x="55" y="139" on="1"/>
        <pt x="56" y="79" on="0"/>
        <pt x="144" y="24" on="0"/>
        <pt x="206" y="24" on="1"/>
        <pt x="263" y="24" on="0"/>
        <pt x="344" y="79" on="0"/>
        <pt x="344" y="134" on="1"/>
        <pt x="344" y="153" on="0"/>
        <pt x="327" y="185" on="0"/>
        <pt x="294" y="213" on="0"/>
        <pt x="263" y="233" on="0"/>
        <pt x="215" y="261" on="0"/>
        <pt x="202" y="270" on="1"/>
        <pt x="171" y="291" on="0"/>
        <pt x="147" y="310" on="0"/>
        <pt x="102" y="352" on="0"/>
        <pt x="83" y="395" on="0"/>
        <pt x="83" y="420" on="1"/>
        <pt x="83" y="488" on="0"/>
        <pt x="214" y="595" on="0"/>
        <pt x="286" y="595" on="1"/>
        <pt x="316" y="595" on="0"/>
        <pt x="396" y="565" on="0"/>
        <pt x="402" y="565" on="1"/>
        <pt x="414" y="565" on="0"/>
        <pt x="417" y="585" on="1"/>
        <pt x="440" y="585" on="1"/>
        <pt x="429" y="458" on="1"/>
        <pt x="407" y="458" on="1"/>
        <pt x="407" y="502" on="0"/>
        <pt x="342" y="561" on="0"/>
        <pt x="281" y="561" on="1"/>
        <pt x="232" y="561" on="0"/>
        <pt x="164" y="496" on="0"/>
        <pt x="164" y="461" on="1"/>
        <pt x="164" y="444" on="0"/>
        <pt x="180" y="415" on="0"/>
        <pt x="213" y="388" on="0"/>
        <pt x="243" y="369" on="0"/>
        <pt x="291" y="341" on="0"/>
        <pt x="304" y="332" on="1"/>
        <pt x="333" y="312" on="0"/>
        <pt x="352" y="299" on="0"/>
        <pt x="398" y="261" on="0"/>
        <pt x="415" y="235" on="0"/>
        <pt x="432" y="194" on="0"/>
        <pt x="432" y="172" on="1"/>
        <pt x="432" y="115" on="0"/>
        <pt x="360" y="30" on="0"/>
        <pt x="264" y="-8" on="0"/>
        <pt x="213" y="-10" on="1"/>
        <pt x="193" y="-55" on="1"/>
        <pt x="222" y="-55" on="0"/>
        <pt x="282" y="-84" on="0"/>
        <pt x="282" y="-113" on="1"/>
        <pt x="282" y="-149" on="0"/>
        <pt x="223" y="-199" on="0"/>
        <pt x="159" y="-199" on="1"/>
        <pt x="125" y="-199" on="0"/>
        <pt x="86" y="-192" on="1"/>
        <pt x="89" y="-175" on="1"/>
        <pt x="107" y="-177" on="0"/>
      </contour>
    </TTGlyph>
    <TTGlyph name="Scircumflex" xMin="10" yMin="-10" xMax="440" yMax="782">
      <contour>
        <pt x="342" y="782" on="1"/>
        <pt x="409" y="620" on="1"/>
        <pt x="383" y="620" on="1"/>
        <pt x="304" y="707" on="1"/>
        <pt x="197" y="620" on="1"/>
        <pt x="171" y="620" on="1"/>
        <pt x="292" y="782" on="1"/>
      </contour>
      <contour>
        <pt x="206" y="-10" on="1"/>
        <pt x="157" y="-10" on="0"/>
        <pt x="60" y="20" on="0"/>
        <pt x="58" y="20" on="1"/>
        <pt x="52" y="20" on="0"/>
        <pt x="34" y="8" on="0"/>
        <pt x="33" y="0" on="1"/>
        <pt x="10" y="0" on="1"/>
        <pt x="33" y="139" on="1"/>
        <pt x="55" y="139" on="1"/>
        <pt x="56" y="79" on="0"/>
        <pt x="144" y="24" on="0"/>
        <pt x="206" y="24" on="1"/>
        <pt x="263" y="24" on="0"/>
        <pt x="344" y="79" on="0"/>
        <pt x="344" y="134" on="1"/>
        <pt x="344" y="153" on="0"/>
        <pt x="327" y="185" on="0"/>
        <pt x="294" y="213" on="0"/>
        <pt x="263" y="233" on="0"/>
        <pt x="215" y="261" on="0"/>
        <pt x="202" y="270" on="1"/>
        <pt x="171" y="291" on="0"/>
        <pt x="147" y="310" on="0"/>
        <pt x="102" y="352" on="0"/>
        <pt x="83" y="395" on="0"/>
        <pt x="83" y="420" on="1"/>
        <pt x="83" y="488" on="0"/>
        <pt x="214" y="595" on="0"/>
        <pt x="286" y="595" on="1"/>
        <pt x="316" y="595" on="0"/>
        <pt x="396" y="565" on="0"/>
        <pt x="402" y="565" on="1"/>
        <pt x="414" y="565" on="0"/>
        <pt x="417" y="585" on="1"/>
        <pt x="440" y="585" on="1"/>
        <pt x="429" y="458" on="1"/>
        <pt x="407" y="458" on="1"/>
        <pt x="407" y="502" on="0"/>
        <pt x="342" y="561" on="0"/>
        <pt x="281" y="561" on="1"/>
        <pt x="232" y="561" on="0"/>
        <pt x="164" y="496" on="0"/>
        <pt x="164" y="461" on="1"/>
        <pt x="164" y="444" on="0"/>
        <pt x="180" y="415" on="0"/>
        <pt x="213" y="388" on="0"/>
        <pt x="243" y="369" on="0"/>
        <pt x="291" y="341" on="0"/>
        <pt x="304" y="332" on="1"/>
        <pt x="333" y="312" on="0"/>
        <pt x="352" y="299" on="0"/>
        <pt x="398" y="261" on="0"/>
        <pt x="415" y="235" on="0"/>
        <pt x="432" y="194" on="0"/>
        <pt x="432" y="172" on="1"/>
        <pt x="432" y="114" on="0"/>
        <pt x="357" y="27" on="0"/>
        <pt x="257" y="-10" on="0"/>
      </contour>
    </TTGlyph>
    <TTGlyph name="Scommaaccent" xMin="10" yMin="-248" xMax="440" yMax="595">
      <contour>
        <pt x="129" y="-90" on="1"/>
        <pt x="129" y="-61" on="0"/>
        <pt x="168" y="-38" on="0"/>
        <pt x="184" y="-38" on="1"/>
        <pt x="218" y="-38" on="0"/>
        <pt x="262" y="-76" on="0"/>
        <pt x="262" y="-109" on="1"/>
        <pt x="262" y="-141" on="0"/>
        <pt x="228" y="-194" on="0"/>
        <pt x="173" y="-226" on="0"/>
        <pt x="136" y="-242" on="0"/>
        <pt x="116" y="-248" on="1"/>
        <pt x="121" y="-220" on="1"/>
        <pt x="147" y="-217" on="0"/>
        <pt x="207" y="-168" on="0"/>
        <pt x="213" y="-137" on="1"/>
        <pt x="216" y="-118" on="0"/>
        <pt x="214" y="-112" on="0"/>
        <pt x="207" y="-112" on="1"/>
        <pt x="204" y="-112" on="0"/>
        <pt x="185" y="-125" on="0"/>
        <pt x="174" y="-125" on="1"/>
        <pt x="129" y="-125" on="0"/>
      </contour>
      <contour>
        <pt x="206" y="-10" on="1"/>
        <pt x="157" y="-10" on="0"/>
        <pt x="60" y="20" on="0"/>
        <pt x="58" y="20" on="1"/>
        <pt x="52" y="20" on="0"/>
        <pt x="34" y="8" on="0"/>
        <pt x="33" y="0" on="1"/>
        <pt x="10" y="0" on="1"/>
        <pt x="33" y="139" on="1"/>
        <pt x="55" y="139" on="1"/>
        <pt x="56" y="79" on="0"/>
        <pt x="144" y="24" on="0"/>
        <pt x="206" y="24" on="1"/>
        <pt x="263" y="24" on="0"/>
        <pt x="344" y="79" on="0"/>
        <pt x="344" y="134" on="1"/>
        <pt x="344" y="153" on="0"/>
        <pt x="327" y="185" on="0"/>
        <pt x="294" y="213" on="0"/>
        <pt x="263" y="233" on="0"/>
        <pt x="215" y="261" on="0"/>
        <pt x="202" y="270" on="1"/>
        <pt x="171" y="291" on="0"/>
        <pt x="147" y="310" on="0"/>
        <pt x="102" y="352" on="0"/>
        <pt x="83" y="395" on="0"/>
        <pt x="83" y="420" on="1"/>
        <pt x="83" y="488" on="0"/>
        <pt x="214" y="595" on="0"/>
        <pt x="286" y="595" on="1"/>
        <pt x="316" y="595" on="0"/>
        <pt x="396" y="565" on="0"/>
        <pt x="402" y="565" on="1"/>
        <pt x="414" y="565" on="0"/>
        <pt x="417" y="585" on="1"/>
        <pt x="440" y="585" on="1"/>
        <pt x="429" y="458" on="1"/>
        <pt x="407" y="458" on="1"/>
        <pt x="407" y="502" on="0"/>
        <pt x="342" y="561" on="0"/>
        <pt x="281" y="561" on="1"/>
        <pt x="232" y="561" on="0"/>
        <pt x="164" y="496" on="0"/>
        <pt x="164" y="461" on="1"/>
        <pt x="164" y="444" on="0"/>
        <pt x="180" y="415" on="0"/>
        <pt x="213" y="388" on="0"/>
        <pt x="243" y="369" on="0"/>
        <pt x="291" y="341" on="0"/>
        <pt x="304" y="332" on="1"/>
        <pt x="333" y="312" on="0"/>
        <pt x="352" y="299" on="0"/>
        <pt x="398" y="261" on="0"/>
        <pt x="415" y="235" on="0"/>
        <pt x="432" y="194" on="0"/>
        <pt x="432" y="172" on="1"/>
        <pt x="432" y="114" on="0"/>
        <pt x="357" y="27" on="0"/>
        <pt x="257" y="-10" on="0"/>
      </contour>
    </TTGlyph>
    <TTGlyph name="T" xMin="54" yMin="0" xMax="572" yMax="585">
      <contour>
        <pt x="70" y="585" on="1"/>
        <pt x="572" y="585" on="1"/>
        <pt x="556" y="488" on="1"/>
        <pt x="535" y="488" on="1"/>
        <pt x="538" y="509" on="0"/>
        <pt x="538" y="522" on="1"/>
        <pt x="538" y="545" on="0"/>
        <pt x="525" y="551" on="1"/>
        <pt x="361" y="551" on="1"/>
        <pt x="276" y="41" on="1"/>
        <pt x="282" y="21" on="0"/>
        <pt x="336" y="21" on="1"/>
        <pt x="332" y="0" on="1"/>
        <pt x="114" y="0" on="1"/>
        <pt x="118" y="21" on="1"/>
        <pt x="173" y="21" on="0"/>
        <pt x="184" y="41" on="1"/>
        <pt x="269" y="551" on="1"/>
        <pt x="105" y="551" on="1"/>
        <pt x="84" y="543" on="0"/>
        <pt x="75" y="488" on="1"/>
        <pt x="54" y="488" on="1"/>
      </contour>
    </TTGlyph>
    <TTGlyph name="Tbar" xMin="54" yMin="0" xMax="572" yMax="585">
      <contour>
        <pt x="70" y="585" on="1"/>
        <pt x="572" y="585" on="1"/>
        <pt x="556" y="488" on="1"/>
        <pt x="535" y="488" on="1"/>
        <pt x="538" y="509" on="0"/>
        <pt x="538" y="522" on="1"/>
        <pt x="538" y="545" on="0"/>
        <pt x="525" y="551" on="1"/>
        <pt x="361" y="551" on="1"/>
        <pt x="325" y="333" on="1"/>
        <pt x="409" y="333" on="1"/>
        <pt x="403" y="299" on="1"/>
        <pt x="319" y="299" on="1"/>
        <pt x="276" y="41" on="1"/>
        <pt x="282" y="21" on="0"/>
        <pt x="336" y="21" on="1"/>
        <pt x="332" y="0" on="1"/>
        <pt x="114" y="0" on="1"/>
        <pt x="118" y="21" on="1"/>
        <pt x="173" y="21" on="0"/>
        <pt x="184" y="41" on="1"/>
        <pt x="227" y="299" on="1"/>
        <pt x="139" y="299" on="1"/>
        <pt x="145" y="333" on="1"/>
        <pt x="233" y="333" on="1"/>
        <pt x="269" y="551" on="1"/>
        <pt x="105" y="551" on="1"/>
        <pt x="84" y="543" on="0"/>
        <pt x="75" y="488" on="1"/>
        <pt x="54" y="488" on="1"/>
      </contour>
    </TTGlyph>
    <TTGlyph name="Tcaron" xMin="54" yMin="0" xMax="572" yMax="782">
      <contour>
        <pt x="304" y="620" on="1"/>
        <pt x="237" y="782" on="1"/>
        <pt x="263" y="782" on="1"/>
        <pt x="341" y="695" on="1"/>
        <pt x="449" y="782" on="1"/>
        <pt x="475" y="782" on="1"/>
        <pt x="354" y="620" on="1"/>
      </contour>
      <contour>
        <pt x="70" y="585" on="1"/>
        <pt x="572" y="585" on="1"/>
        <pt x="556" y="488" on="1"/>
        <pt x="535" y="488" on="1"/>
        <pt x="538" y="509" on="0"/>
        <pt x="538" y="522" on="1"/>
        <pt x="538" y="545" on="0"/>
        <pt x="525" y="551" on="1"/>
        <pt x="361" y="551" on="1"/>
        <pt x="276" y="41" on="1"/>
        <pt x="282" y="21" on="0"/>
        <pt x="336" y="21" on="1"/>
        <pt x="332" y="0" on="1"/>
        <pt x="114" y="0" on="1"/>
        <pt x="118" y="21" on="1"/>
        <pt x="173" y="21" on="0"/>
        <pt x="184" y="41" on="1"/>
        <pt x="269" y="551" on="1"/>
        <pt x="105" y="551" on="1"/>
        <pt x="84" y="543" on="0"/>
        <pt x="75" y="488" on="1"/>
        <pt x="54" y="488" on="1"/>
      </contour>
    </TTGlyph>
    <TTGlyph name="Tcommaaccent" xMin="54" yMin="-199" xMax="572" yMax="585">
      <contour>
        <pt x="139" y="-177" on="1"/>
        <pt x="181" y="-177" on="0"/>
        <pt x="220" y="-145" on="0"/>
        <pt x="220" y="-121" on="1"/>
        <pt x="220" y="-86" on="0"/>
        <pt x="166" y="-86" on="1"/>
        <pt x="205" y="0" on="1"/>
        <pt x="114" y="0" on="1"/>
        <pt x="118" y="21" on="1"/>
        <pt x="173" y="21" on="0"/>
        <pt x="184" y="41" on="1"/>
        <pt x="269" y="551" on="1"/>
        <pt x="105" y="551" on="1"/>
        <pt x="84" y="543" on="0"/>
        <pt x="75" y="488" on="1"/>
        <pt x="54" y="488" on="1"/>
        <pt x="70" y="585" on="1"/>
        <pt x="572" y="585" on="1"/>
        <pt x="556" y="488" on="1"/>
        <pt x="535" y="488" on="1"/>
        <pt x="538" y="509" on="0"/>
        <pt x="538" y="522" on="1"/>
        <pt x="538" y="545" on="0"/>
        <pt x="525" y="551" on="1"/>
        <pt x="361" y="551" on="1"/>
        <pt x="276" y="41" on="1"/>
        <pt x="282" y="21" on="0"/>
        <pt x="336" y="21" on="1"/>
        <pt x="332" y="0" on="1"/>
        <pt x="243" y="0" on="1"/>
        <pt x="219" y="-55" on="1"/>
        <pt x="248" y="-55" on="0"/>
        <pt x="308" y="-84" on="0"/>
        <pt x="308" y="-113" on="1"/>
        <pt x="308" y="-149" on="0"/>
        <pt x="249" y="-199" on="0"/>
        <pt x="185" y="-199" on="1"/>
        <pt x="151" y="-199" on="0"/>
        <pt x="112" y="-192" on="1"/>
        <pt x="115" y="-175" on="1"/>
        <pt x="133" y="-177" on="0"/>
      </contour>
    </TTGlyph>
    <TTGlyph name="Thorn" xMin="2" yMin="0" xMax="514" yMax="585">
      <contour>
        <pt x="2" y="0" on="1"/>
        <pt x="6" y="21" on="1"/>
        <pt x="61" y="21" on="0"/>
        <pt x="72" y="41" on="1"/>
        <pt x="156" y="544" on="1"/>
        <pt x="150" y="564" on="0"/>
        <pt x="96" y="564" on="1"/>
        <pt x="100" y="585" on="1"/>
        <pt x="318" y="585" on="1"/>
        <pt x="314" y="564" on="1"/>
        <pt x="259" y="564" on="0"/>
        <pt x="248" y="544" on="1"/>
        <pt x="234" y="460" on="1"/>
        <pt x="286" y="460" on="1"/>
        <pt x="402" y="460" on="0"/>
        <pt x="514" y="387" on="0"/>
        <pt x="514" y="329" on="1"/>
        <pt x="514" y="243" on="0"/>
        <pt x="370" y="141" on="0"/>
        <pt x="245" y="141" on="1"/>
        <pt x="181" y="141" on="1"/>
        <pt x="164" y="41" on="1"/>
        <pt x="170" y="21" on="0"/>
        <pt x="224" y="21" on="1"/>
        <pt x="220" y="0" on="1"/>
      </contour>
      <contour>
        <pt x="228" y="426" on="1"/>
        <pt x="186" y="175" on="1"/>
        <pt x="250" y="175" on="1"/>
        <pt x="415" y="175" on="0"/>
        <pt x="415" y="339" on="1"/>
        <pt x="415" y="382" on="0"/>
        <pt x="354" y="426" on="0"/>
        <pt x="280" y="426" on="1"/>
      </contour>
    </TTGlyph>
    <TTGlyph name="U" xMin="75" yMin="-10" xMax="647" yMax="585">
      <contour>
        <pt x="298" y="24" on="1"/>
        <pt x="365" y="24" on="0"/>
        <pt x="475" y="136" on="0"/>
        <pt x="490" y="228" on="1"/>
        <pt x="543" y="544" on="1"/>
        <pt x="537" y="564" on="0"/>
        <pt x="483" y="564" on="1"/>
        <pt x="487" y="585" on="1"/>
        <pt x="647" y="585" on="1"/>
        <pt x="643" y="564" on="1"/>
        <pt x="588" y="564" on="0"/>
        <pt x="577" y="544" on="1"/>
        <pt x="528" y="248" on="1"/>
        <pt x="506" y="118" on="0"/>
        <pt x="370" y="-10" on="0"/>
        <pt x="282" y="-10" on="1"/>
        <pt x="79" y="-10" on="0"/>
        <pt x="79" y="176" on="1"/>
        <pt x="79" y="202" on="0"/>
        <pt x="86" y="248" on="1"/>
        <pt x="135" y="544" on="1"/>
        <pt x="129" y="564" on="0"/>
        <pt x="75" y="564" on="1"/>
        <pt x="79" y="585" on="1"/>
        <pt x="297" y="585" on="1"/>
        <pt x="293" y="564" on="1"/>
        <pt x="238" y="564" on="0"/>
        <pt x="227" y="544" on="1"/>
        <pt x="175" y="234" on="1"/>
        <pt x="170" y="199" on="0"/>
        <pt x="170" y="176" on="1"/>
        <pt x="170" y="103" on="0"/>
        <pt x="239" y="24" on="0"/>
      </contour>
    </TTGlyph>
    <TTGlyph name="Uacute" xMin="75" yMin="-10" xMax="647" yMax="782">
      <component glyphName="acutecomb" x="566" y="120" flags="0x1004"/>
      <component glyphName="U" x="0" y="0" flags="0x1204"/>
    </TTGlyph>
    <TTGlyph name="Ubreve" xMin="75" yMin="-10" xMax="647" yMax="754">
      <contour>
        <pt x="397" y="630" on="1"/>
        <pt x="343" y="630" on="0"/>
        <pt x="291" y="695" on="0"/>
        <pt x="291" y="736" on="1"/>
        <pt x="291" y="748" on="0"/>
        <pt x="292" y="754" on="1"/>
        <pt x="320" y="754" on="1"/>
        <pt x="320" y="749" on="1"/>
        <pt x="320" y="730" on="0"/>
        <pt x="365" y="702" on="0"/>
        <pt x="409" y="702" on="1"/>
        <pt x="456" y="702" on="0"/>
        <pt x="513" y="733" on="0"/>
        <pt x="516" y="754" on="1"/>
        <pt x="544" y="754" on="1"/>
        <pt x="537" y="710" on="0"/>
        <pt x="459" y="630" on="0"/>
      </contour>
      <contour>
        <pt x="298" y="24" on="1"/>
        <pt x="365" y="24" on="0"/>
        <pt x="475" y="136" on="0"/>
        <pt x="490" y="228" on="1"/>
        <pt x="543" y="544" on="1"/>
        <pt x="537" y="564" on="0"/>
        <pt x="483" y="564" on="1"/>
        <pt x="487" y="585" on="1"/>
        <pt x="647" y="585" on="1"/>
        <pt x="643" y="564" on="1"/>
        <pt x="588" y="564" on="0"/>
        <pt x="577" y="544" on="1"/>
        <pt x="528" y="248" on="1"/>
        <pt x="506" y="118" on="0"/>
        <pt x="370" y="-10" on="0"/>
        <pt x="282" y="-10" on="1"/>
        <pt x="79" y="-10" on="0"/>
        <pt x="79" y="176" on="1"/>
        <pt x="79" y="202" on="0"/>
        <pt x="86" y="248" on="1"/>
        <pt x="135" y="544" on="1"/>
        <pt x="129" y="564" on="0"/>
        <pt x="75" y="564" on="1"/>
        <pt x="79" y="585" on="1"/>
        <pt x="297" y="585" on="1"/>
        <pt x="293" y="564" on="1"/>
        <pt x="238" y="564" on="0"/>
        <pt x="227" y="544" on="1"/>
        <pt x="175" y="234" on="1"/>
        <pt x="170" y="199" on="0"/>
        <pt x="170" y="176" on="1"/>
        <pt x="170" y="103" on="0"/>
        <pt x="239" y="24" on="0"/>
      </contour>
    </TTGlyph>
    <TTGlyph name="Ucircumflex" xMin="75" yMin="-10" xMax="647" yMax="782">
      <component glyphName="uni0302" x="566" y="120" flags="0x1004"/>
      <component glyphName="U" x="0" y="0" flags="0x1204"/>
    </TTGlyph>
    <TTGlyph name="Udieresis" xMin="75" yMin="-10" xMax="647" yMax="718">
      <component glyphName="uni0308" x="566" y="120" flags="0x1004"/>
      <component glyphName="U" x="0" y="0" flags="0x1204"/>
    </TTGlyph>
    <TTGlyph name="Ugrave" xMin="75" yMin="-10" xMax="647" yMax="782">
      <component glyphName="gravecomb" x="566" y="120" flags="0x1004"/>
      <component glyphName="U" x="0" y="0" flags="0x1204"/>
    </TTGlyph>
    <TTGlyph name="Uhorn" xMin="75" yMin="-10" xMax="739" yMax="749">
      <contour>
        <pt x="739" y="683" on="1"/>
        <pt x="739" y="621" on="0"/>
        <pt x="639" y="564" on="0"/>
        <pt x="580" y="564" on="1"/>
        <pt x="528" y="248" on="1"/>
        <pt x="506" y="118" on="0"/>
        <pt x="370" y="-10" on="0"/>
        <pt x="282" y="-10" on="1"/>
        <pt x="79" y="-10" on="0"/>
        <pt x="79" y="176" on="1"/>
        <pt x="79" y="202" on="0"/>
        <pt x="86" y="248" on="1"/>
        <pt x="135" y="544" on="1"/>
        <pt x="129" y="564" on="0"/>
        <pt x="75" y="564" on="1"/>
        <pt x="79" y="585" on="1"/>
        <pt x="297" y="585" on="1"/>
        <pt x="293" y="564" on="1"/>
        <pt x="238" y="564" on="0"/>
        <pt x="227" y="544" on="1"/>
        <pt x="175" y="234" on="1"/>
        <pt x="170" y="199" on="0"/>
        <pt x="170" y="176" on="1"/>
        <pt x="170" y="102" on="0"/>
        <pt x="236" y="24" on="0"/>
        <pt x="298" y="24" on="1"/>
        <pt x="365" y="24" on="0"/>
        <pt x="475" y="136" on="0"/>
        <pt x="490" y="228" on="1"/>
        <pt x="543" y="544" on="1"/>
        <pt x="537" y="564" on="0"/>
        <pt x="483" y="564" on="1"/>
        <pt x="487" y="585" on="1"/>
        <pt x="584" y="585" on="1"/>
        <pt x="627" y="585" on="0"/>
        <pt x="683" y="623" on="0"/>
        <pt x="688" y="655" on="1"/>
        <pt x="689" y="658" on="0"/>
        <pt x="683" y="662" on="0"/>
        <pt x="679" y="662" on="1"/>
        <pt x="677" y="662" on="0"/>
        <pt x="666" y="660" on="0"/>
        <pt x="662" y="660" on="1"/>
        <pt x="623" y="660" on="0"/>
        <pt x="623" y="693" on="1"/>
        <pt x="623" y="716" on="0"/>
        <pt x="655" y="749" on="0"/>
        <pt x="672" y="749" on="1"/>
        <pt x="703" y="749" on="0"/>
        <pt x="739" y="713" on="0"/>
      </contour>
    </TTGlyph>
    <TTGlyph name="Uhungarumlaut" xMin="75" yMin="-10" xMax="650" yMax="782">
      <contour>
        <pt x="384" y="782" on="1"/>
        <pt x="490" y="782" on="1"/>
        <pt x="309" y="620" on="1"/>
        <pt x="283" y="620" on="1"/>
      </contour>
      <contour>
        <pt x="544" y="782" on="1"/>
        <pt x="650" y="782" on="1"/>
        <pt x="469" y="620" on="1"/>
        <pt x="443" y="620" on="1"/>
      </contour>
      <contour>
        <pt x="298" y="24" on="1"/>
        <pt x="365" y="24" on="0"/>
        <pt x="475" y="136" on="0"/>
        <pt x="490" y="228" on="1"/>
        <pt x="543" y="544" on="1"/>
        <pt x="537" y="564" on="0"/>
        <pt x="483" y="564" on="1"/>
        <pt x="487" y="585" on="1"/>
        <pt x="647" y="585" on="1"/>
        <pt x="643" y="564" on="1"/>
        <pt x="588" y="564" on="0"/>
        <pt x="577" y="544" on="1"/>
        <pt x="528" y="248" on="1"/>
        <pt x="506" y="118" on="0"/>
        <pt x="370" y="-10" on="0"/>
        <pt x="282" y="-10" on="1"/>
        <pt x="79" y="-10" on="0"/>
        <pt x="79" y="176" on="1"/>
        <pt x="79" y="202" on="0"/>
        <pt x="86" y="248" on="1"/>
        <pt x="135" y="544" on="1"/>
        <pt x="129" y="564" on="0"/>
        <pt x="75" y="564" on="1"/>
        <pt x="79" y="585" on="1"/>
        <pt x="297" y="585" on="1"/>
        <pt x="293" y="564" on="1"/>
        <pt x="238" y="564" on="0"/>
        <pt x="227" y="544" on="1"/>
        <pt x="175" y="234" on="1"/>
        <pt x="170" y="199" on="0"/>
        <pt x="170" y="176" on="1"/>
        <pt x="170" y="103" on="0"/>
        <pt x="239" y="24" on="0"/>
      </contour>
    </TTGlyph>
    <TTGlyph name="Umacron" xMin="75" yMin="-10" xMax="647" yMax="678">
      <contour>
        <pt x="267" y="678" on="1"/>
        <pt x="531" y="678" on="1"/>
        <pt x="524" y="634" on="1"/>
        <pt x="260" y="634" on="1"/>
      </contour>
      <contour>
        <pt x="298" y="24" on="1"/>
        <pt x="365" y="24" on="0"/>
        <pt x="475" y="136" on="0"/>
        <pt x="490" y="228" on="1"/>
        <pt x="543" y="544" on="1"/>
        <pt x="537" y="564" on="0"/>
        <pt x="483" y="564" on="1"/>
        <pt x="487" y="585" on="1"/>
        <pt x="647" y="585" on="1"/>
        <pt x="643" y="564" on="1"/>
        <pt x="588" y="564" on="0"/>
        <pt x="577" y="544" on="1"/>
        <pt x="528" y="248" on="1"/>
        <pt x="506" y="118" on="0"/>
        <pt x="370" y="-10" on="0"/>
        <pt x="282" y="-10" on="1"/>
        <pt x="79" y="-10" on="0"/>
        <pt x="79" y="176" on="1"/>
        <pt x="79" y="202" on="0"/>
        <pt x="86" y="248" on="1"/>
        <pt x="135" y="544" on="1"/>
        <pt x="129" y="564" on="0"/>
        <pt x="75" y="564" on="1"/>
        <pt x="79" y="585" on="1"/>
        <pt x="297" y="585" on="1"/>
        <pt x="293" y="564" on="1"/>
        <pt x="238" y="564" on="0"/>
        <pt x="227" y="544" on="1"/>
        <pt x="175" y="234" on="1"/>
        <pt x="170" y="199" on="0"/>
        <pt x="170" y="176" on="1"/>
        <pt x="170" y="103" on="0"/>
        <pt x="239" y="24" on="0"/>
      </contour>
    </TTGlyph>
    <TTGlyph name="Uogonek" xMin="76" yMin="-199" xMax="648" yMax="586">
      <contour>
        <pt x="299" y="24" on="1"/>
        <pt x="299" y="25" on="1"/>
        <pt x="366" y="25" on="0"/>
        <pt x="476" y="137" on="0"/>
        <pt x="491" y="229" on="1"/>
        <pt x="544" y="545" on="1"/>
        <pt x="538" y="565" on="0"/>
        <pt x="484" y="565" on="1"/>
        <pt x="488" y="586" on="1"/>
        <pt x="648" y="586" on="1"/>
        <pt x="644" y="565" on="1"/>
        <pt x="589" y="565" on="0"/>
        <pt x="578" y="545" on="1"/>
        <pt x="529" y="249" on="1"/>
        <pt x="508" y="122" on="0"/>
        <pt x="377" y="-6" on="0"/>
        <pt x="292" y="-9" on="1"/>
        <pt x="261" y="-49" on="0"/>
        <pt x="261" y="-81" on="1"/>
        <pt x="261" y="-165" on="0"/>
        <pt x="333" y="-165" on="1"/>
        <pt x="339" y="-165" on="0"/>
        <pt x="356" y="-157" on="0"/>
        <pt x="362" y="-153" on="1"/>
        <pt x="367" y="-149" on="1"/>
        <pt x="375" y="-167" on="1"/>
        <pt x="350" y="-199" on="0"/>
        <pt x="291" y="-199" on="1"/>
        <pt x="205" y="-199" on="0"/>
        <pt x="205" y="-125" on="1"/>
        <pt x="205" y="-65" on="0"/>
        <pt x="263" y="-9" on="1"/>
        <pt x="80" y="0" on="0"/>
        <pt x="80" y="176" on="1"/>
        <pt x="80" y="202" on="0"/>
        <pt x="87" y="248" on="1"/>
        <pt x="136" y="544" on="1"/>
        <pt x="130" y="564" on="0"/>
        <pt x="76" y="564" on="1"/>
        <pt x="80" y="585" on="1"/>
        <pt x="298" y="585" on="1"/>
        <pt x="294" y="564" on="1"/>
        <pt x="239" y="564" on="0"/>
        <pt x="228" y="544" on="1"/>
        <pt x="176" y="234" on="1"/>
        <pt x="171" y="199" on="0"/>
        <pt x="171" y="176" on="1"/>
        <pt x="171" y="103" on="0"/>
        <pt x="240" y="24" on="0"/>
      </contour>
    </TTGlyph>
    <TTGlyph name="Uring" xMin="75" yMin="-10" xMax="647" yMax="763">
      <contour>
        <pt x="415" y="736" on="1"/>
        <pt x="394" y="736" on="0"/>
        <pt x="360" y="704" on="0"/>
        <pt x="360" y="681" on="1"/>
        <pt x="360" y="664" on="0"/>
        <pt x="382" y="642" on="0"/>
        <pt x="399" y="642" on="1"/>
        <pt x="420" y="642" on="0"/>
        <pt x="455" y="674" on="0"/>
        <pt x="455" y="697" on="1"/>
        <pt x="455" y="714" on="0"/>
        <pt x="432" y="736" on="0"/>
      </contour>
      <contour>
        <pt x="332" y="676" on="1"/>
        <pt x="332" y="713" on="0"/>
        <pt x="385" y="763" on="0"/>
        <pt x="420" y="763" on="1"/>
        <pt x="448" y="763" on="0"/>
        <pt x="482" y="728" on="0"/>
        <pt x="482" y="702" on="1"/>
        <pt x="482" y="665" on="0"/>
        <pt x="430" y="615" on="0"/>
        <pt x="395" y="615" on="1"/>
        <pt x="367" y="615" on="0"/>
        <pt x="332" y="650" on="0"/>
      </contour>
      <contour>
        <pt x="298" y="24" on="1"/>
        <pt x="365" y="24" on="0"/>
        <pt x="475" y="136" on="0"/>
        <pt x="490" y="228" on="1"/>
        <pt x="543" y="544" on="1"/>
        <pt x="537" y="564" on="0"/>
        <pt x="483" y="564" on="1"/>
        <pt x="487" y="585" on="1"/>
        <pt x="647" y="585" on="1"/>
        <pt x="643" y="564" on="1"/>
        <pt x="588" y="564" on="0"/>
        <pt x="577" y="544" on="1"/>
        <pt x="528" y="248" on="1"/>
        <pt x="506" y="118" on="0"/>
        <pt x="370" y="-10" on="0"/>
        <pt x="282" y="-10" on="1"/>
        <pt x="79" y="-10" on="0"/>
        <pt x="79" y="176" on="1"/>
        <pt x="79" y="202" on="0"/>
        <pt x="86" y="248" on="1"/>
        <pt x="135" y="544" on="1"/>
        <pt x="129" y="564" on="0"/>
        <pt x="75" y="564" on="1"/>
        <pt x="79" y="585" on="1"/>
        <pt x="297" y="585" on="1"/>
        <pt x="293" y="564" on="1"/>
        <pt x="238" y="564" on="0"/>
        <pt x="227" y="544" on="1"/>
        <pt x="175" y="234" on="1"/>
        <pt x="170" y="199" on="0"/>
        <pt x="170" y="176" on="1"/>
        <pt x="170" y="103" on="0"/>
        <pt x="239" y="24" on="0"/>
      </contour>
    </TTGlyph>
    <TTGlyph name="Utilde" xMin="75" yMin="-10" xMax="647" yMax="732">
      <contour>
        <pt x="471" y="620" on="1"/>
        <pt x="449" y="620" on="0"/>
        <pt x="340" y="679" on="0"/>
        <pt x="326" y="679" on="1"/>
        <pt x="298" y="679" on="0"/>
        <pt x="271" y="650" on="0"/>
        <pt x="266" y="620" on="1"/>
        <pt x="247" y="620" on="1"/>
        <pt x="265" y="732" on="0"/>
        <pt x="341" y="732" on="1"/>
        <pt x="363" y="732" on="0"/>
        <pt x="474" y="673" on="0"/>
        <pt x="488" y="673" on="1"/>
        <pt x="516" y="673" on="0"/>
        <pt x="542" y="702" on="0"/>
        <pt x="547" y="732" on="1"/>
        <pt x="566" y="732" on="1"/>
        <pt x="548" y="620" on="0"/>
      </contour>
      <contour>
        <pt x="298" y="24" on="1"/>
        <pt x="365" y="24" on="0"/>
        <pt x="475" y="136" on="0"/>
        <pt x="490" y="228" on="1"/>
        <pt x="543" y="544" on="1"/>
        <pt x="537" y="564" on="0"/>
        <pt x="483" y="564" on="1"/>
        <pt x="487" y="585" on="1"/>
        <pt x="647" y="585" on="1"/>
        <pt x="643" y="564" on="1"/>
        <pt x="588" y="564" on="0"/>
        <pt x="577" y="544" on="1"/>
        <pt x="528" y="248" on="1"/>
        <pt x="506" y="118" on="0"/>
        <pt x="370" y="-10" on="0"/>
        <pt x="282" y="-10" on="1"/>
        <pt x="79" y="-10" on="0"/>
        <pt x="79" y="176" on="1"/>
        <pt x="79" y="202" on="0"/>
        <pt x="86" y="248" on="1"/>
        <pt x="135" y="544" on="1"/>
        <pt x="129" y="564" on="0"/>
        <pt x="75" y="564" on="1"/>
        <pt x="79" y="585" on="1"/>
        <pt x="297" y="585" on="1"/>
        <pt x="293" y="564" on="1"/>
        <pt x="238" y="564" on="0"/>
        <pt x="227" y="544" on="1"/>
        <pt x="175" y="234" on="1"/>
        <pt x="170" y="199" on="0"/>
        <pt x="170" y="176" on="1"/>
        <pt x="170" y="103" on="0"/>
        <pt x="239" y="24" on="0"/>
      </contour>
    </TTGlyph>
    <TTGlyph name="V" xMin="38" yMin="0" xMax="605" yMax="585">
      <contour>
        <pt x="261" y="585" on="1"/>
        <pt x="257" y="564" on="1"/>
        <pt x="210" y="564" on="0"/>
        <pt x="197" y="552" on="1"/>
        <pt x="280" y="133" on="1"/>
        <pt x="496" y="546" on="1"/>
        <pt x="489" y="564" on="0"/>
        <pt x="437" y="564" on="1"/>
        <pt x="441" y="585" on="1"/>
        <pt x="605" y="585" on="1"/>
        <pt x="601" y="564" on="1"/>
        <pt x="547" y="564" on="0"/>
        <pt x="538" y="548" on="1"/>
        <pt x="250" y="0" on="1"/>
        <pt x="202" y="0" on="1"/>
        <pt x="99" y="543" on="1"/>
        <pt x="94" y="564" on="0"/>
        <pt x="38" y="564" on="1"/>
        <pt x="42" y="585" on="1"/>
      </contour>
    </TTGlyph>
    <TTGlyph name="W" xMin="38" yMin="0" xMax="902" yMax="585">
      <contour>
        <pt x="558" y="585" on="1"/>
        <pt x="554" y="564" on="1"/>
        <pt x="508" y="564" on="0"/>
        <pt x="494" y="552" on="1"/>
        <pt x="577" y="133" on="1"/>
        <pt x="793" y="546" on="1"/>
        <pt x="786" y="564" on="0"/>
        <pt x="734" y="564" on="1"/>
        <pt x="738" y="585" on="1"/>
        <pt x="902" y="585" on="1"/>
        <pt x="898" y="564" on="1"/>
        <pt x="842" y="564" on="0"/>
        <pt x="832" y="543" on="1"/>
        <pt x="547" y="0" on="1"/>
        <pt x="499" y="0" on="1"/>
        <pt x="432" y="349" on="1"/>
        <pt x="250" y="0" on="1"/>
        <pt x="202" y="0" on="1"/>
        <pt x="99" y="543" on="1"/>
        <pt x="94" y="564" on="0"/>
        <pt x="38" y="564" on="1"/>
        <pt x="42" y="585" on="1"/>
        <pt x="261" y="585" on="1"/>
        <pt x="257" y="564" on="1"/>
        <pt x="210" y="564" on="0"/>
        <pt x="197" y="552" on="1"/>
        <pt x="280" y="134" on="1"/>
        <pt x="422" y="405" on="1"/>
        <pt x="396" y="543" on="1"/>
        <pt x="392" y="564" on="0"/>
        <pt x="335" y="564" on="1"/>
        <pt x="339" y="585" on="1"/>
      </contour>
    </TTGlyph>
    <TTGlyph name="Wacute" xMin="38" yMin="0" xMax="902" yMax="782">
      <contour>
        <pt x="546" y="782" on="1"/>
        <pt x="652" y="782" on="1"/>
        <pt x="471" y="620" on="1"/>
        <pt x="445" y="620" on="1"/>
      </contour>
      <contour>
        <pt x="558" y="585" on="1"/>
        <pt x="554" y="564" on="1"/>
        <pt x="508" y="564" on="0"/>
        <pt x="494" y="552" on="1"/>
        <pt x="577" y="133" on="1"/>
        <pt x="793" y="546" on="1"/>
        <pt x="786" y="564" on="0"/>
        <pt x="734" y="564" on="1"/>
        <pt x="738" y="585" on="1"/>
        <pt x="902" y="585" on="1"/>
        <pt x="898" y="564" on="1"/>
        <pt x="842" y="564" on="0"/>
        <pt x="832" y="543" on="1"/>
        <pt x="547" y="0" on="1"/>
        <pt x="499" y="0" on="1"/>
        <pt x="432" y="349" on="1"/>
        <pt x="250" y="0" on="1"/>
        <pt x="202" y="0" on="1"/>
        <pt x="99" y="543" on="1"/>
        <pt x="94" y="564" on="0"/>
        <pt x="38" y="564" on="1"/>
        <pt x="42" y="585" on="1"/>
        <pt x="261" y="585" on="1"/>
        <pt x="257" y="564" on="1"/>
        <pt x="210" y="564" on="0"/>
        <pt x="197" y="552" on="1"/>
        <pt x="280" y="134" on="1"/>
        <pt x="422" y="405" on="1"/>
        <pt x="396" y="543" on="1"/>
        <pt x="392" y="564" on="0"/>
        <pt x="335" y="564" on="1"/>
        <pt x="339" y="585" on="1"/>
      </contour>
    </TTGlyph>
    <TTGlyph name="Wcircumflex" xMin="38" yMin="0" xMax="902" yMax="782">
      <contour>
        <pt x="510" y="782" on="1"/>
        <pt x="577" y="620" on="1"/>
        <pt x="551" y="620" on="1"/>
        <pt x="472" y="707" on="1"/>
        <pt x="365" y="620" on="1"/>
        <pt x="339" y="620" on="1"/>
        <pt x="460" y="782" on="1"/>
      </contour>
      <contour>
        <pt x="558" y="585" on="1"/>
        <pt x="554" y="564" on="1"/>
        <pt x="508" y="564" on="0"/>
        <pt x="494" y="552" on="1"/>
        <pt x="577" y="133" on="1"/>
        <pt x="793" y="546" on="1"/>
        <pt x="786" y="564" on="0"/>
        <pt x="734" y="564" on="1"/>
        <pt x="738" y="585" on="1"/>
        <pt x="902" y="585" on="1"/>
        <pt x="898" y="564" on="1"/>
        <pt x="842" y="564" on="0"/>
        <pt x="832" y="543" on="1"/>
        <pt x="547" y="0" on="1"/>
        <pt x="499" y="0" on="1"/>
        <pt x="432" y="349" on="1"/>
        <pt x="250" y="0" on="1"/>
        <pt x="202" y="0" on="1"/>
        <pt x="99" y="543" on="1"/>
        <pt x="94" y="564" on="0"/>
        <pt x="38" y="564" on="1"/>
        <pt x="42" y="585" on="1"/>
        <pt x="261" y="585" on="1"/>
        <pt x="257" y="564" on="1"/>
        <pt x="210" y="564" on="0"/>
        <pt x="197" y="552" on="1"/>
        <pt x="280" y="134" on="1"/>
        <pt x="422" y="405" on="1"/>
        <pt x="396" y="543" on="1"/>
        <pt x="392" y="564" on="0"/>
        <pt x="335" y="564" on="1"/>
        <pt x="339" y="585" on="1"/>
      </contour>
    </TTGlyph>
    <TTGlyph name="Wdieresis" xMin="38" yMin="0" xMax="902" yMax="718">
      <contour>
        <pt x="508" y="661" on="1"/>
        <pt x="508" y="684" on="0"/>
        <pt x="544" y="718" on="0"/>
        <pt x="566" y="718" on="1"/>
        <pt x="584" y="718" on="0"/>
        <pt x="608" y="694" on="0"/>
        <pt x="608" y="677" on="1"/>
        <pt x="608" y="654" on="0"/>
        <pt x="572" y="620" on="0"/>
        <pt x="550" y="620" on="1"/>
        <pt x="532" y="620" on="0"/>
        <pt x="508" y="644" on="0"/>
      </contour>
      <contour>
        <pt x="324" y="661" on="1"/>
        <pt x="324" y="684" on="0"/>
        <pt x="360" y="718" on="0"/>
        <pt x="382" y="718" on="1"/>
        <pt x="400" y="718" on="0"/>
        <pt x="424" y="694" on="0"/>
        <pt x="424" y="677" on="1"/>
        <pt x="424" y="654" on="0"/>
        <pt x="388" y="620" on="0"/>
        <pt x="366" y="620" on="1"/>
        <pt x="348" y="620" on="0"/>
        <pt x="324" y="644" on="0"/>
      </contour>
      <contour>
        <pt x="558" y="585" on="1"/>
        <pt x="554" y="564" on="1"/>
        <pt x="508" y="564" on="0"/>
        <pt x="494" y="552" on="1"/>
        <pt x="577" y="133" on="1"/>
        <pt x="793" y="546" on="1"/>
        <pt x="786" y="564" on="0"/>
        <pt x="734" y="564" on="1"/>
        <pt x="738" y="585" on="1"/>
        <pt x="902" y="585" on="1"/>
        <pt x="898" y="564" on="1"/>
        <pt x="842" y="564" on="0"/>
        <pt x="832" y="543" on="1"/>
        <pt x="547" y="0" on="1"/>
        <pt x="499" y="0" on="1"/>
        <pt x="432" y="349" on="1"/>
        <pt x="250" y="0" on="1"/>
        <pt x="202" y="0" on="1"/>
        <pt x="99" y="543" on="1"/>
        <pt x="94" y="564" on="0"/>
        <pt x="38" y="564" on="1"/>
        <pt x="42" y="585" on="1"/>
        <pt x="261" y="585" on="1"/>
        <pt x="257" y="564" on="1"/>
        <pt x="210" y="564" on="0"/>
        <pt x="197" y="552" on="1"/>
        <pt x="280" y="134" on="1"/>
        <pt x="422" y="405" on="1"/>
        <pt x="396" y="543" on="1"/>
        <pt x="392" y="564" on="0"/>
        <pt x="335" y="564" on="1"/>
        <pt x="339" y="585" on="1"/>
      </contour>
    </TTGlyph>
    <TTGlyph name="Wgrave" xMin="38" yMin="0" xMax="902" yMax="782">
      <contour>
        <pt x="437" y="782" on="1"/>
        <pt x="484" y="620" on="1"/>
        <pt x="458" y="620" on="1"/>
        <pt x="331" y="782" on="1"/>
      </contour>
      <contour>
        <pt x="558" y="585" on="1"/>
        <pt x="554" y="564" on="1"/>
        <pt x="508" y="564" on="0"/>
        <pt x="494" y="552" on="1"/>
        <pt x="577" y="133" on="1"/>
        <pt x="793" y="546" on="1"/>
        <pt x="786" y="564" on="0"/>
        <pt x="734" y="564" on="1"/>
        <pt x="738" y="585" on="1"/>
        <pt x="902" y="585" on="1"/>
        <pt x="898" y="564" on="1"/>
        <pt x="842" y="564" on="0"/>
        <pt x="832" y="543" on="1"/>
        <pt x="547" y="0" on="1"/>
        <pt x="499" y="0" on="1"/>
        <pt x="432" y="349" on="1"/>
        <pt x="250" y="0" on="1"/>
        <pt x="202" y="0" on="1"/>
        <pt x="99" y="543" on="1"/>
        <pt x="94" y="564" on="0"/>
        <pt x="38" y="564" on="1"/>
        <pt x="42" y="585" on="1"/>
        <pt x="261" y="585" on="1"/>
        <pt x="257" y="564" on="1"/>
        <pt x="210" y="564" on="0"/>
        <pt x="197" y="552" on="1"/>
        <pt x="280" y="134" on="1"/>
        <pt x="422" y="405" on="1"/>
        <pt x="396" y="543" on="1"/>
        <pt x="392" y="564" on="0"/>
        <pt x="335" y="564" on="1"/>
        <pt x="339" y="585" on="1"/>
      </contour>
    </TTGlyph>
    <TTGlyph name="X" xMin="-34" yMin="0" xMax="554" yMax="585">
      <contour>
        <pt x="281" y="585" on="1"/>
        <pt x="277" y="564" on="1"/>
        <pt x="230" y="564" on="0"/>
        <pt x="217" y="552" on="1"/>
        <pt x="294" y="361" on="1"/>
        <pt x="445" y="548" on="1"/>
        <pt x="438" y="564" on="0"/>
        <pt x="386" y="564" on="1"/>
        <pt x="390" y="585" on="1"/>
        <pt x="554" y="585" on="1"/>
        <pt x="550" y="564" on="1"/>
        <pt x="502" y="564" on="0"/>
        <pt x="488" y="547" on="1"/>
        <pt x="309" y="326" on="1"/>
        <pt x="424" y="42" on="1"/>
        <pt x="432" y="21" on="0"/>
        <pt x="485" y="21" on="1"/>
        <pt x="481" y="0" on="1"/>
        <pt x="262" y="0" on="1"/>
        <pt x="266" y="21" on="1"/>
        <pt x="313" y="21" on="0"/>
        <pt x="326" y="33" on="1"/>
        <pt x="241" y="242" on="1"/>
        <pt x="75" y="37" on="1"/>
        <pt x="82" y="21" on="0"/>
        <pt x="134" y="21" on="1"/>
        <pt x="130" y="0" on="1"/>
        <pt x="-34" y="0" on="1"/>
        <pt x="-30" y="21" on="1"/>
        <pt x="20" y="21" on="0"/>
        <pt x="37" y="43" on="1"/>
        <pt x="226" y="277" on="1"/>
        <pt x="119" y="544" on="1"/>
        <pt x="110" y="564" on="0"/>
        <pt x="58" y="564" on="1"/>
        <pt x="62" y="585" on="1"/>
      </contour>
    </TTGlyph>
    <TTGlyph name="Y" xMin="40" yMin="0" xMax="622" yMax="585">
      <contour>
        <pt x="263" y="585" on="1"/>
        <pt x="259" y="564" on="1"/>
        <pt x="212" y="564" on="0"/>
        <pt x="199" y="552" on="1"/>
        <pt x="309" y="281" on="1"/>
        <pt x="513" y="546" on="1"/>
        <pt x="506" y="564" on="0"/>
        <pt x="454" y="564" on="1"/>
        <pt x="458" y="585" on="1"/>
        <pt x="622" y="585" on="1"/>
        <pt x="618" y="564" on="1"/>
        <pt x="575" y="564" on="0"/>
        <pt x="559" y="551" on="1"/>
        <pt x="329" y="252" on="1"/>
        <pt x="294" y="41" on="1"/>
        <pt x="300" y="21" on="0"/>
        <pt x="354" y="21" on="1"/>
        <pt x="350" y="0" on="1"/>
        <pt x="132" y="0" on="1"/>
        <pt x="136" y="21" on="1"/>
        <pt x="191" y="21" on="0"/>
        <pt x="202" y="41" on="1"/>
        <pt x="232" y="220" on="1"/>
        <pt x="101" y="544" on="1"/>
        <pt x="90" y="564" on="0"/>
        <pt x="40" y="564" on="1"/>
        <pt x="44" y="585" on="1"/>
      </contour>
    </TTGlyph>
    <TTGlyph name="Yacute" xMin="40" yMin="0" xMax="622" yMax="782">
      <component glyphName="acutecomb" x="538" y="120" flags="0x1004"/>
      <component glyphName="Y" x="0" y="0" flags="0x1204"/>
    </TTGlyph>
    <TTGlyph name="Ycircumflex" xMin="40" yMin="0" xMax="622" yMax="782">
      <contour>
        <pt x="419" y="782" on="1"/>
        <pt x="486" y="620" on="1"/>
        <pt x="460" y="620" on="1"/>
        <pt x="381" y="707" on="1"/>
        <pt x="274" y="620" on="1"/>
        <pt x="248" y="620" on="1"/>
        <pt x="369" y="782" on="1"/>
      </contour>
      <contour>
        <pt x="263" y="585" on="1"/>
        <pt x="259" y="564" on="1"/>
        <pt x="212" y="564" on="0"/>
        <pt x="199" y="552" on="1"/>
        <pt x="309" y="281" on="1"/>
        <pt x="513" y="546" on="1"/>
        <pt x="506" y="564" on="0"/>
        <pt x="454" y="564" on="1"/>
        <pt x="458" y="585" on="1"/>
        <pt x="622" y="585" on="1"/>
        <pt x="618" y="564" on="1"/>
        <pt x="575" y="564" on="0"/>
        <pt x="559" y="551" on="1"/>
        <pt x="329" y="252" on="1"/>
        <pt x="294" y="41" on="1"/>
        <pt x="300" y="21" on="0"/>
        <pt x="354" y="21" on="1"/>
        <pt x="350" y="0" on="1"/>
        <pt x="132" y="0" on="1"/>
        <pt x="136" y="21" on="1"/>
        <pt x="191" y="21" on="0"/>
        <pt x="202" y="41" on="1"/>
        <pt x="232" y="220" on="1"/>
        <pt x="101" y="544" on="1"/>
        <pt x="90" y="564" on="0"/>
        <pt x="40" y="564" on="1"/>
        <pt x="44" y="585" on="1"/>
      </contour>
    </TTGlyph>
    <TTGlyph name="Ydieresis" xMin="40" yMin="0" xMax="622" yMax="718">
      <contour>
        <pt x="417" y="661" on="1"/>
        <pt x="417" y="684" on="0"/>
        <pt x="453" y="718" on="0"/>
        <pt x="475" y="718" on="1"/>
        <pt x="493" y="718" on="0"/>
        <pt x="517" y="694" on="0"/>
        <pt x="517" y="677" on="1"/>
        <pt x="517" y="654" on="0"/>
        <pt x="481" y="620" on="0"/>
        <pt x="459" y="620" on="1"/>
        <pt x="441" y="620" on="0"/>
        <pt x="417" y="644" on="0"/>
      </contour>
      <contour>
        <pt x="233" y="661" on="1"/>
        <pt x="233" y="684" on="0"/>
        <pt x="269" y="718" on="0"/>
        <pt x="291" y="718" on="1"/>
        <pt x="309" y="718" on="0"/>
        <pt x="333" y="694" on="0"/>
        <pt x="333" y="677" on="1"/>
        <pt x="333" y="654" on="0"/>
        <pt x="297" y="620" on="0"/>
        <pt x="275" y="620" on="1"/>
        <pt x="257" y="620" on="0"/>
        <pt x="233" y="644" on="0"/>
      </contour>
      <contour>
        <pt x="263" y="585" on="1"/>
        <pt x="259" y="564" on="1"/>
        <pt x="212" y="564" on="0"/>
        <pt x="199" y="552" on="1"/>
        <pt x="309" y="281" on="1"/>
        <pt x="513" y="546" on="1"/>
        <pt x="506" y="564" on="0"/>
        <pt x="454" y="564" on="1"/>
        <pt x="458" y="585" on="1"/>
        <pt x="622" y="585" on="1"/>
        <pt x="618" y="564" on="1"/>
        <pt x="575" y="564" on="0"/>
        <pt x="559" y="551" on="1"/>
        <pt x="329" y="252" on="1"/>
        <pt x="294" y="41" on="1"/>
        <pt x="300" y="21" on="0"/>
        <pt x="354" y="21" on="1"/>
        <pt x="350" y="0" on="1"/>
        <pt x="132" y="0" on="1"/>
        <pt x="136" y="21" on="1"/>
        <pt x="191" y="21" on="0"/>
        <pt x="202" y="41" on="1"/>
        <pt x="232" y="220" on="1"/>
        <pt x="101" y="544" on="1"/>
        <pt x="90" y="564" on="0"/>
        <pt x="40" y="564" on="1"/>
        <pt x="44" y="585" on="1"/>
      </contour>
    </TTGlyph>
    <TTGlyph name="Ygrave" xMin="40" yMin="0" xMax="622" yMax="782">
      <contour>
        <pt x="346" y="782" on="1"/>
        <pt x="393" y="620" on="1"/>
        <pt x="367" y="620" on="1"/>
        <pt x="240" y="782" on="1"/>
      </contour>
      <contour>
        <pt x="263" y="585" on="1"/>
        <pt x="259" y="564" on="1"/>
        <pt x="212" y="564" on="0"/>
        <pt x="199" y="552" on="1"/>
        <pt x="309" y="281" on="1"/>
        <pt x="513" y="546" on="1"/>
        <pt x="506" y="564" on="0"/>
        <pt x="454" y="564" on="1"/>
        <pt x="458" y="585" on="1"/>
        <pt x="622" y="585" on="1"/>
        <pt x="618" y="564" on="1"/>
        <pt x="575" y="564" on="0"/>
        <pt x="559" y="551" on="1"/>
        <pt x="329" y="252" on="1"/>
        <pt x="294" y="41" on="1"/>
        <pt x="300" y="21" on="0"/>
        <pt x="354" y="21" on="1"/>
        <pt x="350" y="0" on="1"/>
        <pt x="132" y="0" on="1"/>
        <pt x="136" y="21" on="1"/>
        <pt x="191" y="21" on="0"/>
        <pt x="202" y="41" on="1"/>
        <pt x="232" y="220" on="1"/>
        <pt x="101" y="544" on="1"/>
        <pt x="90" y="564" on="0"/>
        <pt x="40" y="564" on="1"/>
        <pt x="44" y="585" on="1"/>
      </contour>
    </TTGlyph>
    <TTGlyph name="Z" xMin="-23" yMin="0" xMax="512" yMax="585">
      <contour>
        <pt x="409" y="0" on="1"/>
        <pt x="-23" y="0" on="1"/>
        <pt x="388" y="555" on="1"/>
        <pt x="145" y="555" on="1"/>
        <pt x="123" y="546" on="0"/>
        <pt x="114" y="492" on="1"/>
        <pt x="93" y="492" on="1"/>
        <pt x="109" y="585" on="1"/>
        <pt x="512" y="585" on="1"/>
        <pt x="101" y="30" on="1"/>
        <pt x="373" y="30" on="1"/>
        <pt x="406" y="43" on="0"/>
        <pt x="430" y="96" on="1"/>
        <pt x="451" y="96" on="1"/>
      </contour>
    </TTGlyph>
    <TTGlyph name="Zacute" xMin="-23" yMin="0" xMax="512" yMax="782">
      <contour>
        <pt x="399" y="782" on="1"/>
        <pt x="505" y="782" on="1"/>
        <pt x="324" y="620" on="1"/>
        <pt x="298" y="620" on="1"/>
      </contour>
      <contour>
        <pt x="409" y="0" on="1"/>
        <pt x="-23" y="0" on="1"/>
        <pt x="388" y="555" on="1"/>
        <pt x="145" y="555" on="1"/>
        <pt x="123" y="546" on="0"/>
        <pt x="114" y="492" on="1"/>
        <pt x="93" y="492" on="1"/>
        <pt x="109" y="585" on="1"/>
        <pt x="512" y="585" on="1"/>
        <pt x="101" y="30" on="1"/>
        <pt x="373" y="30" on="1"/>
        <pt x="406" y="43" on="0"/>
        <pt x="430" y="96" on="1"/>
        <pt x="451" y="96" on="1"/>
      </contour>
    </TTGlyph>
    <TTGlyph name="Zcaron" xMin="-23" yMin="0" xMax="512" yMax="782">
      <contour>
        <pt x="287" y="620" on="1"/>
        <pt x="220" y="782" on="1"/>
        <pt x="246" y="782" on="1"/>
        <pt x="324" y="695" on="1"/>
        <pt x="432" y="782" on="1"/>
        <pt x="458" y="782" on="1"/>
        <pt x="337" y="620" on="1"/>
      </contour>
      <contour>
        <pt x="409" y="0" on="1"/>
        <pt x="-23" y="0" on="1"/>
        <pt x="388" y="555" on="1"/>
        <pt x="145" y="555" on="1"/>
        <pt x="123" y="546" on="0"/>
        <pt x="114" y="492" on="1"/>
        <pt x="93" y="492" on="1"/>
        <pt x="109" y="585" on="1"/>
        <pt x="512" y="585" on="1"/>
        <pt x="101" y="30" on="1"/>
        <pt x="373" y="30" on="1"/>
        <pt x="406" y="43" on="0"/>
        <pt x="430" y="96" on="1"/>
        <pt x="451" y="96" on="1"/>
      </contour>
    </TTGlyph>
    <TTGlyph name="Zdotaccent" xMin="-23" yMin="0" xMax="512" yMax="723">
      <contour>
        <pt x="268" y="664" on="1"/>
        <pt x="268" y="689" on="0"/>
        <pt x="305" y="723" on="0"/>
        <pt x="328" y="723" on="1"/>
        <pt x="347" y="723" on="0"/>
        <pt x="371" y="698" on="0"/>
        <pt x="371" y="680" on="1"/>
        <pt x="371" y="655" on="0"/>
        <pt x="334" y="621" on="0"/>
        <pt x="311" y="621" on="1"/>
        <pt x="292" y="621" on="0"/>
        <pt x="268" y="646" on="0"/>
      </contour>
      <contour>
        <pt x="409" y="0" on="1"/>
        <pt x="-23" y="0" on="1"/>
        <pt x="388" y="555" on="1"/>
        <pt x="145" y="555" on="1"/>
        <pt x="123" y="546" on="0"/>
        <pt x="114" y="492" on="1"/>
        <pt x="93" y="492" on="1"/>
        <pt x="109" y="585" on="1"/>
        <pt x="512" y="585" on="1"/>
        <pt x="101" y="30" on="1"/>
        <pt x="373" y="30" on="1"/>
        <pt x="406" y="43" on="0"/>
        <pt x="430" y="96" on="1"/>
        <pt x="451" y="96" on="1"/>
      </contour>
    </TTGlyph>
    <TTGlyph name="a" xMin="6" yMin="-10" xMax="429" yMax="450">
      <contour>
        <pt x="160" y="336" on="1"/>
        <pt x="160" y="314" on="0"/>
        <pt x="130" y="290" on="0"/>
        <pt x="109" y="290" on="1"/>
        <pt x="93" y="290" on="0"/>
        <pt x="73" y="311" on="0"/>
        <pt x="73" y="328" on="1"/>
        <pt x="73" y="386" on="0"/>
        <pt x="176" y="450" on="0"/>
        <pt x="257" y="450" on="1"/>
        <pt x="337" y="450" on="0"/>
        <pt x="413" y="379" on="0"/>
        <pt x="413" y="320" on="1"/>
        <pt x="413" y="308" on="0"/>
        <pt x="409" y="282" on="1"/>
        <pt x="380" y="106" on="1"/>
        <pt x="378" y="90" on="0"/>
        <pt x="378" y="84" on="1"/>
        <pt x="378" y="55" on="0"/>
        <pt x="405" y="23" on="0"/>
        <pt x="429" y="23" on="1"/>
        <pt x="425" y="0" on="1"/>
        <pt x="326" y="0" on="0"/>
        <pt x="298" y="37" on="1"/>
        <pt x="228" y="-10" on="0"/>
        <pt x="138" y="-10" on="1"/>
        <pt x="6" y="-10" on="0"/>
        <pt x="6" y="83" on="1"/>
        <pt x="6" y="109" on="0"/>
        <pt x="27" y="152" on="0"/>
        <pt x="67" y="181" on="0"/>
        <pt x="112" y="203" on="0"/>
        <pt x="174" y="220" on="0"/>
        <pt x="226" y="232" on="0"/>
        <pt x="293" y="246" on="0"/>
        <pt x="314" y="252" on="1"/>
        <pt x="321" y="301" on="0"/>
        <pt x="321" y="325" on="1"/>
        <pt x="321" y="368" on="0"/>
        <pt x="277" y="414" on="0"/>
        <pt x="241" y="414" on="1"/>
        <pt x="152" y="414" on="0"/>
        <pt x="131" y="366" on="1"/>
        <pt x="160" y="366" on="0"/>
      </contour>
      <contour>
        <pt x="310" y="230" on="1"/>
        <pt x="297" y="226" on="0"/>
        <pt x="234" y="210" on="0"/>
        <pt x="199" y="199" on="0"/>
        <pt x="148" y="176" on="0"/>
        <pt x="120" y="150" on="0"/>
        <pt x="99" y="108" on="0"/>
        <pt x="99" y="81" on="1"/>
        <pt x="99" y="24" on="0"/>
        <pt x="161" y="24" on="1"/>
        <pt x="230" y="24" on="0"/>
        <pt x="288" y="58" on="1"/>
        <pt x="286" y="68" on="0"/>
        <pt x="286" y="82" on="0"/>
        <pt x="288" y="96" on="1"/>
      </contour>
    </TTGlyph>
    <TTGlyph name="aacute" xMin="6" yMin="-10" xMax="460" yMax="677">
      <component glyphName="acutecomb" x="436" y="15" flags="0x1004"/>
      <component glyphName="a" x="0" y="0" flags="0x1204"/>
    </TTGlyph>
    <TTGlyph name="abreve" xMin="6" yMin="-10" xMax="429" yMax="649">
      <contour>
        <pt x="267" y="525" on="1"/>
        <pt x="213" y="525" on="0"/>
        <pt x="161" y="590" on="0"/>
        <pt x="161" y="631" on="1"/>
        <pt x="161" y="643" on="0"/>
        <pt x="162" y="649" on="1"/>
        <pt x="190" y="649" on="1"/>
        <pt x="190" y="644" on="1"/>
        <pt x="190" y="625" on="0"/>
        <pt x="235" y="597" on="0"/>
        <pt x="279" y="597" on="1"/>
        <pt x="326" y="597" on="0"/>
        <pt x="383" y="628" on="0"/>
        <pt x="386" y="649" on="1"/>
        <pt x="414" y="649" on="1"/>
        <pt x="407" y="605" on="0"/>
        <pt x="329" y="525" on="0"/>
      </contour>
      <contour>
        <pt x="160" y="336" on="1"/>
        <pt x="160" y="314" on="0"/>
        <pt x="130" y="290" on="0"/>
        <pt x="109" y="290" on="1"/>
        <pt x="93" y="290" on="0"/>
        <pt x="73" y="311" on="0"/>
        <pt x="73" y="328" on="1"/>
        <pt x="73" y="386" on="0"/>
        <pt x="176" y="450" on="0"/>
        <pt x="257" y="450" on="1"/>
        <pt x="337" y="450" on="0"/>
        <pt x="413" y="379" on="0"/>
        <pt x="413" y="320" on="1"/>
        <pt x="413" y="308" on="0"/>
        <pt x="409" y="282" on="1"/>
        <pt x="380" y="106" on="1"/>
        <pt x="378" y="90" on="0"/>
        <pt x="378" y="84" on="1"/>
        <pt x="378" y="55" on="0"/>
        <pt x="405" y="23" on="0"/>
        <pt x="429" y="23" on="1"/>
        <pt x="425" y="0" on="1"/>
        <pt x="326" y="0" on="0"/>
        <pt x="298" y="37" on="1"/>
        <pt x="228" y="-10" on="0"/>
        <pt x="138" y="-10" on="1"/>
        <pt x="6" y="-10" on="0"/>
        <pt x="6" y="83" on="1"/>
        <pt x="6" y="109" on="0"/>
        <pt x="27" y="152" on="0"/>
        <pt x="67" y="181" on="0"/>
        <pt x="112" y="203" on="0"/>
        <pt x="174" y="220" on="0"/>
        <pt x="226" y="232" on="0"/>
        <pt x="293" y="246" on="0"/>
        <pt x="314" y="252" on="1"/>
        <pt x="321" y="301" on="0"/>
        <pt x="321" y="325" on="1"/>
        <pt x="321" y="368" on="0"/>
        <pt x="277" y="414" on="0"/>
        <pt x="241" y="414" on="1"/>
        <pt x="152" y="414" on="0"/>
        <pt x="131" y="366" on="1"/>
        <pt x="160" y="366" on="0"/>
      </contour>
      <contour>
        <pt x="310" y="230" on="1"/>
        <pt x="297" y="226" on="0"/>
        <pt x="234" y="210" on="0"/>
        <pt x="199" y="199" on="0"/>
        <pt x="148" y="176" on="0"/>
        <pt x="120" y="150" on="0"/>
        <pt x="99" y="108" on="0"/>
        <pt x="99" y="81" on="1"/>
        <pt x="99" y="24" on="0"/>
        <pt x="161" y="24" on="1"/>
        <pt x="230" y="24" on="0"/>
        <pt x="288" y="58" on="1"/>
        <pt x="286" y="68" on="0"/>
        <pt x="286" y="82" on="0"/>
        <pt x="288" y="96" on="1"/>
      </contour>
    </TTGlyph>
    <TTGlyph name="acircumflex" xMin="6" yMin="-10" xMax="429" yMax="677">
      <component glyphName="uni0302" x="436" y="15" flags="0x1004"/>
      <component glyphName="a" x="0" y="0" flags="0x1204"/>
    </TTGlyph>
    <TTGlyph name="acute" xMin="144" yMin="500" xMax="351" yMax="662">
      <contour>
        <pt x="245" y="662" on="1"/>
        <pt x="351" y="662" on="1"/>
        <pt x="170" y="500" on="1"/>
        <pt x="144" y="500" on="1"/>
      </contour>
    </TTGlyph>
    <TTGlyph name="acutecomb" xMin="-183" yMin="500" xMax="24" yMax="662">
      <contour>
        <pt x="-82" y="662" on="1"/>
        <pt x="24" y="662" on="1"/>
        <pt x="-157" y="500" on="1"/>
        <pt x="-183" y="500" on="1"/>
      </contour>
    </TTGlyph>
    <TTGlyph name="adieresis" xMin="6" yMin="-10" xMax="429" yMax="613">
      <component glyphName="uni0308" x="436" y="15" flags="0x1004"/>
      <component glyphName="a" x="0" y="0" flags="0x1204"/>
    </TTGlyph>
    <TTGlyph name="ae" xMin="6" yMin="-10" xMax="733" yMax="450">
      <contour>
        <pt x="406" y="239" on="1"/>
        <pt x="555" y="259" on="1"/>
        <pt x="598" y="266" on="0"/>
        <pt x="643" y="298" on="0"/>
        <pt x="643" y="330" on="1"/>
        <pt x="643" y="364" on="0"/>
        <pt x="596" y="420" on="0"/>
        <pt x="543" y="420" on="1"/>
        <pt x="502" y="420" on="0"/>
        <pt x="419" y="318" on="0"/>
      </contour>
      <contour>
        <pt x="160" y="335" on="1"/>
        <pt x="160" y="313" on="0"/>
        <pt x="129" y="290" on="0"/>
        <pt x="108" y="290" on="1"/>
        <pt x="92" y="290" on="0"/>
        <pt x="73" y="311" on="0"/>
        <pt x="73" y="328" on="1"/>
        <pt x="73" y="387" on="0"/>
        <pt x="176" y="450" on="0"/>
        <pt x="257" y="450" on="1"/>
        <pt x="357" y="450" on="0"/>
        <pt x="393" y="394" on="1"/>
        <pt x="457" y="450" on="0"/>
        <pt x="552" y="450" on="1"/>
        <pt x="645" y="450" on="0"/>
        <pt x="733" y="367" on="0"/>
        <pt x="733" y="316" on="1"/>
        <pt x="733" y="285" on="0"/>
        <pt x="682" y="246" on="0"/>
        <pt x="597" y="234" on="1"/>
        <pt x="404" y="208" on="1"/>
        <pt x="404" y="133" on="0"/>
        <pt x="473" y="28" on="0"/>
        <pt x="526" y="28" on="1"/>
        <pt x="614" y="28" on="0"/>
        <pt x="677" y="94" on="1"/>
        <pt x="699" y="82" on="1"/>
        <pt x="662" y="35" on="0"/>
        <pt x="562" y="-10" on="0"/>
        <pt x="485" y="-10" on="1"/>
        <pt x="387" y="-10" on="0"/>
        <pt x="339" y="55" on="1"/>
        <pt x="277" y="-10" on="0"/>
        <pt x="138" y="-10" on="1"/>
        <pt x="6" y="-10" on="0"/>
        <pt x="6" y="83" on="1"/>
        <pt x="6" y="119" on="0"/>
        <pt x="44" y="172" on="0"/>
        <pt x="119" y="204" on="0"/>
        <pt x="185" y="223" on="0"/>
        <pt x="289" y="244" on="0"/>
        <pt x="313" y="251" on="1"/>
        <pt x="321" y="286" on="0"/>
        <pt x="321" y="325" on="1"/>
        <pt x="321" y="371" on="0"/>
        <pt x="284" y="414" on="0"/>
        <pt x="241" y="414" on="1"/>
        <pt x="152" y="414" on="0"/>
        <pt x="131" y="366" on="1"/>
        <pt x="160" y="366" on="0"/>
      </contour>
      <contour>
        <pt x="309" y="230" on="1"/>
        <pt x="275" y="224" on="0"/>
        <pt x="231" y="214" on="0"/>
        <pt x="166" y="191" on="0"/>
        <pt x="127" y="162" on="0"/>
        <pt x="98" y="113" on="0"/>
        <pt x="98" y="82" on="1"/>
        <pt x="98" y="24" on="0"/>
        <pt x="161" y="24" on="1"/>
        <pt x="270" y="24" on="0"/>
        <pt x="327" y="73" on="1"/>
        <pt x="305" y="114" on="0"/>
        <pt x="305" y="175" on="1"/>
        <pt x="305" y="206" on="0"/>
      </contour>
    </TTGlyph>
    <TTGlyph name="afii00208" xMin="70" yMin="296" xMax="801" yMax="340">
      <contour>
        <pt x="77" y="340" on="1"/>
        <pt x="801" y="340" on="1"/>
        <pt x="794" y="296" on="1"/>
        <pt x="70" y="296" on="1"/>
      </contour>
    </TTGlyph>
    <TTGlyph name="afii57929" xMin="143" yMin="455" xMax="289" yMax="665">
      <contour>
        <pt x="156" y="613" on="1"/>
        <pt x="156" y="642" on="0"/>
        <pt x="195" y="665" on="0"/>
        <pt x="211" y="665" on="1"/>
        <pt x="245" y="665" on="0"/>
        <pt x="289" y="627" on="0"/>
        <pt x="289" y="594" on="1"/>
        <pt x="289" y="562" on="0"/>
        <pt x="255" y="509" on="0"/>
        <pt x="200" y="477" on="0"/>
        <pt x="163" y="461" on="0"/>
        <pt x="143" y="455" on="1"/>
        <pt x="148" y="483" on="1"/>
        <pt x="174" y="486" on="0"/>
        <pt x="234" y="535" on="0"/>
        <pt x="240" y="566" on="1"/>
        <pt x="242" y="578" on="0"/>
        <pt x="242" y="589" on="0"/>
        <pt x="239" y="591" on="0"/>
        <pt x="234" y="591" on="1"/>
        <pt x="231" y="591" on="0"/>
        <pt x="212" y="578" on="0"/>
        <pt x="201" y="578" on="1"/>
        <pt x="156" y="578" on="0"/>
      </contour>
    </TTGlyph>
    <TTGlyph name="afii61352" xMin="2" yMin="0" xMax="787" yMax="585">
      <contour>
        <pt x="2" y="0" on="1"/>
        <pt x="6" y="21" on="1"/>
        <pt x="61" y="21" on="0"/>
        <pt x="72" y="41" on="1"/>
        <pt x="156" y="544" on="1"/>
        <pt x="150" y="564" on="0"/>
        <pt x="96" y="564" on="1"/>
        <pt x="100" y="585" on="1"/>
        <pt x="234" y="585" on="1"/>
        <pt x="418" y="188" on="1"/>
        <pt x="478" y="544" on="1"/>
        <pt x="472" y="564" on="0"/>
        <pt x="418" y="564" on="1"/>
        <pt x="422" y="585" on="1"/>
        <pt x="582" y="585" on="1"/>
        <pt x="578" y="564" on="1"/>
        <pt x="523" y="564" on="0"/>
        <pt x="512" y="544" on="1"/>
        <pt x="421" y="0" on="1"/>
        <pt x="412" y="0" on="1"/>
        <pt x="181" y="491" on="1"/>
        <pt x="106" y="41" on="1"/>
        <pt x="112" y="21" on="0"/>
        <pt x="166" y="21" on="1"/>
        <pt x="162" y="0" on="1"/>
      </contour>
      <contour>
        <pt x="646" y="215" on="1"/>
        <pt x="594" y="215" on="0"/>
        <pt x="540" y="269" on="0"/>
        <pt x="540" y="313" on="1"/>
        <pt x="540" y="375" on="0"/>
        <pt x="616" y="455" on="0"/>
        <pt x="682" y="455" on="1"/>
        <pt x="787" y="455" on="0"/>
        <pt x="787" y="362" on="1"/>
        <pt x="787" y="298" on="0"/>
        <pt x="713" y="215" on="0"/>
      </contour>
      <contour>
        <pt x="670" y="429" on="1"/>
        <pt x="639" y="429" on="0"/>
        <pt x="599" y="357" on="0"/>
        <pt x="599" y="312" on="1"/>
        <pt x="599" y="240" on="0"/>
        <pt x="656" y="240" on="1"/>
        <pt x="689" y="240" on="0"/>
        <pt x="728" y="312" on="0"/>
        <pt x="728" y="361" on="1"/>
        <pt x="728" y="429" on="0"/>
      </contour>
      <contour>
        <pt x="512" y="155" on="1"/>
        <pt x="755" y="155" on="1"/>
        <pt x="751" y="129" on="1"/>
        <pt x="508" y="129" on="1"/>
      </contour>
    </TTGlyph>
    <TTGlyph name="agrave" xMin="6" yMin="-10" xMax="429" yMax="677">
      <component glyphName="gravecomb" x="436" y="15" flags="0x1004"/>
      <component glyphName="a" x="0" y="0" flags="0x1204"/>
    </TTGlyph>
    <TTGlyph name="amacron" xMin="6" yMin="-10" xMax="429" yMax="573">
      <contour>
        <pt x="137" y="573" on="1"/>
        <pt x="401" y="573" on="1"/>
        <pt x="394" y="529" on="1"/>
        <pt x="130" y="529" on="1"/>
      </contour>
      <contour>
        <pt x="160" y="336" on="1"/>
        <pt x="160" y="314" on="0"/>
        <pt x="130" y="290" on="0"/>
        <pt x="109" y="290" on="1"/>
        <pt x="93" y="290" on="0"/>
        <pt x="73" y="311" on="0"/>
        <pt x="73" y="328" on="1"/>
        <pt x="73" y="386" on="0"/>
        <pt x="176" y="450" on="0"/>
        <pt x="257" y="450" on="1"/>
        <pt x="337" y="450" on="0"/>
        <pt x="413" y="379" on="0"/>
        <pt x="413" y="320" on="1"/>
        <pt x="413" y="308" on="0"/>
        <pt x="409" y="282" on="1"/>
        <pt x="380" y="106" on="1"/>
        <pt x="378" y="90" on="0"/>
        <pt x="378" y="84" on="1"/>
        <pt x="378" y="55" on="0"/>
        <pt x="405" y="23" on="0"/>
        <pt x="429" y="23" on="1"/>
        <pt x="425" y="0" on="1"/>
        <pt x="326" y="0" on="0"/>
        <pt x="298" y="37" on="1"/>
        <pt x="228" y="-10" on="0"/>
        <pt x="138" y="-10" on="1"/>
        <pt x="6" y="-10" on="0"/>
        <pt x="6" y="83" on="1"/>
        <pt x="6" y="109" on="0"/>
        <pt x="27" y="152" on="0"/>
        <pt x="67" y="181" on="0"/>
        <pt x="112" y="203" on="0"/>
        <pt x="174" y="220" on="0"/>
        <pt x="226" y="232" on="0"/>
        <pt x="293" y="246" on="0"/>
        <pt x="314" y="252" on="1"/>
        <pt x="321" y="301" on="0"/>
        <pt x="321" y="325" on="1"/>
        <pt x="321" y="368" on="0"/>
        <pt x="277" y="414" on="0"/>
        <pt x="241" y="414" on="1"/>
        <pt x="152" y="414" on="0"/>
        <pt x="131" y="366" on="1"/>
        <pt x="160" y="366" on="0"/>
      </contour>
      <contour>
        <pt x="310" y="230" on="1"/>
        <pt x="297" y="226" on="0"/>
        <pt x="234" y="210" on="0"/>
        <pt x="199" y="199" on="0"/>
        <pt x="148" y="176" on="0"/>
        <pt x="120" y="150" on="0"/>
        <pt x="99" y="108" on="0"/>
        <pt x="99" y="81" on="1"/>
        <pt x="99" y="24" on="0"/>
        <pt x="161" y="24" on="1"/>
        <pt x="230" y="24" on="0"/>
        <pt x="288" y="58" on="1"/>
        <pt x="286" y="68" on="0"/>
        <pt x="286" y="82" on="0"/>
        <pt x="288" y="96" on="1"/>
      </contour>
    </TTGlyph>
    <TTGlyph name="ampersand" xMin="-1" yMin="-10" xMax="584" yMax="595">
      <contour>
        <pt x="374" y="560" on="0"/>
        <pt x="304" y="560" on="0"/>
        <pt x="269" y="490" on="0"/>
        <pt x="269" y="435" on="1"/>
        <pt x="269" y="403" on="0"/>
        <pt x="277" y="357" on="1"/>
        <pt x="326" y="389" on="0"/>
        <pt x="374" y="451" on="0"/>
        <pt x="374" y="500" on="1"/>
      </contour>
      <contour>
        <pt x="584" y="345" on="1"/>
        <pt x="580" y="324" on="1"/>
        <pt x="523" y="324" on="0"/>
        <pt x="514" y="305" on="1"/>
        <pt x="442" y="156" on="0"/>
        <pt x="382" y="90" on="1"/>
        <pt x="416" y="44" on="0"/>
        <pt x="445" y="44" on="1"/>
        <pt x="483" y="44" on="0"/>
        <pt x="515" y="58" on="0"/>
        <pt x="535" y="81" on="1"/>
        <pt x="545" y="71" on="1"/>
        <pt x="501" y="-10" on="0"/>
        <pt x="428" y="-10" on="1"/>
        <pt x="371" y="-10" on="0"/>
        <pt x="323" y="36" on="1"/>
        <pt x="257" y="-10" on="0"/>
        <pt x="183" y="-10" on="1"/>
        <pt x="-1" y="-10" on="0"/>
        <pt x="-1" y="100" on="1"/>
        <pt x="-1" y="138" on="0"/>
        <pt x="30" y="200" on="0"/>
        <pt x="87" y="249" on="0"/>
        <pt x="145" y="284" on="0"/>
        <pt x="184" y="305" on="1"/>
        <pt x="193" y="310" on="0"/>
        <pt x="198" y="312" on="1"/>
        <pt x="187" y="368" on="0"/>
        <pt x="187" y="424" on="1"/>
        <pt x="187" y="472" on="0"/>
        <pt x="213" y="542" on="0"/>
        <pt x="256" y="578" on="0"/>
        <pt x="301" y="595" on="0"/>
        <pt x="325" y="595" on="1"/>
        <pt x="369" y="595" on="0"/>
        <pt x="417" y="541" on="0"/>
        <pt x="417" y="501" on="1"/>
        <pt x="417" y="444" on="0"/>
        <pt x="346" y="361" on="0"/>
        <pt x="285" y="320" on="1"/>
        <pt x="313" y="201" on="0"/>
        <pt x="365" y="116" on="1"/>
        <pt x="412" y="175" on="0"/>
        <pt x="475" y="308" on="1"/>
        <pt x="468" y="324" on="0"/>
        <pt x="416" y="324" on="1"/>
        <pt x="420" y="345" on="1"/>
      </contour>
      <contour>
        <pt x="304" y="57" on="1"/>
        <pt x="241" y="132" on="0"/>
        <pt x="208" y="269" on="1"/>
        <pt x="153" y="232" on="0"/>
        <pt x="103" y="172" on="0"/>
        <pt x="103" y="122" on="1"/>
        <pt x="103" y="32" on="0"/>
        <pt x="227" y="32" on="1"/>
        <pt x="266" y="32" on="0"/>
      </contour>
    </TTGlyph>
    <TTGlyph name="aogonek" xMin="7" yMin="-200" xMax="458" yMax="450">
      <contour>
        <pt x="311" y="230" on="1"/>
        <pt x="298" y="226" on="0"/>
        <pt x="235" y="210" on="0"/>
        <pt x="200" y="199" on="0"/>
        <pt x="149" y="176" on="0"/>
        <pt x="121" y="150" on="0"/>
        <pt x="100" y="108" on="0"/>
        <pt x="100" y="81" on="1"/>
        <pt x="100" y="24" on="0"/>
        <pt x="162" y="24" on="1"/>
        <pt x="231" y="24" on="0"/>
        <pt x="289" y="58" on="1"/>
        <pt x="287" y="68" on="0"/>
        <pt x="287" y="82" on="0"/>
        <pt x="289" y="96" on="1"/>
      </contour>
      <contour>
        <pt x="161" y="336" on="1"/>
        <pt x="160" y="336" on="1"/>
        <pt x="160" y="314" on="0"/>
        <pt x="130" y="290" on="0"/>
        <pt x="109" y="290" on="1"/>
        <pt x="93" y="290" on="0"/>
        <pt x="73" y="311" on="0"/>
        <pt x="73" y="328" on="1"/>
        <pt x="73" y="386" on="0"/>
        <pt x="176" y="450" on="0"/>
        <pt x="257" y="450" on="1"/>
        <pt x="337" y="450" on="0"/>
        <pt x="413" y="379" on="0"/>
        <pt x="413" y="320" on="1"/>
        <pt x="413" y="308" on="0"/>
        <pt x="409" y="282" on="1"/>
        <pt x="380" y="106" on="1"/>
        <pt x="378" y="90" on="0"/>
        <pt x="378" y="84" on="1"/>
        <pt x="378" y="55" on="0"/>
        <pt x="405" y="23" on="0"/>
        <pt x="429" y="23" on="1"/>
        <pt x="425" y="0" on="1"/>
        <pt x="409" y="0" on="0"/>
        <pt x="385" y="2" on="1"/>
        <pt x="344" y="-45" on="0"/>
        <pt x="344" y="-82" on="1"/>
        <pt x="344" y="-166" on="0"/>
        <pt x="416" y="-166" on="1"/>
        <pt x="422" y="-166" on="0"/>
        <pt x="439" y="-158" on="0"/>
        <pt x="444" y="-154" on="1"/>
        <pt x="450" y="-150" on="1"/>
        <pt x="458" y="-168" on="1"/>
        <pt x="433" y="-200" on="0"/>
        <pt x="374" y="-200" on="1"/>
        <pt x="288" y="-200" on="0"/>
        <pt x="288" y="-126" on="1"/>
        <pt x="288" y="-55" on="0"/>
        <pt x="363" y="6" on="1"/>
        <pt x="318" y="13" on="0"/>
        <pt x="299" y="37" on="1"/>
        <pt x="228" y="-10" on="0"/>
        <pt x="139" y="-10" on="1"/>
        <pt x="7" y="-10" on="0"/>
        <pt x="7" y="83" on="1"/>
        <pt x="7" y="109" on="0"/>
        <pt x="28" y="152" on="0"/>
        <pt x="68" y="181" on="0"/>
        <pt x="113" y="203" on="0"/>
        <pt x="175" y="220" on="0"/>
        <pt x="227" y="232" on="0"/>
        <pt x="294" y="246" on="0"/>
        <pt x="315" y="252" on="1"/>
        <pt x="322" y="301" on="0"/>
        <pt x="322" y="325" on="1"/>
        <pt x="322" y="368" on="0"/>
        <pt x="278" y="414" on="0"/>
        <pt x="242" y="414" on="1"/>
        <pt x="153" y="414" on="0"/>
        <pt x="132" y="366" on="1"/>
        <pt x="161" y="366" on="0"/>
      </contour>
    </TTGlyph>
    <TTGlyph name="aring" xMin="6" yMin="-10" xMax="429" yMax="658">
      <component glyphName="uni030A" x="436" y="15" flags="0x1004"/>
      <component glyphName="a" x="0" y="0" flags="0x1204"/>
    </TTGlyph>
    <TTGlyph name="asciicircum" xMin="108" yMin="316" xMax="464" yMax="540">
      <contour>
        <pt x="331" y="540" on="1"/>
        <pt x="464" y="344" on="1"/>
        <pt x="425" y="316" on="1"/>
        <pt x="310" y="488" on="1"/>
        <pt x="137" y="316" on="1"/>
        <pt x="108" y="344" on="1"/>
        <pt x="304" y="540" on="1"/>
      </contour>
    </TTGlyph>
    <TTGlyph name="asciitilde" xMin="54" yMin="208" xMax="505" yMax="340">
      <contour>
        <pt x="380" y="208" on="1"/>
        <pt x="351" y="208" on="0"/>
        <pt x="175" y="277" on="0"/>
        <pt x="157" y="277" on="1"/>
        <pt x="119" y="277" on="0"/>
        <pt x="86" y="243" on="0"/>
        <pt x="80" y="208" on="1"/>
        <pt x="54" y="208" on="1"/>
        <pt x="76" y="340" on="0"/>
        <pt x="178" y="340" on="1"/>
        <pt x="207" y="340" on="0"/>
        <pt x="383" y="271" on="0"/>
        <pt x="401" y="271" on="1"/>
        <pt x="439" y="271" on="0"/>
        <pt x="473" y="305" on="0"/>
        <pt x="479" y="340" on="1"/>
        <pt x="505" y="340" on="1"/>
        <pt x="483" y="208" on="0"/>
      </contour>
    </TTGlyph>
    <TTGlyph name="asterisk" xMin="82" yMin="358" xMax="354" yMax="620">
      <contour>
        <pt x="244" y="358" on="1"/>
        <pt x="228" y="358" on="0"/>
        <pt x="218" y="378" on="0"/>
        <pt x="218" y="401" on="1"/>
        <pt x="218" y="430" on="0"/>
        <pt x="221" y="448" on="1"/>
        <pt x="223" y="456" on="0"/>
        <pt x="224" y="459" on="1"/>
        <pt x="217" y="455" on="0"/>
        <pt x="209" y="455" on="1"/>
        <pt x="203" y="455" on="0"/>
        <pt x="197" y="458" on="1"/>
        <pt x="197" y="451" on="0"/>
        <pt x="196" y="446" on="1"/>
        <pt x="193" y="427" on="0"/>
        <pt x="176" y="377" on="0"/>
        <pt x="170" y="371" on="1"/>
        <pt x="157" y="358" on="0"/>
        <pt x="142" y="358" on="1"/>
        <pt x="125" y="358" on="0"/>
        <pt x="98" y="383" on="0"/>
        <pt x="98" y="399" on="1"/>
        <pt x="98" y="411" on="0"/>
        <pt x="108" y="423" on="1"/>
        <pt x="115" y="431" on="0"/>
        <pt x="182" y="461" on="0"/>
        <pt x="193" y="462" on="1"/>
        <pt x="186" y="470" on="0"/>
        <pt x="189" y="487" on="1"/>
        <pt x="180" y="482" on="0"/>
        <pt x="124" y="470" on="0"/>
        <pt x="108" y="470" on="1"/>
        <pt x="82" y="470" on="0"/>
        <pt x="82" y="498" on="1"/>
        <pt x="82" y="520" on="0"/>
        <pt x="114" y="557" on="0"/>
        <pt x="131" y="557" on="1"/>
        <pt x="133" y="557" on="0"/>
        <pt x="141" y="555" on="1"/>
        <pt x="150" y="552" on="0"/>
        <pt x="189" y="503" on="0"/>
        <pt x="191" y="492" on="1"/>
        <pt x="199" y="505" on="0"/>
        <pt x="216" y="507" on="1"/>
        <pt x="209" y="513" on="0"/>
        <pt x="187" y="571" on="0"/>
        <pt x="187" y="583" on="1"/>
        <pt x="187" y="600" on="0"/>
        <pt x="217" y="620" on="0"/>
        <pt x="237" y="620" on="1"/>
        <pt x="275" y="620" on="0"/>
        <pt x="275" y="591" on="1"/>
        <pt x="275" y="579" on="0"/>
        <pt x="231" y="514" on="0"/>
        <pt x="220" y="507" on="1"/>
        <pt x="236" y="505" on="0"/>
        <pt x="239" y="491" on="1"/>
        <pt x="243" y="500" on="0"/>
        <pt x="302" y="552" on="0"/>
        <pt x="312" y="555" on="1"/>
        <pt x="320" y="557" on="0"/>
        <pt x="323" y="557" on="1"/>
        <pt x="336" y="557" on="0"/>
        <pt x="354" y="533" on="0"/>
        <pt x="354" y="516" on="1"/>
        <pt x="354" y="497" on="0"/>
        <pt x="334" y="470" on="0"/>
        <pt x="300" y="470" on="0"/>
        <pt x="245" y="482" on="0"/>
        <pt x="239" y="487" on="1"/>
        <pt x="242" y="477" on="0"/>
        <pt x="227" y="462" on="1"/>
        <pt x="238" y="462" on="0"/>
        <pt x="298" y="431" on="0"/>
        <pt x="302" y="423" on="1"/>
        <pt x="305" y="416" on="0"/>
        <pt x="305" y="409" on="1"/>
        <pt x="305" y="390" on="0"/>
        <pt x="263" y="358" on="0"/>
      </contour>
    </TTGlyph>
</ttFont>
